<svg width="50" height="50" viewBox="0 0 50 50" fill="none" xmlns="http://www.w3.org/2000/svg">
<g clip-path="url(#clip0_4838_26599)">
<path d="M0.257812 27.6752C0.443383 25.9933 1.1055 24.4835 2.01702 23.0879C4.19041 19.7569 7.29315 17.8422 11.2168 17.3083C13.4867 16.9998 15.6958 17.3616 17.8068 18.2678C17.9196 18.3153 18.0146 18.4043 18.1171 18.474C18.0711 18.8121 18.0087 19.1488 17.9805 19.4884C17.8558 20.9775 17.4698 22.2722 15.6572 22.6029C17.4921 22.8744 17.8988 24.2032 18.1022 25.713C18.3516 24.1676 18.849 22.8773 20.6572 22.5881C19.3463 22.4309 18.705 21.6478 18.4184 20.4984C18.2522 19.8325 18.1616 19.1562 18.1453 18.471C19.6892 19.0776 20.9585 20.0846 22.0705 21.2785C23.7406 23.0716 24.8154 25.188 25.2741 27.604C25.4671 28.6169 25.5176 29.6388 25.4464 30.6651C25.4211 31.027 25.5132 31.3207 25.7165 31.6217C26.6874 33.0559 27.6272 34.5093 28.601 35.9405C28.8193 36.2624 28.7881 36.381 28.4095 36.4715C27.5544 36.6776 26.7067 36.9179 25.8531 37.1344C25.5562 37.2101 25.4196 37.3406 25.4211 37.6847C25.4226 38.3283 25.5176 38.9794 25.3617 39.6186C25.289 39.6201 25.2118 39.6053 25.1465 39.6275C22.4817 40.4981 19.7531 40.6613 16.9829 40.3735C14.667 40.1333 12.4654 39.4822 10.3781 38.4722C7.99237 37.3169 5.85312 35.8219 4.0672 33.8316C3.12301 32.7785 2.31393 31.6469 1.58056 30.4456C1.04315 29.5602 0.761079 28.568 0.257812 27.6752ZM9.89558 28.8795C11.9962 28.8869 13.7347 27.2006 13.7228 25.1376C13.7094 22.9352 12.0244 21.3023 9.90894 21.3379C7.64053 21.3764 6.20199 23.0775 6.15597 25.1049C6.10847 27.1472 7.86916 28.8735 9.89558 28.8795ZM20.9852 34.5227C21.6399 34.5271 22.0779 34.1044 22.0838 33.4593C22.0898 32.8201 21.6488 32.3618 21.0164 32.3499C20.4003 32.3381 19.903 32.8512 19.9104 33.4904C19.9178 34.0911 20.3632 34.5182 20.9852 34.5227Z" fill="#F7A57D"/>
<path d="M0.258347 27.6748C0.761613 28.5662 1.04368 29.5598 1.58109 30.4408C2.31595 31.6436 3.12355 32.7752 4.06773 33.8267C5.85366 35.8171 7.99291 37.312 10.3786 38.4674C12.4659 39.4774 14.6675 40.1285 16.9834 40.3687C19.7551 40.6564 22.4822 40.4933 25.147 39.6227C25.2123 39.602 25.291 39.6168 25.3623 39.6138C25.3638 40.4592 25.343 41.306 25.3756 42.1514C25.392 42.5637 25.2524 42.6646 24.8545 42.6616C22.4941 42.6438 20.1336 42.6661 17.7747 42.6423C17.3085 42.6379 17.1333 42.7417 17.1705 43.2326C17.2135 43.8229 17.1749 44.4191 17.1719 45.0138C13.6387 45.0138 10.1054 45.0138 6.57218 45.0138C6.5707 43.8407 6.55882 42.6675 6.57367 41.4944C6.57812 41.1874 6.47866 41.0094 6.21737 40.8478C2.66037 38.6498 0.602765 35.47 0.0980142 31.3277C-0.0504418 30.1175 -0.0548955 28.8821 0.258347 27.6748Z" fill="#F48667"/>
<path d="M45.2785 1.9803C44.992 1.9803 44.704 1.9892 44.4175 1.97881C43.886 1.95953 43.4971 1.59766 43.4778 1.11713C43.4599 0.663297 43.7895 0.250993 44.3091 0.216882C45.8234 0.118997 47.3391 0.0403923 48.8548 0.000348355C49.5303 -0.0174489 49.946 0.649949 49.6476 1.25506C48.9781 2.6121 48.2788 3.9558 47.5648 5.29059C47.3154 5.75629 46.8358 5.87642 46.4038 5.65692C45.957 5.43 45.807 4.96283 46.0297 4.45412C46.1485 4.18123 46.2866 3.91723 46.4365 3.60282C46.1247 3.63544 45.9822 3.80748 45.8159 3.92613C44.1369 5.11559 42.4638 6.31245 40.7877 7.50635C40.1271 7.9765 39.9059 7.97502 39.2334 7.50635C38.8489 7.23791 38.4496 6.98578 38.0829 6.6951C37.8127 6.48153 37.6197 6.49339 37.3347 6.69806C34.8406 8.48521 32.3332 10.2546 29.8302 12.0283C29.3596 12.362 28.8934 12.7046 28.4154 13.028C27.9003 13.3765 27.3866 13.3023 27.0882 12.8559C26.8032 12.4288 26.9086 11.9349 27.394 11.5893C30.6304 9.28757 33.8712 6.99468 37.109 4.69438C37.5187 4.40369 37.9077 4.42297 38.307 4.70625C38.7791 5.03995 39.2601 5.35882 39.7292 5.69548C39.9104 5.82599 40.0469 5.86011 40.2518 5.71179C41.8923 4.52976 43.5416 3.36255 45.1924 2.19386C45.2503 2.15234 45.3439 2.16124 45.4211 2.14789C45.375 2.0945 45.3275 2.03814 45.2785 1.9803Z" fill="#0696BA"/>
<path d="M46.3808 9.64158C47.4274 9.63861 48.474 9.64603 49.5206 9.62526C49.9066 9.61785 50.0001 9.76616 50.0001 10.1325C49.9897 15.3975 49.9897 20.664 50.0001 25.9291C50.0001 26.2895 49.9259 26.4393 49.5295 26.4289C48.4829 26.4007 47.4363 26.4155 46.3897 26.414C46.3852 20.8316 46.3808 15.2492 46.3778 9.66827C46.3748 9.66827 46.3808 9.64158 46.3808 9.64158Z" fill="#FECB06"/>
<path d="M46.3748 9.66895C46.3793 15.2514 46.3837 20.8323 46.3867 26.4147L46.3496 26.437L46.3065 26.4251C45.3668 26.4162 44.4271 26.3747 43.4888 26.4117C42.9514 26.4325 42.7866 26.299 42.7911 25.7325C42.8163 22.0855 42.8 18.4386 42.797 14.7916C42.8 13.2833 42.8015 11.775 42.8074 10.2666C42.8089 10.0709 42.8327 9.8751 42.846 9.67933C44.0218 9.67636 45.1991 9.67339 46.3748 9.66895Z" fill="#F16822"/>
<path d="M43.89 34.219C43.89 37.0873 43.9093 39.92 43.8826 42.7528C43.8633 44.7298 42.9191 46.1862 41.2059 47.1442C40.4844 47.5477 39.6916 47.7227 38.8662 47.7241C35.903 47.7286 32.9399 47.7271 29.9767 47.7241C29.276 47.7241 28.8633 47.3771 28.8692 46.8165C28.8751 46.2633 29.2849 45.9385 30.0034 45.9385C32.8938 45.9355 35.7858 45.9444 38.6762 45.934C40.3359 45.9281 41.531 45.0842 41.9719 43.6456C42.0788 43.2971 42.1189 42.9396 42.1189 42.5778C42.1204 39.9601 42.1159 37.3424 42.1248 34.7262C42.1263 34.3969 42.1278 34.216 41.6735 34.2783C40.958 34.3762 40.4874 33.6628 40.8288 33.0117C41.2727 32.1663 41.7552 31.3403 42.2644 30.532C42.634 29.9447 43.3659 29.9461 43.7415 30.5379C44.2522 31.3447 44.7139 32.1827 45.1845 33.0147C45.3731 33.3469 45.3241 33.6776 45.091 33.9757C44.8416 34.2916 44.5417 34.3554 43.89 34.219Z" fill="#CB3A2B"/>
<path d="M19.8174 7.52272C17.7569 7.52272 15.6948 7.50641 13.6342 7.52866C12.1705 7.54497 10.8908 8.60836 10.5968 10.0069C10.5315 10.3154 10.3875 10.6298 11.0051 10.5275C11.6687 10.4178 12.1319 11.1801 11.8082 11.7985C11.3658 12.6454 10.8878 13.4759 10.3771 14.2827C9.99261 14.8908 9.24587 14.8656 8.85989 14.2457C8.37444 13.4641 7.92758 12.6602 7.46886 11.8623C7.2818 11.536 7.28032 11.2038 7.503 10.8938C7.72272 10.5883 8.0315 10.4444 8.40116 10.5423C8.6565 10.6091 8.72034 10.569 8.75745 10.2887C9.12266 7.49751 11.1402 5.7341 13.9623 5.72965C17.9573 5.72372 21.9522 5.72816 25.9487 5.72816C26.0392 5.72816 26.1298 5.7252 26.2203 5.72965C26.8483 5.76079 27.2105 6.10339 27.1957 6.65066C27.1809 7.16826 26.8157 7.50493 26.2189 7.51383C25.4053 7.52569 24.5918 7.51679 23.7782 7.51679C22.4585 7.51679 21.1387 7.51679 19.8189 7.51679C19.8174 7.51976 19.8174 7.52124 19.8174 7.52272Z" fill="#CC3C2C"/>
<path d="M42.7962 14.793C42.7992 18.4399 42.817 22.0869 42.7903 25.7339C42.7858 26.3004 42.9506 26.4354 43.488 26.4131C44.4248 26.376 45.366 26.4176 46.3057 26.4265C45.5323 26.5288 44.7558 26.4635 43.9809 26.468C41.3963 26.4813 38.8131 26.4799 36.2285 26.4799C36.0325 26.4799 35.8306 26.5199 35.6406 26.4265L35.651 26.3953C36.662 26.3983 37.6745 26.382 38.6855 26.4146C39.116 26.4279 39.2362 26.2945 39.2347 25.8658C39.2184 22.1833 39.2244 18.5022 39.2229 14.8197C40.415 14.8078 41.6056 14.8004 42.7962 14.793Z" fill="#FECB08"/>
<path d="M39.2242 14.8165C39.2257 18.499 39.2197 22.1816 39.236 25.8626C39.2375 26.2913 39.1173 26.4247 38.6868 26.4114C37.6758 26.3802 36.6633 26.3966 35.6523 26.3921C35.6464 24.255 35.639 22.1178 35.633 19.9806C35.636 18.416 35.6568 16.8513 35.633 15.2866C35.6271 14.8728 35.7503 14.772 36.1467 14.7853C37.1725 14.8194 38.1983 14.809 39.2242 14.8165Z" fill="#F16822"/>
<path d="M6.57264 45.0156C10.1059 45.0156 13.6392 45.0156 17.1724 45.0156C17.5866 45.023 18.0008 45.0216 18.4135 45.0408C19.7437 45.1031 20.7532 46.1621 20.771 47.5043C15.1371 47.5058 9.50168 47.5058 3.86777 47.5072C3.86332 47.2729 3.84996 47.0386 3.85441 46.8057C3.87668 45.8046 4.58927 45.0839 5.59877 45.0379C5.92389 45.023 6.24901 45.023 6.57264 45.0156Z" fill="#35C4F2"/>
<path d="M3.86741 47.5069C9.50132 47.5054 15.1367 47.5054 20.7706 47.5039C20.7929 48.8728 19.7581 49.9688 18.3152 49.9792C14.3202 50.0059 10.3267 50.0059 6.33178 49.9792C4.88879 49.9703 3.8496 48.8743 3.86741 47.5069Z" fill="#264192"/>
<path d="M32.0544 26.4425C30.9573 26.4544 29.8602 26.4633 28.7616 26.4796C28.5523 26.4826 28.4781 26.3995 28.4781 26.1934C28.4825 24.2134 28.484 22.235 28.4766 20.255C28.4751 19.9821 28.6295 19.9821 28.8225 19.9836C29.9032 19.9925 30.9825 19.9984 32.0633 20.0058C32.0603 22.1519 32.0573 24.2965 32.0544 26.4425Z" fill="#F16823"/>
<path d="M32.0547 26.4424C32.0577 24.2963 32.0606 22.1517 32.0636 20.0057C33.2527 19.9968 34.4433 19.9894 35.6325 19.9805C35.6384 22.1176 35.6458 24.2548 35.6518 26.3919L35.6414 26.4231C34.4463 26.4305 33.2512 26.4364 32.0547 26.4424Z" fill="#FECC07"/>
<path d="M18.1463 18.4678C18.1627 19.153 18.2532 19.8293 18.4195 20.4952C18.706 21.6446 19.3473 22.4277 20.6582 22.5849C18.85 22.8756 18.3527 24.1659 18.1033 25.7098C17.8999 24.2 17.4916 22.8711 15.6582 22.5997C17.4709 22.2705 17.8568 20.9757 17.9815 19.4852C18.0097 19.1456 18.0721 18.8089 18.1181 18.4707C18.1166 18.4722 18.1463 18.4678 18.1463 18.4678Z" fill="#FEFBFA"/>
<path d="M46.374 9.66879C45.1968 9.67324 44.021 9.67621 42.8438 9.67917C44.021 9.52938 45.1997 9.60502 46.3785 9.64209C46.38 9.64209 46.374 9.66879 46.374 9.66879Z" fill="#FECB08"/>
<path d="M9.89627 28.8791C7.86985 28.8717 6.10916 27.1468 6.15518 25.1046C6.2012 23.0787 7.64122 21.376 9.90815 21.3375C12.0251 21.3019 13.7101 22.9333 13.722 25.1372C13.7353 27.2002 11.9969 28.8865 9.89627 28.8791Z" fill="#FEE3C8"/>
<path d="M20.9851 34.5226C20.363 34.5181 19.9177 34.091 19.9102 33.4903C19.9028 32.8511 20.3987 32.3379 21.0162 32.3498C21.6487 32.3617 22.0911 32.8214 22.0836 33.4592C22.0777 34.1028 21.6412 34.5255 20.9851 34.5226Z" fill="#FEE3C8"/>
</g>
<defs>
<clipPath id="clip0_4838_26599">
<rect width="50" height="50" fill="white"/>
</clipPath>
</defs>
</svg>
