<svg width="50" height="50" viewBox="0 0 50 50" fill="none" xmlns="http://www.w3.org/2000/svg">
<g clip-path="url(#clip0_4836_26475)">
<path d="M10.3163 44.1701C10.2804 43.9336 10.0756 43.8227 9.92791 43.6748C7.47626 41.2155 5.12705 38.669 3.2381 35.7435C1.74955 33.44 0.622831 30.9873 0.178529 28.2599C-0.744663 22.5924 1.97702 17.341 6.85105 14.7535C6.89362 14.7311 6.9455 14.7245 6.99205 14.71C7.15301 15.3545 7.27407 16.0057 7.32861 16.6687C7.27673 16.7889 7.15301 16.81 7.05325 16.8642C6.54908 17.1389 6.33358 17.551 6.39344 18.1242C6.45463 18.7014 6.91623 18.914 7.32462 19.1782C7.27008 19.2403 7.22086 19.3076 7.15967 19.3618C4.87563 21.3958 3.82075 23.9185 4.10941 26.9655C4.19987 27.9165 4.3994 28.8437 4.90357 29.6797C5.433 31.0837 6.39876 32.1417 7.58934 33.0226C7.91125 33.3119 8.25845 33.5642 8.67216 33.7134C9.47163 34.2021 10.3496 34.4781 11.2648 34.6406C13.3041 35.0025 15.2409 34.7331 17.0554 33.7095C17.4505 33.5298 17.8336 33.3304 18.1409 33.0147C18.7714 32.5841 19.3234 32.073 19.7558 31.4403C20.2067 30.9345 20.5872 30.385 20.816 29.7431C21.259 28.8859 21.529 27.9693 21.6101 27.0197C21.8828 23.8511 20.8 21.2241 18.3324 19.1742C18.9483 18.9167 19.4059 18.5336 19.3288 17.7953C19.2662 17.2036 18.8831 16.8813 18.3191 16.7506C18.3989 16.4389 18.4774 16.1258 18.5572 15.8141C18.6916 15.8736 18.8459 15.9079 18.9576 15.9964C20.4076 17.1508 21.5769 18.5455 22.4256 20.1859C23.9394 23.1128 24.1815 26.1968 23.4525 29.372C23.0415 31.1603 22.3112 32.8298 21.4106 34.4266C20.3331 36.3378 19.0281 38.0865 17.5888 39.7402C16.9396 40.4851 16.2705 41.2102 15.6001 41.9366C14.4361 43.1993 13.2123 44.3999 11.9552 45.5688C11.6386 45.2676 11.3287 44.9573 11.0014 44.6667C10.7939 44.4805 10.6622 44.1767 10.3163 44.1701Z" fill="#FE826E"/>
<path d="M38.6252 21.6385C37.6289 20.5409 36.5474 19.5226 35.6016 18.3775C33.8244 16.2246 32.2866 13.9475 31.6361 11.1818C30.4309 6.05585 33.5703 1.19008 38.7729 0.151947C39.2558 0.0555298 39.7479 -0.038246 40.2494 0.0159062C40.3239 0.0449635 40.3958 0.0872286 40.4729 0.101757C42.8448 0.531012 44.8202 1.63783 46.2635 3.57014C47.8345 5.67283 48.4092 8.03307 47.9369 10.6284C47.5538 12.7364 46.6572 14.6185 45.4201 16.354C44.5807 17.5322 43.6589 18.6429 42.6745 19.7075C41.734 20.7245 40.7576 21.7032 39.7333 22.6357C39.3648 22.3028 38.995 21.9713 38.6252 21.6385ZM43.4261 6.14435C42.6466 5.36508 41.7034 4.91338 40.6033 4.85922C37.9588 4.72714 35.8862 7.07286 36.3545 9.65763C36.6565 11.3231 37.6608 12.426 39.273 12.887C40.9771 13.3743 42.471 12.8988 43.5977 11.5345C44.6127 10.3061 44.8095 8.90611 44.2176 7.41362C44.5342 6.96059 45.033 6.69908 45.4002 6.29624C45.762 5.89736 45.8179 5.49584 45.5159 5.21187C45.2299 4.94243 44.7696 4.98602 44.4011 5.31357C44.0819 5.59622 43.8278 5.95547 43.4261 6.14435Z" fill="#FE826E"/>
<path d="M10.3151 44.1707C10.6596 44.1773 10.7926 44.4811 11.0041 44.6673C11.3314 44.9565 11.6413 45.2669 11.9593 45.5694C12.1734 45.7939 12.3996 46.0092 12.5978 46.2469C12.804 46.4939 12.9503 46.4319 13.1512 46.2311C13.811 45.5707 14.4881 44.9275 15.1572 44.2777C15.1904 44.2473 15.2224 44.2156 15.2556 44.1852C15.3075 44.1786 15.3594 44.1707 15.4113 44.1641C15.4591 44.172 15.507 44.1812 15.5549 44.1892C15.5722 44.3331 15.6667 44.3661 15.7984 44.378C16.7362 44.456 17.6607 44.6277 18.5639 44.8813C19.4073 45.1164 20.2507 45.3726 20.8746 46.0501C21.1872 46.3896 21.1912 46.7039 20.8812 47.0487C20.5766 47.3894 20.2134 47.6364 19.7918 47.8028C18.2766 48.4011 16.679 48.6178 15.0774 48.8396C14.5745 48.9096 14.0571 48.8344 13.5689 49.0074C10.7767 49.084 8.01242 48.8978 5.31068 48.133C4.73469 47.9706 4.18263 47.7474 3.68246 47.4172C2.88697 46.8941 2.87367 46.2298 3.66118 45.6962C4.58304 45.0714 5.65655 44.8231 6.72474 44.6078C7.90733 44.3688 9.10322 44.1826 10.3151 44.1707Z" fill="#FED44D"/>
<path d="M15.1608 44.2767C14.4904 44.9265 13.8133 45.5698 13.1548 46.2301C12.9539 46.4309 12.8076 46.493 12.6014 46.246C12.4032 46.0083 12.1771 45.793 11.9629 45.5684C13.22 44.3995 14.4438 43.1989 15.6078 41.9363C16.2769 41.2098 16.9473 40.4847 17.5965 39.7398C19.0371 38.0849 20.3421 36.3361 21.4183 34.4263C22.3189 32.8295 23.0492 31.16 23.4602 29.3716C24.1892 26.1965 23.9471 23.1124 22.4333 20.1856C21.5846 18.5452 20.4166 17.1517 18.9653 15.9961C18.8536 15.9076 18.6993 15.8732 18.5649 15.8138C18.6487 15.4466 18.7338 15.0794 18.8177 14.7109C22.5982 16.7529 24.8889 19.8858 25.5833 24.0911C26.0675 27.0246 25.4676 29.8379 24.2544 32.5349C23.0744 35.1567 21.4209 37.4694 19.5639 39.65C18.3428 41.083 17.0484 42.4487 15.7115 43.7748C15.5958 43.8897 15.4521 43.9861 15.4175 44.1631C15.3643 44.1697 15.3125 44.1776 15.2606 44.1842C15.226 44.2146 15.1927 44.245 15.1608 44.2767Z" fill="#F67467"/>
<path d="M7.32986 16.6682C7.27399 16.0052 7.15294 15.354 6.99198 14.7095C6.86161 12.5962 7.54536 11.5079 9.53275 10.6507C11.0173 10.0101 12.5817 9.95068 14.1633 9.99955C14.1687 10.1501 14.2791 10.2122 14.3855 10.298C14.6901 10.5424 15.016 10.7511 15.2674 11.0694C16.2132 12.2621 16.462 13.6449 16.4527 15.107C16.4181 15.1163 16.3849 15.1268 16.3503 15.1361C15.1384 14.967 13.9172 14.9155 12.6974 14.8548C11.7729 14.8085 10.847 14.8732 9.94779 15.1216C8.99799 15.3844 8.58029 15.844 8.48584 16.6972C8.1014 16.7065 7.7143 16.7567 7.32986 16.6682Z" fill="#666D78"/>
<path d="M39.7324 22.6355C40.758 21.703 41.7331 20.7243 42.6736 19.7073C43.658 18.6427 44.5785 17.532 45.4192 16.3538C46.6564 14.6183 47.5529 12.7362 47.9361 10.6282C48.407 8.03288 47.8336 5.67264 46.2626 3.56995C44.8193 1.63764 42.8439 0.532148 40.472 0.101572C40.3949 0.0870433 40.3231 0.0447782 40.2486 0.0157209C44.5453 -0.200888 48.669 3.179 49.3089 7.38042C49.7678 10.3984 48.8632 13.0585 47.2975 15.5706C46.1136 17.4712 44.6277 19.1328 43.0753 20.7388C42.7893 21.0347 42.5126 21.3371 42.232 21.637C41.8222 22.0015 41.4059 22.3594 41.0041 22.7319C40.3324 23.3553 40.3364 23.3593 39.7324 22.6355Z" fill="#F67467"/>
<path d="M39.7327 22.6359C40.3366 23.3597 40.3326 23.3557 41.0044 22.7336C41.4061 22.3611 41.8225 22.0032 42.2322 21.6387L42.2349 21.6453C42.2468 21.7549 42.2974 21.8434 42.4171 21.8355C42.8401 21.8064 43.2299 21.9649 43.6276 22.0547C44.33 22.2132 45.0656 22.3308 45.6403 22.8128C46.1591 23.2487 46.1125 23.6687 45.5219 24.0108C45.0204 24.3014 44.4657 24.4652 43.9056 24.6104C42.1777 25.0569 40.4138 25.0278 38.6512 25.0067C37.2079 24.9776 35.7951 24.7663 34.4542 24.2168C34.0498 24.0517 33.5763 23.8734 33.5723 23.3359C33.5683 22.8076 34.0565 22.657 34.4316 22.4906C35.4493 22.0428 36.5454 21.883 37.6415 21.7483C37.9688 21.7087 38.2973 21.677 38.6246 21.6413C38.993 21.9715 39.3629 22.303 39.7327 22.6359Z" fill="#FED44D"/>
<path d="M16.4534 15.1055C16.4614 13.6434 16.2126 12.2606 15.2682 11.0679C15.0154 10.7496 14.6908 10.5409 14.3862 10.2965C14.2798 10.212 14.1694 10.1499 14.1641 9.99805C14.631 10.0033 15.0979 10.0086 15.5648 10.0152C15.6859 10.1209 15.8295 10.0733 15.9665 10.076C16.5199 10.0588 17.0507 10.1803 17.5589 10.3837C18.4381 10.735 18.7454 11.373 18.4953 12.2883C18.4435 12.4772 18.3889 12.6713 18.2932 12.8404C18.0723 13.23 18.1029 13.5338 18.4847 13.8178C18.7707 14.0304 18.808 14.3751 18.8146 14.7106C18.7295 15.0778 18.6457 15.445 18.5619 15.8135C18.482 16.1252 18.4036 16.4382 18.3237 16.7499C17.9699 16.7591 17.6147 16.7671 17.2609 16.775C17.2489 16.598 17.225 16.4197 17.229 16.2427C17.2423 15.6774 17.044 15.2627 16.4534 15.1055Z" fill="#5E6975"/>
<path d="M13.5723 49.0047C14.0605 48.8317 14.5779 48.907 15.0808 48.837C16.6824 48.6151 18.28 48.3998 19.7952 47.8002C20.2169 47.6338 20.58 47.3868 20.8846 47.046C21.1946 46.7 21.1919 46.387 20.878 46.0475C20.2528 45.3699 19.4094 45.1137 18.5673 44.8786C17.6641 44.6263 16.7396 44.4533 15.8018 44.3754C15.6701 44.3648 15.5769 44.3305 15.5583 44.1865C17.5643 44.2565 19.5238 44.5603 21.3941 45.3145C21.7466 45.4571 22.0752 45.65 22.3466 45.9247C22.751 46.3354 22.7563 46.7739 22.3413 47.1728C21.7759 47.7157 21.0509 47.9613 20.3206 48.1647C18.1151 48.7789 15.8603 49.0338 13.5723 49.0047Z" fill="#F7C94A"/>
<path d="M38.6504 25.005C40.4143 25.0274 42.1769 25.0551 43.9049 24.6087C44.4649 24.4634 45.0196 24.301 45.5211 24.0091C46.1104 23.667 46.1583 23.247 45.6395 22.8111C45.0648 22.329 44.3292 22.2115 43.6268 22.053C43.2291 21.9632 42.8393 21.8047 42.4163 21.8337C42.2966 21.8417 42.246 21.7532 42.2341 21.6436C43.5138 21.7704 44.7921 21.8971 46.016 22.329C46.3445 22.4453 46.6651 22.5747 46.9352 22.7992C47.4314 23.2126 47.4194 23.5825 46.8806 23.9483C46.3273 24.3247 45.6887 24.4978 45.0436 24.647C42.9963 25.1212 40.9185 25.1529 38.834 25.0683C38.7728 25.067 38.7116 25.0274 38.6504 25.005Z" fill="#F7C94A"/>
<path d="M28.6625 32.0276C29.0429 32.0381 29.4007 32.4014 29.3821 32.7567C29.3635 33.1106 28.9897 33.4818 28.6478 33.4884C28.2621 33.4963 27.9069 33.1278 27.9082 32.7223C27.9109 32.3631 28.2847 32.017 28.6625 32.0276Z" fill="#D0D3D4"/>
<path d="M33.7035 30.1497C34.0853 30.1391 34.4272 30.4614 34.4498 30.8523C34.4724 31.2274 34.1491 31.5801 33.7594 31.6065C33.3723 31.6329 33.0078 31.2908 32.9852 30.8814C32.9652 30.5234 33.3217 30.1616 33.7035 30.1497Z" fill="#D0D3D4"/>
<path d="M40.0372 30.2866C40.0412 30.667 39.7033 31.0157 39.3175 31.0276C38.9331 31.0395 38.5819 30.708 38.5686 30.3183C38.5566 29.9895 38.961 29.5708 39.2963 29.5655C39.678 29.5602 40.0332 29.9063 40.0372 30.2866Z" fill="#D0D3D4"/>
<path d="M28.4208 36.2675C28.0377 36.2529 27.7011 35.9069 27.7051 35.5278C27.7078 35.1672 28.0842 34.8027 28.4487 34.8067C28.764 34.8106 29.1897 35.2571 29.1724 35.5688C29.1524 35.9571 28.8039 36.2807 28.4208 36.2675Z" fill="#D0D3D4"/>
<path d="M35.0704 37.8919C35.0757 37.5129 35.4442 37.1497 35.8007 37.1708C36.1439 37.1906 36.5483 37.5948 36.5403 37.9118C36.5337 38.2354 36.1213 38.6263 35.7808 38.6342C35.4189 38.6408 35.0638 38.2697 35.0704 37.8919Z" fill="#D0D3D4"/>
<path d="M35.8652 30.8844C35.8652 30.5239 36.1965 30.1659 36.5437 30.1527C36.9028 30.1382 37.3485 30.5582 37.3365 30.899C37.3258 31.1961 36.9002 31.6095 36.6022 31.6109C36.2178 31.6135 35.8666 31.2675 35.8652 30.8844Z" fill="#D0D3D4"/>
<path d="M42.2338 37.9171C42.2285 38.2949 41.8667 38.6528 41.5088 38.6343C41.1403 38.6145 40.8237 38.25 40.8384 37.863C40.8517 37.5064 41.1936 37.1696 41.5394 37.1709C41.9039 37.1722 42.2405 37.5328 42.2338 37.9171Z" fill="#D0D3D4"/>
<path d="M45.3194 37.8989C45.3207 38.282 44.9762 38.6399 44.613 38.6346C44.2472 38.628 43.916 38.2674 43.924 37.8818C43.932 37.5238 44.2592 37.1818 44.6064 37.1712C44.9682 37.1593 45.3181 37.5172 45.3194 37.8989Z" fill="#D0D3D4"/>
<path d="M50.0004 43.5292C50.003 43.9122 49.6598 44.2715 49.2953 44.2675C48.9309 44.2635 48.597 43.9003 48.6036 43.5173C48.6103 43.1607 48.9388 42.816 49.2834 42.8041C49.6452 42.7909 49.9977 43.1488 50.0004 43.5292Z" fill="#D0D3D4"/>
<path d="M27.6704 47.2429C27.282 47.2509 26.9189 46.922 26.9122 46.5588C26.9055 46.1982 27.2674 45.8561 27.6531 45.8574C28.0176 45.8587 28.3635 46.1705 28.3861 46.5165C28.4101 46.8718 28.0509 47.235 27.6704 47.2429Z" fill="#D0D3D4"/>
<path d="M42.0056 45.8565C42.3861 45.8631 42.7452 46.2224 42.7239 46.579C42.704 46.925 42.3568 47.2407 41.995 47.242C41.6105 47.2447 41.246 46.9026 41.25 46.5433C41.254 46.1827 41.6172 45.8512 42.0056 45.8565Z" fill="#D0D3D4"/>
<path d="M44.8686 47.2434C44.4855 47.2434 44.125 46.9 44.1329 46.5394C44.1396 46.1749 44.5014 45.8499 44.8899 45.8565C45.253 45.8645 45.6095 46.2026 45.5989 46.5315C45.5856 46.9237 45.2583 47.242 44.8686 47.2434Z" fill="#D0D3D4"/>
<path d="M31.5817 31.0485C31.5777 31.4738 31.309 31.7248 30.854 31.7287C30.4244 31.7327 30.1849 31.4963 30.1836 31.0696C30.1823 30.6179 30.4324 30.3498 30.8607 30.3419C31.2451 30.3353 31.5857 30.6694 31.5817 31.0485Z" fill="#D0D3D4"/>
<path d="M30.9865 37.6939C30.9665 38.1033 30.6925 38.3543 30.2721 38.3464C29.8384 38.3384 29.5697 38.0492 29.591 37.612C29.611 37.1854 29.9129 36.9278 30.3546 36.9608C30.7616 36.9925 31.0064 37.2765 30.9865 37.6939Z" fill="#D0D3D4"/>
<path d="M33.8679 37.9132C33.8612 38.291 33.4941 38.6542 33.1389 38.6344C32.7731 38.6132 32.4578 38.2514 32.4711 37.867C32.4831 37.5117 32.817 37.1762 33.1615 37.171C33.5207 37.1657 33.8745 37.5368 33.8679 37.9132Z" fill="#D0D3D4"/>
<path d="M39.3489 37.9001C39.3503 38.2804 39.0084 38.6371 38.6466 38.6344C38.2847 38.6318 37.9402 38.258 37.9535 37.8802C37.9655 37.521 38.3007 37.1763 38.6426 37.171C39.0031 37.1644 39.3476 37.521 39.3489 37.9001Z" fill="#D0D3D4"/>
<path d="M48.1018 38.5041C48.1058 38.8792 47.7599 39.2371 47.3941 39.2358C46.9804 39.2345 46.6465 38.9267 46.6465 38.5437C46.6452 38.1792 46.9591 37.8608 47.3289 37.849C47.7293 37.8371 48.0991 38.1488 48.1018 38.5041Z" fill="#D0D3D4"/>
<path d="M49.1426 40.0244C49.539 40.0218 49.8729 40.348 49.8649 40.7284C49.8569 41.0943 49.543 41.402 49.1692 41.4099C48.7821 41.4179 48.4216 41.0943 48.4123 40.7311C48.403 40.3731 48.7608 40.0271 49.1426 40.0244Z" fill="#D0D3D4"/>
<path d="M36.2613 47.2433C35.8423 47.2433 35.5749 46.9884 35.563 46.575C35.5497 46.1391 35.8237 45.8564 36.26 45.8564C36.6963 45.8564 36.9704 46.1378 36.9584 46.5736C36.9464 46.9857 36.6804 47.2419 36.2613 47.2433Z" fill="#D0D3D4"/>
<path d="M40.442 28.463C40.0243 28.4696 39.6837 28.1645 39.6797 27.7775C39.6757 27.4103 39.9897 27.088 40.3648 27.0775C40.7559 27.0656 41.1217 27.3905 41.131 27.7563C41.1403 28.0998 40.7905 28.4577 40.442 28.463Z" fill="#D0D3D4"/>
<path d="M47.5637 45.0674C47.9281 45.0687 48.2833 45.3949 48.2966 45.7397C48.3113 46.0989 47.9521 46.4516 47.5677 46.4542C47.1672 46.4569 46.8334 46.1306 46.844 45.745C46.8546 45.3804 47.1885 45.0661 47.5637 45.0674Z" fill="#D0D3D4"/>
<path d="M30.5093 47.2421C30.1594 47.246 29.8056 46.9066 29.7989 46.5605C29.7923 46.2184 30.1408 45.8618 30.488 45.8566C30.9057 45.8499 31.2436 46.1524 31.2516 46.5381C31.2595 46.9224 30.9256 47.2381 30.5093 47.2421Z" fill="#D0D3D4"/>
<path d="M34.0746 46.5539C34.0719 46.9687 33.8138 47.2328 33.4015 47.2421C33.0143 47.2513 32.6725 46.9172 32.6778 46.5341C32.6831 46.1247 32.9478 45.8632 33.3615 45.8566C33.8005 45.85 34.0772 46.1207 34.0746 46.5539Z" fill="#D0D3D4"/>
<path d="M38.4454 46.5287C38.4521 46.0941 38.7288 45.8379 39.1718 45.8564C39.5336 45.8723 39.8528 46.2117 39.8435 46.5696C39.8329 46.9276 39.4963 47.2459 39.1305 47.2419C38.6849 47.2379 38.4388 46.9817 38.4454 46.5287Z" fill="#D0D3D4"/>
<path d="M24.1113 46.5421C24.114 46.1023 24.3747 45.8487 24.8177 45.8566C25.1622 45.8632 25.5094 46.2159 25.5041 46.5566C25.4988 46.9 25.1489 47.2421 24.8031 47.2421C24.3601 47.2421 24.1087 46.9885 24.1113 46.5421Z" fill="#D0D3D4"/>
<path d="M15.9681 10.0757C15.8311 10.0731 15.6875 10.1193 15.5664 10.015C15.7074 9.99254 15.8444 9.99122 15.9681 10.0757Z" fill="#666D78"/>
<path d="M7.59202 33.0218C6.40145 32.1408 5.43569 31.0829 4.90625 29.6789C4.90891 29.0066 4.92886 28.333 4.91157 27.6621C4.87698 26.332 5.43037 25.3362 6.55975 24.6256C7.55477 23.9995 8.66021 23.6971 9.79225 23.458C10.1554 24.6824 10.5186 25.9081 10.8551 27.0453C11.5136 26.4456 12.1455 25.8698 12.7773 25.2939C12.8372 25.2926 12.8957 25.2899 12.9556 25.2886C13.5968 25.8737 14.2379 26.4588 14.8512 27.0188C15.2024 25.9107 15.5828 24.7128 15.9633 23.5135C17.1485 23.6574 18.2446 24.0431 19.2383 24.7075C19.507 25.5171 19.6853 26.3294 19.6494 27.1998C19.5988 28.4453 19.6347 29.6934 19.6387 30.9416C19.6401 31.1133 19.5736 31.3088 19.7571 31.4422C19.3248 32.0748 18.7727 32.586 18.1422 33.0165C18.1422 31.6865 18.1462 30.3551 18.1409 29.0251C18.1395 28.6342 17.8136 28.2406 17.5143 28.2802C17.0966 28.3357 16.9383 28.6183 16.9476 29.0146C16.949 29.0476 16.9476 29.0806 16.9476 29.1136C16.9476 30.4938 16.9463 31.8727 16.9503 33.2529C16.9503 33.4101 16.8971 33.5871 17.0554 33.7113C15.2423 34.7335 13.3041 35.0043 11.2648 34.6424C10.3483 34.48 9.47033 34.2039 8.67218 33.7152C8.8358 33.595 8.78259 33.418 8.78392 33.2609C8.78924 32.6533 8.78658 32.0471 8.78658 31.4395C8.78658 30.6193 8.78791 29.7991 8.78525 28.9789C8.78392 28.5787 8.60168 28.2842 8.18398 28.2881C7.76628 28.2921 7.59202 28.5893 7.59202 28.9895C7.59202 29.0885 7.59202 29.1863 7.59202 29.2853C7.59335 30.5282 7.59335 31.775 7.59202 33.0218ZM12.2665 32.2042C12.2851 32.6243 12.5485 32.7973 12.8851 32.796C13.2469 32.7946 13.4637 32.5424 13.4584 32.1844C13.4531 31.8146 13.2176 31.6205 12.8465 31.631C12.4674 31.6416 12.2944 31.8714 12.2665 32.2042ZM12.7866 29.8493C13.2575 29.8559 13.4345 29.597 13.4491 29.2655C13.4651 28.9076 13.2243 28.6659 12.8638 28.6791C12.5326 28.691 12.2638 28.86 12.2718 29.2602C12.2811 29.6393 12.506 29.807 12.7866 29.8493Z" fill="#B4DC7F"/>
<path d="M9.79127 23.4555C8.65923 23.6958 7.55379 23.997 6.55877 24.623C5.42939 25.3336 4.87467 26.3295 4.91059 27.6595C4.92788 28.3318 4.90926 29.0041 4.90527 29.6763C4.4011 28.8416 4.20157 27.9131 4.11111 26.9635C3.82245 23.9164 4.87733 21.3937 7.16137 19.3597C7.22256 19.3055 7.27178 19.2382 7.32632 19.1761C7.7081 19.1748 8.09121 19.1471 8.469 19.1788C8.83216 19.2105 8.84147 19.0506 8.77363 18.7786C8.60336 18.0944 8.45836 17.4063 8.48496 16.6944C8.57941 15.8425 8.99711 15.3828 9.94691 15.1187C10.8462 14.869 11.772 14.8056 12.6965 14.8519C13.9164 14.9126 15.1375 14.9641 16.3494 15.1332C16.3121 16.0009 16.4172 16.8713 16.2576 17.7391C15.8785 19.8061 15.063 21.5588 12.9666 22.4318C12.3892 22.4503 11.8172 22.453 11.2878 22.1571C11.0883 22.0462 10.9685 22.1003 10.9685 22.3751C10.9685 22.6775 11.0683 22.9971 10.8767 23.2824C10.5149 23.3419 10.1531 23.3987 9.79127 23.4555Z" fill="#FEE3C7"/>
<path d="M19.2394 24.7046C18.2457 24.0416 17.1509 23.6546 15.9643 23.5107C15.5826 23.3337 15.1662 23.3469 14.7618 23.294C14.7605 22.8754 14.7591 22.458 14.7578 22.0393C15.8154 21.3432 16.418 20.3196 16.8503 19.1732C17.3451 19.1732 17.84 19.1732 18.3348 19.1719C20.8025 21.2204 21.8853 23.8488 21.6126 27.0173C21.5314 27.967 21.2614 28.8849 20.8184 29.7408C20.696 29.5995 20.7466 29.4291 20.7453 29.2706C20.7386 28.5032 20.7413 27.7345 20.7386 26.9671C20.7373 26.3662 20.4859 25.8643 20.1041 25.4165C19.8593 25.1286 19.5374 24.9305 19.2394 24.7046Z" fill="#FEF3B3"/>
<path d="M7.5918 33.0209C7.5918 31.7741 7.59313 30.5273 7.59313 29.2804C7.59313 29.1814 7.59313 29.0836 7.59313 28.9846C7.5918 28.5844 7.76739 28.2872 8.18509 28.2832C8.60278 28.2793 8.78636 28.5738 8.78636 28.974C8.78902 29.7942 8.78769 30.6144 8.78769 31.4346C8.78769 32.0422 8.79035 32.6484 8.78503 33.256C8.7837 33.4132 8.83691 33.5902 8.67329 33.7103C8.26091 33.5624 7.91372 33.3115 7.5918 33.0209Z" fill="#A6D266"/>
<path d="M17.057 33.7082C16.8987 33.5841 16.952 33.4071 16.952 33.2499C16.948 31.8697 16.9493 30.4908 16.9493 29.1106C16.9493 29.0776 16.9506 29.0446 16.9493 29.0115C16.9387 28.6153 17.0983 28.3326 17.516 28.2772C17.8153 28.2376 18.1412 28.6311 18.1425 29.0221C18.1465 30.3521 18.1439 31.6835 18.1439 33.0135C17.8352 33.3305 17.4521 33.5286 17.057 33.7082Z" fill="#A6D266"/>
<path d="M19.2402 24.7051C19.5382 24.9309 19.8601 25.129 20.1062 25.417C20.4893 25.8647 20.7394 26.3666 20.7408 26.9676C20.7434 27.735 20.7408 28.5037 20.7474 29.271C20.7487 29.4295 20.6982 29.5999 20.8206 29.7412C20.5918 30.3831 20.21 30.9326 19.7604 31.4384C19.5768 31.3064 19.6433 31.1096 19.6433 30.9379C19.638 29.691 19.6034 28.4416 19.6539 27.1961C19.6859 26.327 19.5089 25.5147 19.2402 24.7051Z" fill="#B1D779"/>
<path d="M8.48858 16.6977C8.46197 17.4096 8.60697 18.0977 8.77724 18.7819C8.84509 19.0526 8.83444 19.2124 8.47262 19.1821C8.09483 19.149 7.71038 19.1768 7.32993 19.1794C6.92022 18.9139 6.45995 18.7026 6.39876 18.1254C6.33757 17.5535 6.5544 17.1401 7.05856 16.8654C7.157 16.8112 7.28204 16.7901 7.33392 16.6699C7.71571 16.7571 8.10281 16.7069 8.48858 16.6977Z" fill="#FAC9BE"/>
<path d="M18.3361 19.1743C17.8413 19.1743 17.3464 19.1743 16.8516 19.1756C17.0857 18.3924 17.256 17.5986 17.2613 16.777C17.6151 16.7691 17.9703 16.7599 18.3241 16.752C18.8882 16.8827 19.2713 17.205 19.3338 17.7967C19.4096 18.5337 18.9507 18.9154 18.3361 19.1743Z" fill="#FAC9BE"/>
<path d="M44.2166 7.41432C44.8072 8.9068 44.6103 10.3068 43.5967 11.5352C42.47 12.8982 40.9761 13.375 39.2721 12.8876C37.6598 12.4267 36.6555 11.3225 36.3535 9.65833C35.8852 7.07355 37.9564 4.72652 40.6023 4.85992C41.7024 4.91539 42.6456 5.3671 43.4251 6.14504C42.5285 7.13563 41.4882 7.97565 40.5145 8.88567C40.3269 9.06001 40.2245 8.92265 40.1048 8.80774C39.7363 8.45245 39.3878 8.07603 38.9954 7.74979C38.6309 7.44601 38.2518 7.483 37.9963 7.81583C37.7396 8.14999 37.7782 8.48415 38.0841 8.78265C38.6029 9.28983 39.1138 9.80626 39.6405 10.3055C40.1952 10.8299 40.5118 10.8074 41.0812 10.2817C42.1201 9.32021 43.171 8.36924 44.2166 7.41432Z" fill="#FEF3B3"/>
<path d="M44.2176 7.41378C43.172 8.36871 42.1211 9.31836 41.0822 10.2812C40.5128 10.8082 40.1962 10.8293 39.6415 10.305C39.1134 9.80573 38.6039 9.2893 38.0851 8.78212C37.7792 8.48362 37.7419 8.14946 37.9973 7.8153C38.2514 7.48246 38.6305 7.44548 38.9964 7.74926C39.3888 8.0755 39.7373 8.45192 40.1058 8.80721C40.2255 8.92212 40.3279 9.05948 40.5155 8.88514C41.4892 7.97512 42.5295 7.1351 43.4261 6.14451C43.8278 5.95564 44.0806 5.59638 44.4012 5.31374C44.771 4.9875 45.2312 4.9426 45.5159 5.21204C45.8179 5.496 45.762 5.89752 45.4002 6.2964C45.033 6.69924 44.5342 6.96208 44.2176 7.41378Z" fill="#FED44D"/>
<path d="M15.1602 44.277C15.1934 44.2466 15.2253 44.2149 15.2586 44.1846C15.2253 44.2149 15.1921 44.2453 15.1602 44.277Z" fill="#F7C94A"/>
<path d="M17.2601 16.7775C17.2548 17.5991 17.0845 18.3928 16.8504 19.1761C16.4181 20.3225 15.8155 21.3461 14.7579 22.0422C14.5318 22.136 14.3136 22.2614 14.0795 22.3143C13.7163 22.3961 13.3692 22.6775 12.9688 22.4371C15.0665 21.5641 15.8807 19.8114 16.2598 17.7443C16.4194 16.8753 16.3143 16.0062 16.3516 15.1384C16.3862 15.1292 16.4194 15.1186 16.454 15.1094C17.0446 15.2652 17.2442 15.6813 17.2295 16.2466C17.2242 16.4222 17.2495 16.5992 17.2601 16.7775Z" fill="#FDD0C5"/>
<path d="M12.9701 22.435C13.3705 22.6753 13.719 22.394 14.0808 22.3121C14.3163 22.2593 14.5344 22.1338 14.7592 22.04C14.7606 22.4587 14.7619 22.8761 14.7632 23.2948C14.1393 23.9393 13.5088 24.5759 12.9568 25.2852C12.8969 25.2865 12.8384 25.2892 12.7785 25.2905C12.6588 25.1373 12.5563 24.9656 12.4153 24.8348C11.8819 24.3382 11.4922 23.7029 10.8789 23.2855C11.0718 23.0002 10.9707 22.6793 10.9707 22.3782C10.9707 22.1034 11.0904 22.0493 11.29 22.1602C11.8207 22.4561 12.3927 22.4548 12.9701 22.435Z" fill="#FAC9BE"/>
<path d="M10.8784 23.2852C11.4917 23.7025 11.8815 24.3391 12.4149 24.8344C12.5559 24.9652 12.6583 25.1369 12.778 25.2901C12.1462 25.866 11.513 26.4418 10.8558 27.0415C10.5193 25.9043 10.1561 24.6786 9.79297 23.4542C10.1548 23.3987 10.5166 23.3419 10.8784 23.2852Z" fill="#A6D266"/>
<path d="M12.957 25.2863C13.5078 24.5771 14.1383 23.9391 14.7635 23.2959C15.1679 23.3487 15.5843 23.3355 15.966 23.5125C15.5856 24.7105 15.2051 25.9097 14.854 27.0179C14.2381 26.4565 13.5969 25.8714 12.957 25.2863Z" fill="#A6D266"/>
<path d="M12.2656 32.2029C12.2949 31.87 12.4665 31.6402 12.8456 31.6283C13.2181 31.6178 13.4522 31.8106 13.4575 32.1817C13.4628 32.541 13.246 32.792 12.8842 32.7933C12.5476 32.7959 12.2842 32.6229 12.2656 32.2029Z" fill="#A6D266"/>
<path d="M12.7852 29.8484C12.5045 29.8048 12.2797 29.6384 12.2717 29.2593C12.2624 28.8591 12.5324 28.69 12.8637 28.6782C13.2228 28.6663 13.4636 28.908 13.449 29.2646C13.4344 29.5961 13.2561 29.8563 12.7852 29.8484Z" fill="#A6D266"/>
</g>
<defs>
<clipPath id="clip0_4836_26475">
<rect width="50" height="50" fill="white"/>
</clipPath>
</defs>
</svg>
