<svg width="50" height="50" viewBox="0 0 50 50" fill="none" xmlns="http://www.w3.org/2000/svg">
<g clip-path="url(#clip0_4838_26698)">
<path d="M38.4341 49.9582C38.2461 49.9623 38.0581 49.9705 37.8701 49.9705C26.4276 49.9705 14.9851 49.9486 3.54394 49.9912C1.43854 49.9994 -0.0176803 48.4305 0.000162161 46.4302C0.0619244 39.4457 0.0234946 32.4599 0.0248671 25.474C0.0248671 23.3872 1.22306 22.1178 3.3065 21.9928C3.34356 21.9928 3.37925 21.9928 3.4163 21.9914C4.99055 21.9901 6.56481 21.9887 8.13769 21.9873C8.34219 21.9942 8.54669 22.0065 8.75119 22.0065C11.9807 22.0079 15.2102 22.0065 18.4396 22.0079C19.5445 22.0079 20.3652 22.5039 20.9184 23.4532C21.2107 23.9546 21.5127 24.4519 21.7817 24.9671C22.0575 25.4947 22.4597 25.72 23.0608 25.7172C25.9829 25.7007 28.9049 25.7076 31.827 25.7103C34.1671 25.7131 36.5085 25.7213 38.8486 25.7268C40.2019 26.0373 41.1297 26.8218 41.4523 28.1969C41.6156 28.8948 41.4811 29.623 41.5113 30.3374C41.234 30.3786 40.9486 30.2934 40.6754 30.3951C40.0592 30.4005 39.4443 30.4198 38.8281 30.406C38.5467 30.4005 38.3902 30.4967 38.2832 30.7577C38.1144 31.1685 37.9167 31.5683 37.7259 31.9694C37.435 32.5808 36.6623 32.883 36.0254 32.6509C35.497 32.4599 34.9343 32.0848 34.4402 32.1577C33.9379 32.2332 33.6139 32.8734 33.2118 33.2663C32.822 33.6469 32.2414 34.0054 32.1399 34.4615C32.0383 34.9163 32.4212 35.4837 32.6052 35.9961C32.8728 36.7407 32.5818 37.5568 31.8215 37.8027C30.6576 38.1777 30.0386 38.8207 30.3392 40.1024C30.3433 40.1189 30.3392 40.1368 30.3392 40.1533C30.3749 40.7138 30.1182 41.3952 30.4407 41.8018C30.755 42.1989 31.4097 42.3266 31.9175 42.5684C32.1166 42.6632 32.3142 42.7305 32.4281 42.9613C32.693 43.4999 32.8604 44.0192 32.5352 44.6031C32.3705 44.8984 32.3032 45.246 32.1618 45.5565C32.0534 45.7941 32.0809 45.9549 32.273 46.1417C32.914 46.7599 33.5426 47.3905 34.1602 48.0307C34.3606 48.2382 34.5445 48.2546 34.7984 48.1516C35.2403 47.9703 35.6933 47.815 36.1462 47.6598C36.5799 47.5114 37.4487 47.804 37.6326 48.1832C37.9195 48.7671 38.1693 49.3661 38.4341 49.9582ZM11.8722 39.9912C10.5574 39.9912 9.24117 39.9857 7.92632 39.9939C7.37183 39.998 7.03557 40.3992 7.11243 40.9281C7.1742 41.3567 7.53791 41.6301 8.09651 41.6329C9.37705 41.6397 10.659 41.6356 11.9395 41.6356C13.1693 41.6356 14.399 41.6452 15.6288 41.6315C16.2615 41.6232 16.584 41.2894 16.5621 40.7289C16.5415 40.2055 16.2725 39.9925 15.6123 39.9912C14.3674 39.9884 13.1198 39.9912 11.8722 39.9912Z" fill="#FED05B"/>
<path d="M38.851 25.7289C36.5109 25.7234 34.1694 25.7151 31.8293 25.7124C28.9073 25.7097 25.9852 25.7028 23.0632 25.7193C22.462 25.722 22.0599 25.4981 21.784 24.9692C21.515 24.454 21.2131 23.958 20.9207 23.4552C20.3676 22.5059 19.5469 22.01 18.442 22.01C15.2125 22.0086 11.983 22.01 8.75355 22.0086C8.54905 22.0086 8.34455 21.9962 8.14004 21.9894C8.14004 18.6057 8.13867 15.2206 8.13867 11.8369C10.2221 11.8369 12.3042 11.8369 14.3876 11.8355C15.0506 11.8355 15.1219 11.7627 15.1233 11.1005C15.1247 9.01505 15.1247 6.9296 15.1247 4.84415C21.4903 4.84415 27.8559 4.84277 34.2216 4.84277C34.2573 4.84277 34.2916 4.84277 34.3273 4.84415C35.9015 4.84415 37.4758 4.84415 39.05 4.84415C39.7664 4.84415 39.7678 4.84552 39.7678 5.54891C39.7692 12.2641 39.7692 18.978 39.7692 25.6932C39.4618 25.7042 39.1571 25.7165 38.851 25.7289ZM24.028 17.6811C22.4373 17.6811 20.8466 17.6811 19.2559 17.6811C17.7846 17.6811 16.3146 17.677 14.8433 17.6838C14.2669 17.6866 13.9182 17.9929 13.9059 18.4806C13.8949 18.9244 14.2998 19.2967 14.8268 19.3255C14.9298 19.331 15.0313 19.3269 15.1343 19.3269C21.0182 19.3269 26.9007 19.3269 32.7846 19.3242C32.9877 19.3242 33.2018 19.3269 33.3912 19.2678C34.028 19.0673 34.2024 18.3075 33.7261 17.8817C33.501 17.6797 33.232 17.6797 32.9548 17.6797C29.9792 17.6824 27.0036 17.6811 24.028 17.6811ZM29.1749 13.1887C27.8916 13.1887 26.6083 13.1873 25.3251 13.1901C24.9257 13.1914 24.577 13.3014 24.3876 13.6929C24.2367 14.0034 24.3012 14.2987 24.507 14.557C24.7308 14.8387 25.0602 14.884 25.3896 14.8854C27.9218 14.8895 30.4541 14.8881 32.9863 14.8867C33.0371 14.8867 33.0893 14.8867 33.14 14.8812C33.6547 14.8194 34.0088 14.4677 34.0033 14.0308C33.9979 13.5747 33.6067 13.1997 33.0742 13.1942C31.7758 13.1805 30.4747 13.1887 29.1749 13.1887ZM29.1365 23.7588C30.4019 23.7588 31.6687 23.7602 32.9342 23.7588C33.6067 23.7575 34.013 23.436 34.002 22.9222C33.991 22.4249 33.5957 22.1157 32.9561 22.1157C30.4239 22.1144 27.893 22.1144 25.3607 22.1157C24.6827 22.1157 24.3492 22.3878 24.3451 22.9263C24.341 23.4758 24.6704 23.7561 25.3402 23.7588C26.6042 23.7616 27.871 23.7588 29.1365 23.7588Z" fill="#E0EDEE"/>
<path d="M8.13624 11.8353C8.13624 15.219 8.13761 18.604 8.13761 21.9877C6.56336 21.9891 4.98911 21.9905 3.41623 21.9919C3.41485 14.7313 3.41348 7.47202 3.41211 0.211403C3.55759 -0.0729763 3.82386 0.0149479 4.05032 0.0149479C8.61936 0.0108264 13.1884 0.0122002 17.7574 0.0122002C23.0278 0.0122002 28.2982 0.0108264 33.5686 0.0163217C33.8184 0.0163217 34.1491 -0.104574 34.2246 0.311692C34.2233 1.82151 34.2205 3.33271 34.2191 4.84253C27.8535 4.84253 21.4879 4.84391 15.1222 4.84391C14.893 4.93046 14.7187 5.08707 14.5485 5.2588C12.5516 7.26182 10.5518 9.26347 8.55073 11.2624C8.38191 11.4327 8.22408 11.6072 8.13624 11.8353Z" fill="#C5DEE4"/>
<path d="M38.4333 49.9586C38.1684 49.3665 37.9186 48.7675 37.6345 48.1837C37.4506 47.8059 36.5804 47.5132 36.1481 47.6602C35.6951 47.8141 35.2422 47.9707 34.8003 48.1521C34.545 48.2565 34.3624 48.2386 34.1621 48.0312C33.5444 47.391 32.9145 46.7604 32.2749 46.1422C32.0814 45.9567 32.0553 45.7946 32.1637 45.5569C32.3051 45.2464 32.3723 44.8989 32.537 44.6035C32.8623 44.0196 32.6949 43.499 32.43 42.9618C32.3161 42.7324 32.1184 42.6637 31.9194 42.5689C31.413 42.3271 30.7569 42.1993 30.4426 41.8023C30.1201 41.3943 30.3781 40.7129 30.341 40.1537C30.3397 40.1372 30.3438 40.1194 30.341 40.1029C30.0405 38.8225 30.6595 38.1782 31.8233 37.8031C32.5837 37.5586 32.8747 36.7425 32.607 35.9966C32.4231 35.4841 32.0416 34.9167 32.1417 34.462C32.2433 34.0059 32.8225 33.6473 33.2137 33.2668C33.6158 32.8739 33.9397 32.2323 34.442 32.1581C34.9348 32.0839 35.4989 32.459 36.0273 32.6513C36.6655 32.8821 37.4368 32.5812 37.7278 31.9699C37.9186 31.5687 38.1162 31.169 38.285 30.7582C38.3921 30.4972 38.5486 30.401 38.8299 30.4065C39.4448 30.4202 40.061 30.401 40.6773 30.3955C40.7844 31.081 41.2359 31.621 41.4624 32.257C41.4939 32.3463 41.6394 32.4081 41.7451 32.4562C42.0827 32.6115 42.4272 32.7516 42.7676 32.9013C43.119 33.0566 43.4539 33.0442 43.7682 32.8079C44.2101 32.6623 44.6507 32.5167 45.0926 32.3724C45.2024 32.8052 45.5867 33.0154 45.8681 33.3011C47.0457 34.5018 47.0498 34.495 46.413 36.0597C46.3388 36.2425 46.2181 36.4197 46.3059 36.6422C46.5269 37.2041 46.7547 37.7413 47.4217 37.9323C47.747 38.0257 48.0435 38.2139 48.3605 38.3375C48.6213 38.4392 48.7174 38.6027 48.7064 38.8857C48.6858 39.4503 48.6433 40.0232 48.7133 40.5796C48.8313 41.522 48.5952 42.1732 47.5741 42.3711C47.3957 42.4054 47.2406 42.5428 47.0663 42.6128C46.8165 42.7159 46.6724 42.8835 46.5529 43.1363C46.3086 43.6556 46.2935 44.1392 46.5488 44.6585C46.7053 44.9786 46.789 45.333 46.9112 45.671C46.9757 45.8482 46.9647 46.0075 46.822 46.1422C46.203 46.7302 45.6553 47.3923 44.9814 47.924C44.5491 47.8979 44.1977 47.5819 43.7585 47.5833C43.587 47.3553 43.3427 47.2879 43.086 47.3429C41.6696 47.6438 40.9504 48.5944 40.6924 49.9628C39.9389 49.9614 39.1868 49.96 38.4333 49.9586ZM40.1654 36.2988C38.0119 36.215 36.3182 38.1507 36.262 40.0328C36.1947 42.3079 37.9707 44.0787 40.1324 44.0815C42.338 44.0842 44.0303 42.4054 44.044 40.2197C44.0591 38.0353 42.3888 36.2782 40.1654 36.2988Z" fill="#A5C5E2"/>
<path d="M44.9805 47.9237C45.6544 47.392 46.202 46.7298 46.821 46.1418C46.9624 46.0072 46.9733 45.8492 46.9102 45.6706C46.788 45.334 46.7043 44.9782 46.5479 44.6581C46.2926 44.1388 46.309 43.6566 46.552 43.1359C46.67 42.8831 46.8155 42.7142 47.0653 42.6125C47.2396 42.5411 47.3947 42.4051 47.5731 42.3707C48.5929 42.1729 48.8303 41.5217 48.7123 40.5793C48.6423 40.0229 48.6848 39.45 48.7054 38.8853C48.7164 38.6023 48.6203 38.4389 48.3596 38.3372C48.0425 38.2122 47.746 38.024 47.4208 37.9319C46.7537 37.741 46.5259 37.2052 46.3049 36.6419C46.2171 36.4193 46.3379 36.2407 46.412 36.0594C47.0502 34.4946 47.0447 34.5029 45.8671 33.3008C45.5857 33.015 45.2014 32.8048 45.0916 32.3721C45.8534 31.9874 45.8534 31.9874 46.4353 32.5699C46.9678 33.103 47.4921 33.6442 48.037 34.1635C48.225 34.3435 48.2717 34.5042 48.1743 34.7433C48.0192 35.1225 47.8915 35.5126 47.7488 35.8973C47.4372 36.7408 47.6788 37.5225 48.5133 37.789C49.695 38.1668 50.1699 38.8441 49.9434 40.0723C49.8583 40.5367 49.916 41.0299 49.9352 41.508C49.9462 41.7855 49.8665 41.9503 49.5934 42.0506C49.2585 42.1743 48.9387 42.3419 48.6148 42.4957C47.6431 42.956 47.3288 43.6168 47.8106 44.5784C48.2978 45.5497 48.2264 46.271 47.3068 46.9029C46.9733 47.131 46.7194 47.4744 46.4284 47.7643C45.804 48.3935 45.804 48.3935 44.9805 47.9237Z" fill="#90B9D7"/>
<path d="M38.8516 25.7285C39.1576 25.7161 39.4623 25.7038 39.7684 25.6914C41.4895 25.7972 42.5765 26.6119 42.9883 28.0915C43.0775 28.4102 43.0679 28.733 43.0706 29.0559C43.0775 30.1989 43.072 31.3419 43.0706 32.4849C42.8277 32.452 42.6904 32.3063 42.5957 32.0851C42.4091 31.651 42.1908 31.2293 42.011 30.7924C41.9122 30.552 41.7571 30.4036 41.5142 30.3376C41.484 29.6233 41.6199 28.8965 41.4552 28.1972C41.1326 26.8234 40.2048 26.039 38.8516 25.7285Z" fill="#EEBA45"/>
<path d="M40.6914 49.9611C40.9494 48.5927 41.6686 47.6434 43.085 47.3412C43.3417 47.2862 43.586 47.3549 43.7576 47.5816C42.8147 47.7561 42.4551 48.5089 42.1847 49.2769C41.9747 49.8759 41.6371 50.0765 41.0496 49.9734C40.933 49.9528 40.8108 49.9652 40.6914 49.9611Z" fill="#90B9D7"/>
<path d="M41.515 30.3379C41.7593 30.4038 41.913 30.5522 42.0118 30.7926C42.193 31.2295 42.4098 31.6513 42.5965 32.0854C42.6912 32.3066 42.8284 32.4522 43.0714 32.4852C43.3033 32.5923 43.5366 32.6995 43.7686 32.808C43.4543 33.0443 43.1208 33.0567 42.768 32.9014C42.4277 32.7517 42.0832 32.6116 41.7455 32.4563C41.6412 32.4082 41.4957 32.3464 41.4628 32.2571C41.2363 31.621 40.7848 31.0811 40.6777 30.3956C40.9522 30.2939 41.2377 30.3791 41.515 30.3379Z" fill="#90B9D7"/>
<path d="M3.41218 0.210938C3.41355 7.47155 3.41492 14.7308 3.4163 21.9914C3.37924 21.9914 3.34355 21.9914 3.3065 21.9928C3.30787 14.9437 3.30787 7.89606 3.31473 0.847014C3.31473 0.634073 3.22964 0.39915 3.41218 0.210938Z" fill="#CDDDD3"/>
<path d="M34.2188 4.84237C34.2201 3.33254 34.2229 1.82135 34.2242 0.311523C34.3834 0.466765 34.3189 0.665968 34.3189 0.845937C34.3244 2.17854 34.3231 3.51114 34.3244 4.84237C34.2901 4.84237 34.2544 4.84237 34.2188 4.84237Z" fill="#E2E2C9"/>
<path d="M11.8728 39.992C13.1204 39.992 14.3667 39.9893 15.6143 39.992C16.2731 39.9934 16.5421 40.2063 16.564 40.7298C16.5874 41.2903 16.2635 41.6241 15.6307 41.6324C14.401 41.6475 13.1712 41.6365 11.9415 41.6365C10.6609 41.6365 9.37902 41.642 8.09848 41.6337C7.53988 41.631 7.17616 41.3576 7.1144 40.929C7.03754 40.3987 7.3738 39.9975 7.92829 39.9948C9.24314 39.9865 10.558 39.992 11.8728 39.992Z" fill="#EEE1C2"/>
<path d="M24.0292 17.6811C27.0048 17.6811 29.9803 17.6824 32.9573 17.6797C33.2345 17.6797 33.5035 17.6797 33.7286 17.8816C34.2049 18.3075 34.0306 19.0686 33.3937 19.2678C33.2043 19.3269 32.9902 19.3241 32.7871 19.3241C26.9032 19.3269 21.0207 19.3269 15.1368 19.3269C15.0339 19.3269 14.9309 19.331 14.8294 19.3255C14.3023 19.2967 13.8974 18.9244 13.9084 18.4806C13.9208 17.9929 14.2694 17.6852 14.8458 17.6838C16.3172 17.6783 17.7871 17.6811 19.2584 17.6811C20.8478 17.6811 22.4385 17.6811 24.0292 17.6811Z" fill="#928392"/>
<path d="M8.13672 11.8355C8.22456 11.6074 8.38102 11.4316 8.55121 11.2612C10.5523 9.26234 12.552 7.26069 14.549 5.25767C14.7192 5.08731 14.8935 4.92932 15.1227 4.84277C15.1227 6.92822 15.1227 9.01368 15.1213 11.0991C15.1213 11.7613 15.0486 11.8341 14.3857 11.8341C12.3036 11.8355 10.2202 11.8355 8.13672 11.8355Z" fill="#B5D7DC"/>
<path d="M29.1754 13.1882C30.4751 13.1882 31.7763 13.18 33.076 13.1924C33.6085 13.1979 33.9997 13.5729 34.0052 14.029C34.0107 14.4673 33.6552 14.8176 33.1419 14.8794C33.0911 14.8849 33.039 14.8849 32.9882 14.8849C30.4559 14.8849 27.9237 14.8876 25.3914 14.8835C25.062 14.8835 24.7326 14.8368 24.5089 14.5552C24.303 14.2969 24.2385 14.0015 24.3895 13.6911C24.5789 13.3009 24.9275 13.1896 25.3269 13.1882C26.6088 13.1869 27.8921 13.1882 29.1754 13.1882Z" fill="#928493"/>
<path d="M29.1365 23.7583C27.8711 23.7583 26.6043 23.7611 25.3388 23.757C24.6691 23.7556 24.3397 23.474 24.3438 22.9244C24.3479 22.3859 24.6814 22.1139 25.3594 22.1139C27.8917 22.1111 30.4226 22.1125 32.9548 22.1139C33.5958 22.1139 33.9897 22.423 34.0007 22.9203C34.013 23.4341 33.6054 23.757 32.9329 23.757C31.6688 23.7597 30.402 23.7583 29.1365 23.7583Z" fill="#918291"/>
<path d="M40.1656 36.2984C42.3905 36.2778 44.0594 38.0349 44.0457 40.2193C44.0306 42.4051 42.3397 44.0839 40.1341 44.0811C37.9724 44.0784 36.195 42.3075 36.2636 40.0325C36.3185 38.1503 38.0108 36.216 40.1656 36.2984ZM40.1354 37.9415C38.8755 37.9429 37.9106 38.9197 37.9148 40.1918C37.9189 41.42 38.9469 42.4531 40.167 42.4559C41.3158 42.4586 42.4028 41.3816 42.4234 40.2207C42.4467 38.9939 41.3885 37.9402 40.1354 37.9415Z" fill="#84B2CE"/>
<path d="M40.1367 37.9414C41.3898 37.94 42.448 38.9937 42.4247 40.2206C42.4041 41.3814 41.3157 42.4571 40.1683 42.4558C38.9468 42.453 37.9188 41.4199 37.916 40.1917C37.9119 38.9196 38.8768 37.9428 40.1367 37.9414Z" fill="#DFECEE"/>
</g>
<defs>
<clipPath id="clip0_4838_26698">
<rect width="50" height="50" fill="white"/>
</clipPath>
</defs>
</svg>
