<svg width="50" height="50" viewBox="0 0 50 50" fill="none" xmlns="http://www.w3.org/2000/svg">
<g clip-path="url(#clip0_4836_26576)">
<path d="M50.0001 35.7228C49.7835 36.2862 49.5656 36.8457 48.9953 37.1596C48.6351 37.3579 48.2684 37.4997 47.8443 37.4984C45.9272 37.4879 44.0102 37.4918 42.0931 37.4905C43.3772 36.868 43.7544 35.795 43.6656 34.4357C43.6069 33.5269 43.6552 32.6102 43.6552 31.6975C43.864 31.6949 44.0741 31.7041 44.2829 31.6896C44.6888 31.662 44.9445 31.4361 45.0111 31.0369C45.075 30.6587 44.9145 30.3894 44.5557 30.2213C44.2594 30.0821 43.954 30.1465 43.6539 30.1215C43.6552 29.4688 43.6552 28.8148 43.6565 28.162C43.8823 28.1594 44.1093 28.1725 44.3325 28.1502C44.7527 28.1082 45.0333 27.7733 45.0202 27.3557C45.0085 26.9853 44.6953 26.6938 44.2855 26.6793C44.0767 26.6714 43.8666 26.6727 43.6578 26.6701C43.6565 25.1716 43.6565 23.6731 43.6552 22.1733C43.9801 22.1694 44.3051 22.1641 44.6287 22.1628C45.631 22.1602 46.0903 21.6913 46.0916 20.6617C46.093 19.4692 46.0916 18.2754 46.0916 17.0829C46.0916 14.2068 46.0943 11.3293 46.0903 8.45312C46.089 7.52461 45.5984 7.03737 44.6757 7.02817C44.3351 7.02555 43.9932 7.02423 43.6526 7.02161C43.6526 6.61579 43.6304 6.20735 43.6565 5.80285C43.7413 4.53681 43.282 3.60042 42.0879 3.08691C43.9514 3.08691 45.815 3.08691 47.6798 3.08691C48.8635 3.08691 49.456 3.49404 49.901 4.60379C49.9245 4.66158 49.9662 4.71149 49.9988 4.76402C50.0001 15.084 50.0001 25.4028 50.0001 35.7228Z" fill="#BBD5F8"/>
<path d="M42.0904 3.08791C43.2832 3.60142 43.7426 4.53781 43.659 5.80385C43.6316 6.20835 43.6551 6.61548 43.6551 7.02261V7.03443C37.964 7.0318 32.2729 7.02917 26.5817 7.03049C25.8261 7.03049 25.3054 7.54793 25.3041 8.33855C25.295 12.5438 25.295 16.7503 25.3041 20.9556C25.3054 21.6464 25.8666 22.1599 26.5648 22.1612C27.3621 22.1638 28.1582 22.1625 28.9555 22.1625C33.4591 22.1612 37.9627 22.1586 42.4663 22.1572C42.863 22.1586 43.2597 22.1599 43.6564 22.1612L43.6577 22.1743C43.659 23.6728 43.659 25.1713 43.6603 26.6711C43.2727 26.6751 42.8865 26.6751 42.4989 26.6816C42.046 26.6882 41.7107 26.9994 41.7067 27.4118C41.7015 27.8255 42.0291 28.1394 42.4976 28.1552C42.8839 28.1683 43.2714 28.1617 43.659 28.1644C43.6577 28.8171 43.6577 29.4711 43.6564 30.1238C43.2675 30.1251 42.8773 30.1054 42.491 30.133C42.0617 30.1632 41.6885 30.5927 41.708 30.9867C41.7276 31.3977 42.0565 31.6827 42.5419 31.6945C42.9139 31.7037 43.2871 31.6985 43.659 31.6998C43.659 32.6126 43.6094 33.5292 43.6695 34.4381C43.7582 35.7973 43.3811 36.8703 42.0969 37.4928C35.2274 37.4928 28.3578 37.4915 21.4883 37.4915C21.4896 36.2977 21.4909 35.1039 21.4909 33.9101C21.4922 23.6387 21.4935 13.3672 21.4948 3.09448C28.0329 3.09448 34.571 3.08923 41.1077 3.10761C41.4327 3.10499 41.7602 2.88041 42.0904 3.08791ZM28.0146 31.6919C28.29 31.6919 28.5666 31.6972 28.842 31.6906C29.3209 31.6801 29.6694 31.3597 29.6837 30.9249C29.6955 30.5743 29.2987 30.1475 28.8916 30.1291C28.3252 30.1054 27.7562 30.1028 27.1899 30.1291C26.6757 30.1514 26.3664 30.4732 26.3703 30.9157C26.3742 31.3938 26.6926 31.6814 27.2368 31.6919C27.4952 31.6972 27.7549 31.6919 28.0146 31.6919ZM38.1924 31.6919C38.1924 31.6906 38.1924 31.6906 38.1924 31.6893C38.516 31.6893 38.8423 31.709 39.1633 31.684C39.5443 31.6538 39.9528 31.252 39.928 30.9197C39.898 30.4968 39.6239 30.1855 39.2324 30.1488C38.5904 30.0897 37.9366 30.0989 37.2932 30.154C36.7986 30.1961 36.5585 30.5638 36.625 31.0523C36.6864 31.4989 37.0048 31.667 37.4133 31.6893C37.6743 31.7037 37.934 31.6919 38.1924 31.6919ZM33.1133 31.6919C33.3899 31.6919 33.6666 31.6985 33.9433 31.6906C34.4326 31.6762 34.7367 31.4043 34.7667 30.9683C34.798 30.5047 34.5227 30.1672 34.0072 30.1356C33.4239 30.1002 32.8366 30.1081 32.252 30.1304C31.8435 30.1461 31.4442 30.5743 31.4546 30.9249C31.4664 31.2809 31.8722 31.6657 32.2846 31.6893C32.56 31.7037 32.8366 31.6919 33.1133 31.6919ZM28.0564 26.679C27.7484 26.679 27.4404 26.6737 27.1324 26.6803C26.7096 26.6882 26.3912 26.9653 26.369 27.333C26.3442 27.7717 26.6404 28.1328 27.0894 28.1486C27.721 28.1709 28.3539 28.1722 28.9842 28.1473C29.4084 28.1315 29.6994 27.7704 29.6824 27.354C29.6681 26.9968 29.3288 26.6882 28.9307 26.6803C28.6397 26.6737 28.3474 26.679 28.0564 26.679ZM33.1968 26.679C32.8732 26.679 32.5495 26.6685 32.2259 26.6816C31.7743 26.7 31.4637 27.0021 31.4611 27.4053C31.4585 27.7782 31.807 28.142 32.2141 28.1512C32.8288 28.1657 33.4447 28.163 34.0594 28.1525C34.4861 28.1447 34.7745 27.8242 34.768 27.4C34.7615 27.0047 34.4731 26.6987 34.0712 26.6829C33.7801 26.6698 33.4878 26.679 33.1968 26.679ZM38.2511 28.1552C38.5591 28.1552 38.867 28.1657 39.1737 28.1525C39.5822 28.1355 39.9306 27.7835 39.9293 27.4092C39.9293 27.0073 39.6174 26.6948 39.1672 26.6829C38.5525 26.6685 37.9366 26.6698 37.3219 26.6829C36.9187 26.6908 36.6303 27.0008 36.6224 27.3961C36.6146 27.8229 36.9004 28.1381 37.3284 28.1525C37.6351 28.1644 37.9431 28.1552 38.2511 28.1552Z" fill="#C8DFFC"/>
<path d="M21.4893 3.091C21.488 13.3624 21.4867 23.6339 21.4853 33.9066C21.4853 35.1004 21.484 36.2942 21.4827 37.488C20.0864 37.4894 18.6887 37.492 17.2924 37.4933C17.2937 35.5653 17.2963 33.6361 17.2937 31.7081C17.2924 30.3226 16.4206 29.553 15.0725 29.7408C14.5936 29.8078 14.3691 29.662 14.3678 29.2036C14.3626 27.0144 14.3783 24.8251 14.3861 22.6358C15.9391 22.5451 17.1632 21.3132 17.1788 19.7859C17.1971 18.1166 17.1997 16.4461 17.1775 14.7769C17.1566 13.2337 15.8451 11.9493 14.3196 11.9414C13.1973 11.9349 12.0749 11.9388 10.9526 11.9401C9.25614 11.9441 8.01116 13.2009 8.00855 14.92C8.00594 16.4422 8.049 17.9656 7.9968 19.4864C7.93808 21.1504 9.07865 22.4887 10.7425 22.6436C10.7451 24.1947 10.7465 25.7457 10.7491 27.2967C10.6877 27.2022 10.6238 27.1089 10.5664 27.0117C10.1161 26.2408 9.31225 25.8928 8.48749 26.1134C7.76973 26.3038 7.22555 27.0643 7.21772 27.8916C7.2138 28.304 7.21641 28.7164 7.21641 29.1288C6.93192 28.631 6.62655 28.1963 6.09672 27.9875C5.22758 27.6434 4.51635 27.9297 3.90039 28.568C3.9017 20.7905 3.89909 13.0118 3.9017 5.23433C3.9017 4.03396 4.77344 3.08969 5.91793 3.08837C11.1079 3.08049 16.2993 3.08837 21.4893 3.091Z" fill="#9BC3F8"/>
<path d="M3.90367 28.5671C4.51963 27.9288 5.23217 27.6425 6.1 27.9866C6.62983 28.1955 6.93389 28.6302 7.21969 29.1279C7.21969 28.7155 7.21708 28.3031 7.221 27.8908C7.22883 27.0634 7.77301 26.3043 8.49077 26.1125C9.31553 25.8932 10.1181 26.2412 10.5696 27.0108C10.6271 27.108 10.691 27.2013 10.7523 27.2945C10.751 30.629 10.7484 33.9635 10.7458 37.298C10.7458 37.5095 10.7223 37.7157 10.6897 37.9271C10.4652 39.3875 9.79838 40.626 8.90054 41.7738C8.4986 42.2886 8.00008 42.7693 7.91134 43.4785C6.02561 43.4838 4.13988 43.489 2.25414 43.4943C1.71779 42.1836 1.18926 40.8689 0.63985 39.5648C0.256178 38.6547 0.00953216 37.717 0.00561714 36.7254C-0.000907887 34.762 0.00300713 32.7999 0.00431214 30.8365C0.00561714 29.7977 0.602005 29.0228 1.61469 28.8889C2.27241 28.8009 2.92622 29.0517 3.35687 29.7977C3.43517 29.933 3.49651 30.0774 3.59569 30.2153C3.55001 29.6322 3.64528 29.0833 3.90367 28.5671Z" fill="#F9EEDA"/>
<path d="M7.9082 43.48C7.99694 42.7708 8.49546 42.2902 8.8974 41.7753C9.79394 40.6275 10.4621 39.3904 10.6866 37.9286C10.7192 37.7172 10.7427 37.5097 10.7427 37.2996C10.7466 33.9651 10.7479 30.6306 10.7492 27.296C10.7466 25.745 10.7453 24.194 10.7427 22.643C10.7505 21.4978 10.744 20.3526 10.7688 19.2073C10.7936 18.0713 11.5988 17.2426 12.6167 17.2702C13.6059 17.2978 14.3562 18.1462 14.3641 19.2467C14.3719 20.3749 14.3784 21.5043 14.3849 22.6338C14.3771 24.8231 14.3628 27.0124 14.3667 29.2017C14.368 29.66 14.5924 29.8045 15.0714 29.7388C16.4208 29.551 17.2912 30.3206 17.2925 31.7062C17.2938 33.6341 17.2912 35.5634 17.2912 37.4913C17.1529 39.0909 16.4677 40.4568 15.4916 41.6887C15.0348 42.2665 14.6394 42.8759 14.3119 43.5339C12.4744 43.4735 10.637 43.4945 8.79822 43.5221C8.50329 43.5076 8.20574 43.4945 7.9082 43.48Z" fill="#F5E1BE"/>
<path d="M7.90903 43.4805C8.20657 43.4949 8.50281 43.5094 8.80035 43.5225C8.79774 44.0912 8.75729 44.6625 8.80035 45.2272C8.85516 45.9364 8.72205 46.5392 8.11131 46.966C6.76585 46.9752 5.42039 46.9857 4.07493 46.9936C3.53857 46.9962 3.00221 47.0054 2.46716 46.991C1.65805 46.9686 1.20783 46.505 1.19217 45.6973C1.18695 45.4518 1.19086 45.2075 1.19086 44.9619C1.19347 44.0859 1.42576 43.7655 2.25314 43.4962C4.13757 43.491 6.0233 43.4857 7.90903 43.4805Z" fill="#E08286"/>
<path d="M8.11133 46.9658C8.72338 46.539 8.85518 45.9362 8.80037 45.227C8.75731 44.6623 8.79776 44.091 8.80037 43.5223C10.6378 43.4947 12.4766 43.4737 14.314 43.5341C14.9548 43.7561 15.221 44.2275 15.2027 44.8895C15.1936 45.2152 15.2171 45.5435 15.1832 45.8679C15.1088 46.5889 14.7186 46.9487 13.9956 46.954C12.3748 46.9645 10.7527 46.9566 9.13184 46.9579C8.79254 46.9579 8.45193 46.9632 8.11133 46.9658Z" fill="#DA636E"/>
<path d="M43.6523 7.02148C43.993 7.0228 44.3349 7.02411 44.6755 7.02805C45.5981 7.03724 46.0888 7.52448 46.0901 8.453C46.094 11.3292 46.0914 14.2066 46.0914 17.0828C46.0914 18.2753 46.0927 19.4691 46.0914 20.6616C46.0901 21.6912 45.6307 22.1614 44.6285 22.1627C44.3035 22.164 43.9786 22.1693 43.655 22.1732L43.6537 22.1601C43.6537 17.1183 43.6537 12.0764 43.6537 7.0333L43.6523 7.02148Z" fill="#EBE9ED"/>
<path d="M43.6548 31.6968C43.2828 31.6955 42.9096 31.6994 42.5377 31.6916C42.0522 31.6797 41.7233 31.3961 41.7038 30.9837C41.6855 30.5897 42.0574 30.1615 42.4868 30.13C42.8731 30.1024 43.2633 30.1221 43.6521 30.1208C43.9536 30.1458 44.2577 30.0814 44.5539 30.2206C44.9128 30.3887 45.072 30.658 45.0094 31.0362C44.9428 31.4341 44.687 31.66 44.2812 31.6889C44.0737 31.7021 43.8636 31.6942 43.6548 31.6968Z" fill="#F4F2F6"/>
<path d="M43.6555 28.1622C43.2679 28.1596 42.8816 28.1661 42.494 28.153C42.0255 28.1372 41.698 27.822 41.7032 27.4097C41.7071 26.9973 42.0425 26.6873 42.4953 26.6795C42.8816 26.6729 43.2692 26.6729 43.6568 26.6689C43.8656 26.6716 44.0757 26.6703 44.2845 26.6781C44.6943 26.6939 45.0075 26.9841 45.0192 27.3545C45.0323 27.7721 44.7517 28.107 44.3315 28.1491C44.1083 28.1727 43.8812 28.1596 43.6555 28.1622Z" fill="#F6F3F6"/>
<path d="M43.6529 7.03357C43.6529 12.0754 43.6529 17.1172 43.6529 22.1603C43.2562 22.159 42.8595 22.1577 42.4628 22.1564C41.7255 19.6059 40.0824 17.9525 37.5742 17.1527C37.6995 17.0279 37.8235 16.9018 37.9514 16.7797C39.1063 15.6831 39.3138 13.9088 38.4421 12.5692C37.569 11.2283 35.866 10.7056 34.4148 11.336C32.918 11.9861 32.131 13.5752 32.4951 15.1512C32.6896 15.993 33.2155 16.5906 33.8132 17.1514C33.7062 17.1868 33.5966 17.2183 33.4909 17.2577C31.1627 18.1271 29.5863 19.7031 28.9507 22.1603C28.1534 22.1603 27.3573 22.1617 26.56 22.159C25.8618 22.1564 25.3006 21.6442 25.2993 20.9534C25.2915 16.7482 25.2902 12.5416 25.2993 8.33638C25.3006 7.54577 25.8213 7.02832 26.5769 7.02832C32.2707 7.02832 37.9618 7.03226 43.6529 7.03357Z" fill="#F6F3F6"/>
<path d="M28.9512 22.1623C29.5867 19.7051 31.1632 18.1291 33.4913 17.2597C33.597 17.2203 33.7066 17.1888 33.8136 17.1533C34.0159 17.2492 34.213 17.3595 34.4218 17.4409C35.518 17.8691 36.5659 17.7194 37.5746 17.1533C40.0816 17.9531 41.7246 19.6066 42.4632 22.1571C37.9583 22.1584 33.4547 22.1597 28.9512 22.1623Z" fill="#89808C"/>
<path d="M28.0135 31.6918C27.7538 31.6918 27.4941 31.6957 27.2357 31.6904C26.6915 31.6799 26.3744 31.3936 26.3692 30.9143C26.3653 30.4717 26.6745 30.1512 27.1887 30.1276C27.7551 30.1026 28.3241 30.104 28.8904 30.1276C29.2976 30.1447 29.6943 30.5715 29.6826 30.9235C29.6682 31.3582 29.3198 31.6786 28.8409 31.6891C28.5642 31.697 28.2888 31.6918 28.0135 31.6918Z" fill="#F5F2F6"/>
<path d="M38.1905 31.6915C37.9308 31.6915 37.6711 31.7033 37.4127 31.6889C37.0043 31.6665 36.6859 31.4984 36.6245 31.0519C36.5567 30.5633 36.7981 30.1956 37.2927 30.1536C37.9361 30.0984 38.5899 30.0879 39.2319 30.1483C39.6221 30.1851 39.8962 30.4951 39.9275 30.9193C39.951 31.2515 39.5438 31.6547 39.1628 31.6836C38.8404 31.7086 38.5155 31.6889 38.1918 31.6889C38.1905 31.6902 38.1905 31.6915 38.1905 31.6915Z" fill="#F5F2F6"/>
<path d="M33.112 31.6923C32.8354 31.6923 32.5587 31.7041 32.2834 31.6883C31.871 31.6647 31.4651 31.2799 31.4534 30.924C31.4416 30.5733 31.8423 30.1452 32.2507 30.1294C32.8354 30.1071 33.4226 30.0992 34.006 30.1347C34.5214 30.1662 34.7968 30.505 34.7655 30.9673C34.7355 31.4046 34.4314 31.6752 33.942 31.6896C33.6654 31.6988 33.3887 31.6923 33.112 31.6923Z" fill="#F5F2F6"/>
<path d="M28.056 26.6787C28.347 26.6787 28.6393 26.6735 28.9304 26.6801C29.3284 26.6879 29.6677 26.9966 29.682 27.3538C29.699 27.7701 29.4093 28.13 28.9839 28.147C28.3535 28.172 27.7206 28.1707 27.089 28.1483C26.6401 28.1326 26.3438 27.7701 26.3686 27.3328C26.3895 26.965 26.7092 26.6893 27.1321 26.6801C27.44 26.6735 27.748 26.6787 28.056 26.6787Z" fill="#F6F3F6"/>
<path d="M33.1966 26.6791C33.4876 26.6791 33.7799 26.6699 34.071 26.6817C34.4729 26.6975 34.7613 27.0035 34.7678 27.3988C34.7744 27.823 34.486 28.1435 34.0592 28.1513C33.4446 28.1632 32.8286 28.1645 32.2139 28.15C31.8081 28.1408 31.4583 27.7784 31.461 27.4041C31.4636 27.0009 31.7742 26.6988 32.2257 26.6804C32.5493 26.6686 32.873 26.6791 33.1966 26.6791Z" fill="#F6F3F6"/>
<path d="M38.2499 28.155C37.9419 28.155 37.6339 28.1641 37.3273 28.1523C36.9005 28.1366 36.6134 27.8227 36.6213 27.3959C36.6291 27.0005 36.9175 26.6906 37.3207 26.6827C37.9354 26.6709 38.5514 26.6683 39.166 26.6827C39.6162 26.6932 39.9281 27.0058 39.9281 27.409C39.9281 27.7833 39.5797 28.1353 39.1725 28.1523C38.8646 28.1641 38.5566 28.155 38.2499 28.155Z" fill="#F6F3F6"/>
<path d="M14.3863 22.6356C14.3797 21.5062 14.3732 20.378 14.3654 19.2486C14.3576 18.148 13.6072 17.2996 12.618 17.272C11.6001 17.2445 10.7936 18.0718 10.7701 19.2092C10.7453 20.3544 10.7518 21.4996 10.744 22.6448C9.08011 22.4885 7.93954 21.1516 7.99826 19.4876C8.05177 17.9668 8.0074 16.4433 8.01001 14.9212C8.01392 13.2021 9.25759 11.9439 10.9541 11.9413C12.0764 11.9387 13.1987 11.936 14.321 11.9426C15.8479 11.9505 17.1594 13.2349 17.179 14.778C17.2012 16.4473 17.1972 18.1178 17.1803 19.787C17.1633 21.3118 15.9392 22.5437 14.3863 22.6356Z" fill="#5884C8"/>
<path d="M37.5736 17.1518C36.5649 17.7179 35.5169 17.8676 34.4207 17.4394C34.2119 17.358 34.0149 17.249 33.8126 17.1518C33.2149 16.591 32.689 15.9935 32.4945 15.1517C32.1305 13.5757 32.9161 11.9853 34.4142 11.3365C35.8654 10.7074 37.5684 11.2288 38.4415 12.5697C39.3132 13.9093 39.1057 15.6835 37.9508 16.7802C37.8229 16.901 37.7002 17.0284 37.5736 17.1518Z" fill="#756E78"/>
</g>
<defs>
<clipPath id="clip0_4836_26576">
<rect width="50" height="50" fill="white"/>
</clipPath>
</defs>
</svg>
