<svg width="50" height="50" viewBox="0 0 50 50" fill="none" xmlns="http://www.w3.org/2000/svg">
<g clip-path="url(#clip0_4839_26718)">
<path d="M14.304 39.3973C10.3188 40.5351 6.33648 41.676 2.34972 42.8079C1.12566 43.1553 0.0178939 42.2934 0.0178939 41.0109C0.0178939 31.5277 0.0268395 22.0461 2.63191e-06 12.563C-0.0014883 11.7905 0.630668 10.9569 1.37614 10.7451C2.71052 10.3648 4.0464 9.99202 5.38079 9.61621C5.62977 10.8003 5.99804 11.9411 6.52583 13.0328C8.19418 16.4851 10.4544 19.5408 12.8548 22.5025C13.2291 22.9633 13.7092 23.2019 14.2936 23.2451C14.2981 28.6287 14.3011 34.0122 14.304 39.3973Z" fill="#E5E6E7"/>
<path d="M14.3039 39.3971C14.3009 34.0135 14.2979 28.6285 14.2949 23.2449C14.9524 23.2121 15.4429 22.8885 15.8455 22.3859C17.2589 20.6217 18.644 18.8352 19.8576 16.9263C21.3515 14.5775 22.7843 12.196 23.239 9.37891C24.6316 9.57874 25.963 10.0366 27.3331 10.3363C27.7476 10.4273 28.1591 10.5302 28.5721 10.6271C28.5751 16.2791 28.5781 21.9311 28.5811 27.5831C28.429 27.7442 28.2784 27.9067 28.1248 28.0663C25.3547 30.94 24.3871 34.3282 25.2414 38.2294C25.5932 39.8341 26.3924 41.2254 27.3481 42.5378C26.0912 42.4006 24.8985 41.986 23.6789 41.6937C20.5479 40.9421 17.4274 40.1636 14.3039 39.3971Z" fill="#D0D2D3"/>
<path d="M23.2394 9.37737C22.7847 12.1944 21.3534 14.576 19.858 16.9248C18.6428 18.8336 17.2593 20.6202 15.8458 22.3844C15.4433 22.887 14.9528 23.2106 14.2953 23.2434C13.7108 23.2001 13.2293 22.9615 12.8565 22.5007C10.4561 19.5375 8.19436 16.4834 6.5275 13.031C5.99971 11.9394 5.63145 10.7971 5.38246 9.61448C5.26468 7.15087 5.92218 4.93183 7.58904 3.08711C9.98945 0.428134 12.9982 -0.562084 16.4631 0.307339C19.9265 1.17825 22.0854 3.48528 22.9934 6.94358C23.2021 7.73993 23.2245 8.56014 23.2394 9.37737ZM11.956 7.71756C11.0078 9.49966 12.2706 11.5979 14.2953 11.6039C15.3345 11.6188 16.1008 11.1281 16.6092 10.2632C17.1236 9.3893 17.1251 8.48259 16.5839 7.59975C16.059 6.67515 15.2405 6.23969 14.2028 6.27698C13.1935 6.31575 12.4092 6.77507 11.956 7.71756Z" fill="#FE6666"/>
<path d="M27.3449 42.5364C26.3892 41.224 25.5901 39.8327 25.2382 38.228C24.3839 34.3268 25.3515 30.9401 28.1217 28.0649C28.2752 27.9053 28.4258 27.7428 28.5779 27.5817C28.7553 27.449 28.9327 27.3163 29.1101 27.185C31.8743 25.1285 34.9352 24.4709 38.2943 25.2583C40.0044 25.6594 41.4819 26.5229 42.8327 27.622C44.6025 29.3086 45.7982 31.3129 46.2484 33.7378C46.5914 35.587 46.4512 37.3989 45.8384 39.1705C45.7207 39.5091 45.7773 39.7089 46.0218 39.9475C46.9402 40.8423 47.8482 41.746 48.7428 42.6646C50.022 43.9799 50.3455 45.8083 49.615 47.4532C48.8934 49.0772 47.2757 50.0793 45.4612 49.9943C44.3609 49.9421 43.4142 49.5037 42.6314 48.7267C41.722 47.823 40.814 46.9193 39.915 46.0051C39.7137 45.8008 39.5422 45.7233 39.2366 45.8187C34.6892 47.2384 30.7949 46.1751 27.5447 42.7049C27.5193 42.678 27.4865 42.6602 27.4567 42.6378C27.4194 42.602 27.3822 42.5662 27.3464 42.5319L27.3449 42.5364ZM35.7642 42.8645C39.6675 42.8585 42.8566 39.6448 42.8566 35.7182C42.8566 31.7693 39.657 28.5809 35.6971 28.5824C31.7521 28.5839 28.5734 31.7871 28.5764 35.7555C28.5809 39.6895 31.7968 42.8704 35.7642 42.8645Z" fill="#FE6666"/>
<path d="M42.8346 27.6233C41.4838 26.5242 40.0062 25.6608 38.2961 25.2596C34.9386 24.4707 31.8777 25.1284 29.112 27.1864C28.9346 27.3191 28.7571 27.4503 28.5797 27.5831C28.5767 21.9311 28.5738 16.2791 28.5723 10.6271C32.5546 9.49072 36.5368 8.35137 40.5206 7.21799C41.6671 6.8914 42.8554 7.71012 42.8554 8.83753C42.8614 14.9891 42.8584 21.1392 42.8569 27.2908C42.8554 27.4011 42.842 27.513 42.8346 27.6233Z" fill="#E5E6E7"/>
<path d="M27.3457 42.5332C27.383 42.569 27.4202 42.6048 27.456 42.6391C27.4188 42.6048 27.383 42.569 27.3457 42.5332Z" fill="#D0D2D3"/>
<path d="M16.5835 7.60089C17.1247 8.48373 17.1217 9.39044 16.6089 10.2643C16.1004 11.1293 15.3341 11.6199 14.2949 11.605C14.2979 10.1256 14.3009 8.64628 14.3024 7.16692C14.4858 7.15052 14.6572 7.20868 14.8361 7.24C15.4221 7.34289 15.9752 7.60984 16.5835 7.60089Z" fill="#D1D1D2"/>
<path d="M14.3025 7.16531C14.2996 8.64467 14.2966 10.124 14.2951 11.6034C12.2704 11.5974 11.0076 9.49918 11.9558 7.71709C12.1526 7.67235 12.3464 7.62164 12.5447 7.58287C13.1366 7.46953 13.6719 7.11908 14.3025 7.16531Z" fill="#E5E5E6"/>
<path d="M35.7644 42.8641C31.7971 42.8701 28.5811 39.6892 28.5781 35.7551C28.5751 31.7868 31.7538 28.5835 35.6988 28.582C39.6588 28.5791 42.8568 31.7689 42.8583 35.7179C42.8568 39.6444 39.6677 42.8582 35.7644 42.8641Z" fill="#FEC833"/>
</g>
<defs>
<clipPath id="clip0_4839_26718">
<rect width="50" height="50" fill="white"/>
</clipPath>
</defs>
</svg>
