<svg width="50" height="50" viewBox="0 0 50 50" fill="none" xmlns="http://www.w3.org/2000/svg">
<path d="M0 33.4792C1.07932 33.392 1.71752 32.879 2.05033 31.788C2.20563 31.279 2.12733 30.9913 1.89893 30.6176C1.47738 29.9263 1.4826 29.9224 2.05424 29.3326C2.20041 29.1816 2.36616 29.0475 2.50059 28.8861C2.82034 28.502 3.15053 28.4604 3.51074 28.8236C3.50944 29.0111 3.35804 29.1009 3.24841 29.2142C2.55279 29.9263 2.54627 29.9289 3.07875 30.7647C3.28496 31.0902 3.36457 31.3896 3.12443 31.7425C2.90517 32.064 2.78771 32.4403 2.682 32.8139C2.62196 33.0248 2.49928 33.129 2.28916 33.1876C1.0728 33.5274 1.0741 33.5313 1.0741 34.798C1.0741 34.8957 1.08324 34.9933 1.0728 35.0896C1.03756 35.3917 1.2007 35.5766 1.46825 35.6026C2.26697 35.682 2.68069 36.0505 2.96912 36.8563C3.21318 37.5372 3.32933 38.0476 2.84905 38.6074C2.82817 38.6308 2.82425 38.6699 2.80337 38.692C2.54235 38.9576 2.67678 39.1815 2.86732 39.4107C3.08006 39.6684 3.41286 39.8247 3.51074 40.1775C3.14923 40.5368 2.81512 40.4965 2.50189 40.1098C2.45099 40.0473 2.38574 39.9978 2.32701 39.9405C1.46564 39.106 1.45781 39.1021 2.07773 38.0905C2.22912 37.8432 2.27089 37.6479 2.10775 37.3875C1.88458 37.0321 1.72405 36.6389 1.62747 36.2288C1.56744 35.9736 1.42387 35.8617 1.17329 35.8122C0.77915 35.7354 0.391532 35.6234 0 35.5271C0 34.8423 0 34.1601 0 33.4792Z" fill="#808D98"/>
<path d="M20.8044 38.3097C20.4768 38.3097 20.1479 38.311 19.8204 38.311C19.8217 36.9661 19.7799 35.6187 19.836 34.2764C19.8974 32.8001 20.533 31.5802 21.6971 30.6415C22.4084 30.0674 23.2489 29.807 24.1155 29.5961C25.6372 29.6338 27.1746 29.3917 28.6781 29.7796C30.6097 30.2783 32.0819 32.0866 32.2424 34.0733C32.3481 35.37 32.2646 36.6667 32.2998 37.9634C32.3063 38.2316 32.2084 38.3423 31.9305 38.3357C31.2479 38.3201 30.5653 38.324 29.8814 38.3201C29.8827 37.4283 29.8841 36.5378 29.8841 35.646C29.8841 35.0471 29.7235 34.8505 29.2341 34.8414C28.7212 34.831 28.5189 35.051 28.5163 35.6421C28.5124 36.5339 28.5163 37.4244 28.5176 38.3162C26.432 38.3149 24.3465 38.3136 22.2622 38.3123C22.2635 37.4531 22.2674 36.5925 22.2635 35.7332C22.2609 35.1617 21.9934 34.8414 21.534 34.8401C21.0746 34.8401 20.8044 35.1591 20.8018 35.7306C20.7979 36.5899 20.8031 37.4505 20.8044 38.3097Z" fill="#FEBA58"/>
<path d="M3.51106 40.1742C3.41318 39.8214 3.08038 39.6651 2.86765 39.4074C2.6784 39.1769 2.54267 38.9543 2.8037 38.6887C2.82588 38.6666 2.82849 38.6275 2.84937 38.6041C3.32965 38.0443 3.2135 37.5339 2.96944 36.853C2.68102 36.0485 2.2673 35.6787 1.46857 35.5993C1.20102 35.5733 1.03788 35.3884 1.07312 35.0864C1.08487 34.99 1.07443 34.8924 1.07443 34.7947C1.07312 33.528 1.07312 33.5241 2.28948 33.1843C2.49961 33.1257 2.62229 33.0215 2.68232 32.8106C2.78803 32.437 2.90549 32.0607 3.12475 31.7392C3.36489 31.3863 3.28528 31.0869 3.07907 30.7614C2.54789 29.9256 2.55442 29.923 3.24874 29.2109C3.35967 29.0976 3.50976 29.0078 3.51106 28.8203C3.55283 28.8424 3.60242 28.8568 3.63635 28.888C4.02267 29.2395 4.43117 29.3072 4.87229 28.9908C5.17116 29.246 5.43479 29.3007 5.81589 29.052C6.13955 28.8398 6.52586 28.6641 6.93436 28.6081C7.10142 28.5847 7.19538 28.5026 7.23323 28.3399C7.34025 27.8881 7.5321 27.4533 7.51644 26.9755C7.81401 26.9026 8.0933 27.0484 8.38564 27.0471C8.62317 27.0458 8.63492 27.2593 8.64405 27.396C8.70017 28.2201 9.15827 28.5729 9.91392 28.8997C10.633 29.2109 11.1329 29.1939 11.6915 28.7318C11.9708 28.5013 12.224 28.5586 12.4563 28.8138C12.532 28.8971 12.622 28.97 12.7029 29.0494C13.5526 29.8748 13.5604 29.8787 12.96 30.9033C12.8139 31.152 12.7812 31.3486 12.9326 31.6142C13.1154 31.9358 13.2785 32.2834 13.3659 32.6401C13.4586 33.015 13.6609 33.1491 14.0185 33.2324C15.0521 33.4694 15.0482 33.4876 15.0443 34.5513C15.0404 35.5108 15.0456 35.5342 14.1046 35.7334C13.6661 35.8258 13.4051 36.012 13.3464 36.4599C13.3385 36.5224 13.315 36.5888 13.2798 36.6421C12.776 37.3933 12.7395 38.1146 13.3986 38.8059C13.5343 38.9478 13.486 39.104 13.3659 39.242C13.2589 39.3644 13.1558 39.4907 13.0449 39.6079C12.1626 40.5309 12.1587 40.5348 11.0611 39.8787C10.8575 39.7576 10.7061 39.7263 10.4908 39.8643C10.2467 40.0193 9.97396 40.169 9.69597 40.2224C9.0904 40.3382 8.82285 40.6702 8.71714 41.273C8.58532 42.032 8.47178 42.0646 7.51905 42.0229C7.42117 41.1845 7.42117 40.2862 6.25962 40.1482C6.09387 40.1286 5.93073 40.0141 5.78456 39.9177C5.45306 39.6964 5.15942 39.7237 4.88665 40.0102C4.3633 39.5597 3.94044 39.893 3.51106 40.1742ZM7.52819 30.7849C7.41595 30.7771 7.29979 30.751 7.19147 30.7653C5.10069 31.0544 3.76164 32.6297 3.80863 34.7414C3.85039 36.5979 5.68668 38.3112 7.52949 38.2109C9.65682 38.1081 11.2229 36.5575 11.2334 34.5448C11.2425 32.4565 9.70772 30.8981 7.52819 30.7849Z" fill="#8D9CA8"/>
<path d="M49.9841 31.79C49.9893 34.2897 49.9984 36.7906 49.9958 39.2903C49.9958 39.854 49.6134 40.1977 49.0157 40.1977C45.3052 40.199 41.5935 40.1964 37.8831 40.1951C37.4289 39.9061 37.2867 39.5012 37.2932 38.9622C37.3193 36.5797 37.3062 34.1973 37.3062 31.8135C37.5177 31.807 37.7278 31.7952 37.9392 31.7952C41.955 31.7939 45.9695 31.7926 49.9841 31.79ZM47.4078 34.649C47.5213 34.649 47.6362 34.6425 47.7497 34.6503C48.1073 34.6725 48.3527 34.5266 48.431 34.1712C48.5171 33.7819 48.3344 33.4474 47.9964 33.3419C47.5866 33.2143 47.1246 33.1987 46.7082 33.3758C46.3924 33.5099 46.2436 33.7898 46.305 34.1309C46.3676 34.4824 46.6143 34.6464 46.9693 34.6503C47.1154 34.649 47.2616 34.649 47.4078 34.649ZM41.7919 34.649C41.9407 34.649 42.0542 34.6503 42.1678 34.649C42.665 34.6399 42.8647 34.455 42.8725 33.9955C42.8804 33.5346 42.6794 33.312 42.2095 33.2872C41.9341 33.2729 41.6549 33.2638 41.3821 33.295C41.0649 33.3315 40.8705 33.5203 40.7752 33.8405C40.6825 34.153 40.8522 34.3327 41.0349 34.5162C41.2646 34.7467 41.5609 34.6087 41.7919 34.649ZM41.848 36.693C41.9133 36.693 41.9785 36.693 42.0425 36.693C42.6507 36.6865 42.8738 36.5003 42.8725 36.0017C42.8699 35.4874 42.6754 35.3286 42.0412 35.3273C41.8141 35.3273 41.5844 35.313 41.3586 35.3325C40.9266 35.369 40.6695 35.7973 40.8052 36.2074C40.9827 36.7438 41.4252 36.6917 41.848 36.693ZM44.5783 35.3286V35.3273C44.4804 35.3273 44.3825 35.3377 44.2859 35.326C43.8957 35.2791 43.6647 35.4614 43.5681 35.8233C43.4676 36.1983 43.6517 36.5159 43.9636 36.6162C44.4191 36.7633 44.9281 36.8037 45.3744 36.5485C45.6459 36.3936 45.762 36.1098 45.6746 35.7921C45.5924 35.4913 45.3744 35.3416 45.0638 35.3299C44.9033 35.3234 44.7414 35.3286 44.5783 35.3286ZM47.4365 35.3273C47.2877 35.3273 47.1728 35.3247 47.0593 35.3273C46.5581 35.339 46.301 35.546 46.2893 35.9457C46.2775 36.3389 46.5921 36.6631 47.0306 36.6891C47.289 36.7047 47.5513 36.7073 47.8097 36.6878C48.1386 36.6618 48.3422 36.4391 48.4205 36.1475C48.4975 35.8663 48.401 35.5929 48.1582 35.4119C47.9324 35.244 47.6544 35.3612 47.4365 35.3273ZM39.1464 35.3273C38.9977 35.3273 38.8841 35.326 38.7706 35.3273C38.2629 35.3377 38.0084 35.5343 37.9901 35.934C37.9705 36.3454 38.2981 36.6696 38.768 36.6904C39.0107 36.7008 39.2561 36.7021 39.4988 36.6891C39.8342 36.6696 40.0339 36.4456 40.1187 36.1592C40.2023 35.8806 40.1057 35.6059 39.8682 35.4197C39.6424 35.2427 39.3644 35.3625 39.1464 35.3273ZM47.3725 38.6433C47.4861 38.6433 47.5996 38.638 47.7132 38.6446C48.106 38.6667 48.3814 38.5287 48.4336 38.1069C48.4819 37.7189 48.2313 37.3518 47.8372 37.2997C47.5187 37.258 47.182 37.2489 46.8688 37.3088C46.4981 37.3791 46.2736 37.6551 46.2971 38.0457C46.3219 38.4519 46.5829 38.6393 46.9823 38.6433C47.1128 38.6446 47.2433 38.6433 47.3725 38.6433ZM41.7971 38.6433C41.9133 38.6433 41.9942 38.6433 42.0764 38.6433C42.6676 38.6407 42.866 38.4753 42.8725 37.9832C42.879 37.4781 42.6559 37.2841 42.0568 37.2789C41.8297 37.2763 41.5987 37.2593 41.3756 37.2893C41.0584 37.3322 40.8666 37.521 40.7726 37.8413C40.6825 38.1537 40.8548 38.3334 41.0401 38.5157C41.2698 38.7409 41.5674 38.6029 41.7971 38.6433ZM39.1047 34.649C39.2013 34.649 39.2991 34.6503 39.3957 34.649C39.8838 34.6438 40.1109 34.4498 40.1357 34.0202C40.1566 33.657 39.8603 33.3263 39.4492 33.2898C39.1921 33.2664 38.9298 33.2664 38.6727 33.2898C38.2694 33.3263 37.9627 33.6661 37.9927 34.0371C38.028 34.4694 38.2968 34.6516 38.7144 34.6477C38.845 34.6477 38.9742 34.649 39.1047 34.649ZM44.5365 34.649C44.7192 34.649 44.8654 34.6503 45.0103 34.649C45.4083 34.6438 45.672 34.455 45.6929 34.0514C45.715 33.6387 45.4697 33.3692 45.0768 33.3028C44.778 33.2521 44.4582 33.2586 44.1581 33.3055C43.8801 33.3484 43.6373 33.5203 43.5681 33.8158C43.5016 34.0996 43.5825 34.3691 43.8187 34.5566C44.0445 34.7336 44.3212 34.6139 44.5365 34.649ZM39.0681 38.6433C39.1817 38.6433 39.2965 38.6328 39.4075 38.6446C39.8238 38.6901 40.0548 38.4844 40.1266 38.0978C40.2075 37.6616 39.9478 37.4104 39.5758 37.314C39.2352 37.2255 38.8606 37.2229 38.5187 37.3205C38.1546 37.4247 37.9497 37.7059 37.9979 38.0939C38.0449 38.4701 38.3033 38.6433 38.6779 38.6446C38.8097 38.6433 38.9389 38.6433 39.0681 38.6433ZM44.5483 38.6433C44.6984 38.6433 44.8106 38.6459 44.9241 38.6433C45.4279 38.6328 45.6824 38.4323 45.6994 38.034C45.7177 37.6239 45.3888 37.301 44.9215 37.2802C44.6958 37.2697 44.4661 37.2632 44.2416 37.2841C43.9284 37.314 43.6739 37.4807 43.576 37.7749C43.4846 38.047 43.5655 38.323 43.79 38.5261C44.0249 38.7396 44.3199 38.6016 44.5483 38.6433Z" fill="#E9F5FE"/>
<path d="M25.9689 2.03223C29.0568 2.12987 31.9633 4.6152 32.7059 7.79445C33.7174 12.1259 30.7978 16.3232 26.3513 16.9312C26.1921 16.9533 26.0316 16.9729 25.8711 16.9937C25.7967 16.9664 25.7262 16.9286 25.6492 16.913C24.288 16.6357 23.0468 16.0941 22.021 15.1528C20.0672 13.3627 19.1811 11.1638 19.523 8.49748C19.7984 6.34413 20.8829 4.6855 22.5835 3.40443C23.5819 2.65193 24.75 2.26657 25.9689 2.03223ZM25.7797 4.46939C25.4391 4.46548 25.0932 4.41992 24.7591 4.46548C22.5117 4.76883 20.7028 6.45349 20.3544 8.75395C20.0712 10.6274 20.8699 12.7208 22.7649 13.8366C23.6994 14.3873 24.703 14.7206 25.8162 14.5032C28.4604 14.3573 30.6465 11.967 30.4311 9.16405C30.2119 6.31419 28.0075 4.62171 25.7797 4.46939Z" fill="#58A3FE"/>
<path d="M13.3006 44.9808C13.2875 45.0941 13.2784 45.1526 13.2758 45.2099C13.2549 45.7541 13.0317 46.034 12.6049 46.0497C12.1925 46.0653 11.9289 45.8218 11.8688 45.3115C11.7958 44.684 11.7501 44.0512 11.7044 43.4211C11.6718 42.9589 11.8858 42.6829 12.3596 42.623C12.956 42.5475 13.5524 42.4707 14.1476 42.3887C14.6748 42.3158 15.0442 42.5306 15.1173 42.9589C15.1851 43.3573 14.928 43.6555 14.406 43.7778C14.3433 43.7922 14.2794 43.8013 14.1123 43.8325C14.4321 44.0577 14.684 44.2426 14.9437 44.4158C22.2954 49.2992 31.8618 48.4907 38.2764 42.4421C38.3469 42.3757 38.4174 42.3067 38.4904 42.2416C38.8989 41.8784 39.3114 41.8549 39.605 42.1765C39.8843 42.4824 39.836 42.8821 39.4654 43.248C38.5962 44.1072 37.6539 44.8792 36.6372 45.5562C29.5766 50.2626 20.5674 50.1311 13.649 45.2243C13.5459 45.1539 13.4428 45.081 13.3006 44.9808Z" fill="#507691"/>
<path d="M25.6756 19.4688C27.6764 19.6705 29.0728 21.5232 28.7609 23.4786C28.6056 24.4485 28.4307 25.3937 27.8199 26.1892C27.3266 26.8336 26.7262 27.3375 25.8701 27.4286C25.6208 27.2411 25.2998 27.2229 25.0374 27.0484C23.8537 26.2608 22.9532 24.1361 23.1581 22.7339C23.3773 21.2419 24.0978 20.177 25.5386 19.6445C25.63 19.6107 25.6678 19.556 25.6756 19.4688Z" fill="#FCC7A2"/>
<path d="M43.2356 23.2948C42.8167 21.864 42.2268 20.6063 41.5142 19.406C39.901 16.685 37.7359 14.5056 35.0199 12.873C34.9364 12.8223 34.8516 12.7741 34.7707 12.7207C34.3348 12.4382 34.2056 12.0632 34.4196 11.7C34.6441 11.3186 35.0434 11.2574 35.5237 11.536C36.7088 12.2234 37.8129 13.0228 38.8296 13.9406C41.5155 16.3673 43.4314 19.294 44.5485 22.7362C44.5825 22.8417 44.6268 22.9446 44.6673 23.05C44.8618 23.0435 44.8813 22.8625 44.9753 22.7636C45.2442 22.4811 45.5483 22.3873 45.8915 22.6048C46.2347 22.8209 46.3274 23.1724 46.1408 23.4966C45.7688 24.1423 45.3564 24.7685 44.9166 25.37C44.6843 25.6877 44.3254 25.6746 43.9926 25.4781C43.447 25.1552 42.9054 24.8271 42.3638 24.4977C41.9971 24.2751 41.8222 23.9561 42.0179 23.5538C42.2085 23.1594 42.5504 23.0578 42.9628 23.2297C43.019 23.2505 43.0816 23.257 43.2356 23.2948Z" fill="#507691"/>
<path d="M14.5807 13.6586C13.808 14.1312 13.2116 14.6559 12.6347 15.1962C9.9384 17.7258 8.10211 20.767 7.2068 24.3616C7.1794 24.4722 7.15199 24.5816 7.11936 24.691C6.98624 25.1414 6.643 25.3745 6.25407 25.282C5.85993 25.1883 5.65242 24.8355 5.75422 24.3694C6.03612 23.0831 6.4642 21.8437 7.00843 20.6446C8.47537 17.412 10.6523 14.7535 13.5183 12.6549C13.6097 12.5872 13.7036 12.5221 13.7924 12.4518C13.8159 12.4335 13.8289 12.3997 13.8459 12.3723C13.7532 12.2317 13.581 12.2682 13.4557 12.2005C13.1372 12.0286 12.961 11.7735 13.0524 11.4037C13.1411 11.0431 13.3917 10.8218 13.7624 10.8778C14.5324 10.9936 15.2893 11.1915 16.0254 11.4415C16.3621 11.5548 16.4679 11.8698 16.4026 12.2031C16.2682 12.8866 16.122 13.5675 15.9549 14.2432C15.8675 14.5999 15.6013 14.7939 15.2306 14.7639C14.8365 14.7314 14.6276 14.4762 14.5794 14.0922C14.5689 13.9828 14.5807 13.8708 14.5807 13.6586ZM14.5937 13.6274C14.582 13.6391 14.5624 13.6508 14.5624 13.6625C14.5624 13.6743 14.582 13.6873 14.5924 13.699C14.6042 13.6873 14.6237 13.6769 14.625 13.6651C14.6263 13.6534 14.6068 13.6404 14.5937 13.6274Z" fill="#507691"/>
<path d="M49.9844 31.7906C45.9699 31.7932 41.9554 31.7945 37.9396 31.7971C37.7281 31.7971 37.518 31.8088 37.3066 31.8153C37.304 31.7919 37.3 31.7685 37.2961 31.745C37.2987 31.2295 37.3314 30.7126 37.2961 30.1997C37.2583 29.6529 37.3653 29.1829 37.7908 28.8131C37.92 28.8079 38.0492 28.8027 38.1784 28.7962C38.1823 29.136 38.181 29.4758 38.1901 29.8156C38.2019 30.283 38.4733 30.6189 38.8466 30.641C39.2316 30.6645 39.597 30.3194 39.6297 29.8664C39.6558 29.5123 39.6427 29.1542 39.6466 28.7988C40.1295 28.7962 40.6111 28.7936 41.094 28.791C41.0979 29.1464 41.0992 29.5006 41.107 29.856C41.1162 30.3025 41.4085 30.6371 41.787 30.641C42.1642 30.6462 42.4631 30.3142 42.4787 29.8586C42.4905 29.5045 42.4879 29.149 42.4905 28.7936C42.9734 28.7949 43.4575 28.7962 43.9404 28.7962C43.9444 29.1204 43.9457 29.4446 43.9509 29.7687C43.96 30.2765 44.2223 30.6189 44.6139 30.6397C45.0537 30.6632 45.3748 30.3116 45.3956 29.77C45.4087 29.4459 45.4048 29.1217 45.4087 28.7975C45.8916 28.7949 46.3745 28.7936 46.8574 28.791C46.8613 29.1464 46.8626 29.5006 46.8691 29.856C46.8782 30.3012 47.1719 30.6371 47.5504 30.641C47.9288 30.6449 48.2264 30.3155 48.2421 29.8573C48.2538 29.5032 48.2512 29.1477 48.2551 28.7923C48.5618 28.7949 48.8672 28.7871 49.1739 28.8001C49.6803 28.8223 49.987 29.1152 49.9961 29.619C50.0079 30.3442 49.9896 31.068 49.9844 31.7906Z" fill="#F94A58"/>
<path d="M25.9683 2.03257C24.7493 2.26821 23.5813 2.65357 22.5829 3.40607C20.8823 4.68845 19.7991 6.34577 19.5224 8.49912C19.1804 11.1654 20.0666 13.3643 22.0204 15.1544C23.0462 16.0944 24.2873 16.6373 25.6486 16.9146C25.7243 16.9302 25.796 16.968 25.8704 16.9953C21.8925 17.2518 18.3922 14.454 17.9001 10.4988C17.3481 6.05935 20.4386 2.73429 24.0276 2.10287C24.6749 1.9883 25.3184 1.97658 25.9683 2.03257Z" fill="#5094E6"/>
<path d="M24.1151 29.5974C23.2499 29.8083 22.4081 30.0687 21.6968 30.6428C20.5339 31.5815 19.897 32.8014 19.8357 34.2778C19.7796 35.62 19.8213 36.9675 19.82 38.3124C18.4588 38.4491 18.4418 38.4491 18.464 37.1419C18.4836 36.0093 18.3544 34.8727 18.5463 33.7466C18.9665 31.2743 20.9738 29.5844 23.4809 29.5844C23.6923 29.5818 23.9037 29.5922 24.1151 29.5974Z" fill="#E6A84F"/>
<path d="M25.6756 19.469C25.6677 19.5562 25.6299 19.6122 25.5398 19.6447C24.099 20.1772 23.3786 21.2422 23.1593 22.7341C22.9531 24.1363 23.8549 26.261 25.0387 27.0486C25.301 27.2231 25.6221 27.2413 25.8713 27.4288C24.9016 27.7387 24.1173 27.3247 23.4138 26.7427C22.033 25.6022 21.481 22.5948 22.4611 21.0963C23.2246 19.9259 24.313 19.4403 25.6756 19.469Z" fill="#FBB17B"/>
<path d="M37.2973 31.7441C37.3012 31.7676 37.3051 31.791 37.3077 31.8144C37.3064 34.1969 37.3208 36.5807 37.2947 38.9632C37.2881 39.5022 37.4304 39.9071 37.8846 40.1961C37.7384 40.1974 37.5935 40.2 37.4473 40.2C36.7674 40.1948 36.4307 39.8667 36.4294 39.191C36.4268 36.7018 36.4281 34.2138 36.4281 31.7246C36.4594 31.7285 36.492 31.7311 36.5233 31.735C36.7804 31.7376 37.0389 31.7402 37.2973 31.7441Z" fill="#D3DDE6"/>
<path d="M45.4097 28.7987C45.4057 29.1229 45.4097 29.4483 45.3966 29.7712C45.3757 30.3128 45.0547 30.6643 44.6148 30.6409C44.2233 30.62 43.961 30.2776 43.9518 29.7699C43.9466 29.4457 43.9453 29.1216 43.9414 28.7974C43.9453 28.3456 43.9414 27.8939 43.9571 27.4434C43.9727 26.976 44.252 26.6688 44.6462 26.6623C45.0677 26.6544 45.3692 26.9617 45.3875 27.446C45.4057 27.8965 45.4031 28.3482 45.4097 28.7987Z" fill="#FEB95A"/>
<path d="M39.646 28.798C39.6421 29.1547 39.6551 29.5115 39.629 29.8656C39.5964 30.3173 39.231 30.6624 38.8459 30.6402C38.4714 30.6181 38.2012 30.2822 38.1895 29.8148C38.1803 29.475 38.1816 29.1352 38.1777 28.7954C38.1816 28.3437 38.1777 27.8932 38.1921 27.4414C38.2078 26.9728 38.487 26.6681 38.8812 26.6603C39.304 26.6525 39.6029 26.9584 39.6225 27.4453C39.6421 27.8958 39.6395 28.3476 39.646 28.798Z" fill="#FEB95A"/>
<path d="M48.2556 28.7933C48.2517 29.1487 48.2556 29.5029 48.2425 29.8583C48.2269 30.3166 47.9293 30.6459 47.5508 30.642C47.1723 30.6381 46.8787 30.3035 46.8695 29.857C46.8617 29.5016 46.8617 29.1474 46.8578 28.792C46.8591 28.322 46.8526 27.852 46.8669 27.3834C46.8813 26.9316 47.1488 26.6621 47.5521 26.6621C47.9332 26.6621 48.2308 26.9602 48.2451 27.3847C48.2595 27.8534 48.253 28.3233 48.2556 28.7933Z" fill="#FEBA58"/>
<path d="M42.4912 28.7933C42.4873 29.1487 42.4912 29.5029 42.4794 29.8583C42.4638 30.3139 42.1649 30.6459 41.7877 30.6407C41.4093 30.6355 41.1169 30.3022 41.1078 29.8557C41.1 29.5003 41.0986 29.1461 41.0947 28.7907C41.096 28.3207 41.0882 27.8507 41.1026 27.3821C41.1169 26.9277 41.3819 26.6621 41.7877 26.6621C42.1688 26.6621 42.4664 26.9602 42.4808 27.3847C42.4951 27.8547 42.4886 28.3246 42.4912 28.7933Z" fill="#FEBA58"/>
<path d="M20.8038 38.3104C20.8025 37.4511 20.7986 36.5906 20.8025 35.7313C20.8051 35.1611 21.0739 34.8408 21.5346 34.8408C21.994 34.8408 22.2616 35.1611 22.2642 35.7339C22.2681 36.5932 22.2629 37.4537 22.2629 38.313C21.7748 38.3625 21.2893 38.3664 20.8038 38.3104Z" fill="#E6A84F"/>
<path d="M28.5186 38.3169C28.5173 37.4251 28.5134 36.5333 28.5173 35.6428C28.5199 35.0518 28.7222 34.8317 29.2351 34.8421C29.7245 34.8513 29.8838 35.0479 29.8851 35.6467C29.8851 36.5385 29.8838 37.429 29.8825 38.3208C29.427 38.356 28.9728 38.3638 28.5186 38.3169Z" fill="#E6A84F"/>
<path d="M37.297 31.7446C37.0385 31.7407 36.7814 31.7381 36.523 31.7342C36.4982 31.699 36.4721 31.6652 36.4473 31.63C36.4421 31.1106 36.433 30.5924 36.4317 30.0729C36.4291 28.9585 36.6561 28.7502 37.7916 28.8114C37.3661 29.1811 37.2591 29.6511 37.297 30.1979C37.3322 30.7122 37.2996 31.229 37.297 31.7446Z" fill="#DD414E"/>
<path d="M4.88281 40.0068C5.15558 39.7204 5.44923 39.6931 5.78073 39.9144C5.9269 40.0121 6.09004 40.1253 6.25579 40.1449C7.41733 40.2829 7.41733 41.1799 7.51522 42.0196C7.48259 42.0235 7.45127 42.0313 7.41864 42.0326C6.50767 42.043 6.46982 42.0417 6.28972 41.1864C6.18792 40.7034 6.03653 40.3584 5.48577 40.2842C5.27826 40.2542 5.04856 40.1748 4.88281 40.0068Z" fill="#808D98"/>
<path d="M7.51524 26.9772C7.5309 27.455 7.33905 27.8885 7.23203 28.3416C7.19419 28.5043 7.10022 28.5863 6.93316 28.6097C6.52467 28.6657 6.13966 28.8428 5.81469 29.0537C5.4336 29.3024 5.17127 29.2477 4.87109 28.9925C5.07078 28.8167 5.32136 28.7204 5.56933 28.6827C6.03133 28.611 6.17751 28.3376 6.26625 27.9119C6.47246 26.9329 6.49595 26.9381 7.51524 26.9772Z" fill="#808D98"/>
<path d="M36.4478 31.6309C36.4726 31.666 36.4987 31.6999 36.5235 31.735C36.4922 31.7311 36.4596 31.7285 36.4282 31.7246C36.4256 31.6907 36.4335 31.6595 36.4478 31.6309Z" fill="#F94A58"/>
<path d="M7.5287 30.7852C9.70823 30.8984 11.243 32.4568 11.2326 34.5464C11.2235 36.5591 9.65733 38.1097 7.5287 38.2125C7.45431 38.0016 7.24288 38.0224 7.08627 37.9665C6.55509 37.7764 6.08134 37.4691 5.71721 37.0668C3.67863 34.8158 4.8976 31.7134 7.18285 31.0065C7.30944 30.9674 7.49085 30.9752 7.5287 30.7852Z" fill="#E9F5FE"/>
<path d="M7.5287 30.785C7.48955 30.9751 7.30944 30.9673 7.18285 31.0063C4.8976 31.7133 3.67863 34.8157 5.71721 37.0667C6.08134 37.469 6.55509 37.7762 7.08627 37.9663C7.24288 38.0223 7.45562 38.0015 7.5287 38.2124C5.68589 38.3113 3.8496 36.598 3.80784 34.7415C3.76085 32.6298 5.0999 31.0545 7.19068 30.7655C7.30161 30.7499 7.41646 30.7772 7.5287 30.785Z" fill="#D3DDE6"/>
<path d="M47.4087 34.649C47.2625 34.649 47.1164 34.6503 46.9689 34.649C46.6139 34.6464 46.3672 34.4824 46.3046 34.1295C46.2432 33.7884 46.392 33.5085 46.7079 33.3744C47.1242 33.1974 47.5875 33.213 47.996 33.3406C48.334 33.446 48.5167 33.7793 48.4306 34.1699C48.3523 34.5253 48.1069 34.6711 47.7493 34.649C47.6371 34.6425 47.5222 34.649 47.4087 34.649Z" fill="#D3DDE6"/>
<path d="M41.7921 34.6491C41.5624 34.6087 41.2649 34.7467 41.0365 34.5176C40.8524 34.3327 40.6828 34.153 40.7767 33.8419C40.872 33.5216 41.0665 33.3315 41.3836 33.2964C41.6564 33.2651 41.9357 33.2743 42.2111 33.2886C42.6822 33.3133 42.8819 33.5359 42.8741 33.9968C42.8662 34.4564 42.6665 34.6413 42.1693 34.6504C42.0544 34.6504 41.9396 34.6491 41.7921 34.6491Z" fill="#D3DDE6"/>
<path d="M41.8487 36.693C41.4258 36.6917 40.9834 36.7438 40.8059 36.2074C40.6702 35.7973 40.9273 35.369 41.3593 35.3325C41.5851 35.313 41.8135 35.3273 42.0419 35.3273C42.6761 35.3286 42.8706 35.4875 42.8732 36.0017C42.8758 36.5003 42.6513 36.6865 42.0432 36.693C41.9792 36.693 41.914 36.693 41.8487 36.693Z" fill="#D3DDE6"/>
<path d="M44.5794 35.3292C44.7412 35.3292 44.9043 35.324 45.0662 35.3305C45.3768 35.3422 45.5947 35.4919 45.677 35.7927C45.7631 36.1103 45.6483 36.3941 45.3768 36.5491C44.9304 36.8042 44.4215 36.7639 43.966 36.6168C43.654 36.5165 43.47 36.1989 43.5705 35.8239C43.6671 35.462 43.8994 35.2797 44.2883 35.3266C44.3849 35.3383 44.4828 35.3279 44.5807 35.3279C44.5794 35.3279 44.5794 35.3292 44.5794 35.3292Z" fill="#D3DDE6"/>
<path d="M47.4372 35.3278C47.6539 35.3616 47.9319 35.2444 48.1602 35.4137C48.403 35.5933 48.4983 35.8667 48.4226 36.1493C48.343 36.4409 48.1407 36.6635 47.8118 36.6895C47.5534 36.7104 47.2924 36.7065 47.0326 36.6908C46.5941 36.6648 46.2796 36.3406 46.2913 35.9475C46.3031 35.5478 46.5602 35.3408 47.0613 35.3291C47.1749 35.3252 47.2884 35.3278 47.4372 35.3278Z" fill="#D3DDE6"/>
<path d="M39.1474 35.3278C39.364 35.3629 39.642 35.2431 39.8691 35.4202C40.1066 35.6064 40.2032 35.8811 40.1197 36.1597C40.0349 36.4461 39.8339 36.6713 39.4998 36.6896C39.257 36.7039 39.013 36.7013 38.7689 36.6909C38.2991 36.67 37.9715 36.3458 37.9911 35.9344C38.0106 35.5361 38.2638 35.3382 38.7715 35.3278C38.8851 35.3265 38.9986 35.3278 39.1474 35.3278Z" fill="#D3DDE6"/>
<path d="M47.372 38.6437C47.2415 38.6437 47.1123 38.645 46.9818 38.6437C46.5824 38.6398 46.3201 38.451 46.2966 38.0461C46.2731 37.6555 46.4989 37.3795 46.8682 37.3092C47.1815 37.2493 47.5182 37.2585 47.8366 37.3001C48.2308 37.3522 48.48 37.7193 48.4331 38.1073C48.3809 38.5291 48.1055 38.6671 47.7126 38.645C47.6004 38.6385 47.4855 38.6437 47.372 38.6437Z" fill="#D3DDE6"/>
<path d="M41.7972 38.643C41.5675 38.6026 41.2699 38.7406 41.0402 38.5154C40.8549 38.3331 40.6826 38.1535 40.7727 37.841C40.8653 37.5207 41.0585 37.332 41.3756 37.289C41.5988 37.2591 41.8298 37.276 42.0569 37.2786C42.6559 37.2851 42.8791 37.4791 42.8726 37.9829C42.8661 38.475 42.6677 38.6404 42.0765 38.643C41.9956 38.643 41.9133 38.643 41.7972 38.643Z" fill="#D3DDE6"/>
<path d="M39.1049 34.6489C38.9757 34.6489 38.8451 34.6476 38.7159 34.6489C38.2983 34.6528 38.0295 34.4705 37.9942 34.0383C37.9642 33.6673 38.2709 33.3275 38.6742 33.291C38.9313 33.2676 39.1936 33.2676 39.4507 33.291C39.8618 33.3275 40.1581 33.6568 40.1372 34.0214C40.1124 34.451 39.8853 34.645 39.3972 34.6502C39.2993 34.6502 39.2014 34.6489 39.1049 34.6489Z" fill="#D3DDE6"/>
<path d="M44.5369 34.6495C44.3229 34.6143 44.0449 34.7354 43.8204 34.5557C43.5842 34.3683 43.502 34.1001 43.5698 33.8149C43.639 33.5194 43.8831 33.3476 44.1598 33.3046C44.4599 33.2577 44.7797 33.2512 45.0785 33.302C45.4714 33.3684 45.7154 33.6379 45.6946 34.0506C45.6737 34.4555 45.41 34.643 45.012 34.6482C44.8645 34.6508 44.7196 34.6495 44.5369 34.6495Z" fill="#D3DDE6"/>
<path d="M39.0681 38.6437C38.9389 38.6437 38.8083 38.6437 38.6791 38.6437C38.3046 38.6424 38.0462 38.4692 37.9992 38.093C37.9509 37.7063 38.1558 37.4238 38.5199 37.3197C38.8619 37.222 39.2364 37.2259 39.5771 37.3131C39.949 37.4095 40.2087 37.6608 40.1278 38.0969C40.056 38.4849 39.825 38.6893 39.4087 38.6437C39.2965 38.6333 39.1816 38.6437 39.0681 38.6437Z" fill="#D3DDE6"/>
<path d="M44.5487 38.6434C44.3203 38.6017 44.0253 38.7397 43.7917 38.5262C43.5686 38.3231 43.4863 38.0471 43.5777 37.775C43.6756 37.4821 43.9301 37.3141 44.2433 37.2842C44.4678 37.2634 44.6962 37.2699 44.9233 37.2803C45.3905 37.3011 45.7194 37.6253 45.7011 38.0341C45.6841 38.4325 45.4296 38.633 44.9259 38.6434C44.8123 38.6447 44.6988 38.6434 44.5487 38.6434Z" fill="#D3DDE6"/>
<path d="M25.779 4.46973C28.0068 4.62205 30.2111 6.31452 30.4304 9.16439C30.6457 11.9674 28.4596 14.359 25.8155 14.5035C25.0716 14.3681 24.372 14.109 23.7586 13.6716C22.1286 12.5103 21.4055 10.9089 21.5909 8.92874C21.6874 7.89373 22.0933 6.97459 22.8059 6.18433C23.6164 5.28472 24.6174 4.74833 25.779 4.46973ZM24.6853 8.02262C24.6853 8.46006 24.6892 8.8975 24.684 9.33364C24.6801 9.72811 24.8667 9.97938 25.2426 10.0835C25.8051 10.2372 26.3676 10.3882 26.934 10.5262C27.3542 10.629 27.7196 10.4272 27.8201 10.0601C27.9259 9.67473 27.7405 9.33624 27.319 9.19303C27.0123 9.08888 26.6991 9.00035 26.3819 8.93786C26.1418 8.89099 26.0661 8.77512 26.0713 8.54078C26.0843 7.97445 26.0791 7.40812 26.0739 6.84049C26.0687 6.27547 25.8272 5.99035 25.3665 5.99295C24.9097 5.99556 24.6892 6.27026 24.684 6.85611C24.6814 7.24538 24.6853 7.63465 24.6853 8.02262Z" fill="#E8F4FE"/>
<path d="M25.7797 4.46992C24.6195 4.74852 23.6172 5.28491 22.8067 6.18582C22.0941 6.97738 21.6895 7.89522 21.5916 8.93024C21.4063 10.9104 22.1293 12.5118 23.7594 13.6731C24.3715 14.1092 25.0724 14.3696 25.8163 14.505C24.703 14.7224 23.6994 14.3891 22.7649 13.8384C20.8699 12.7214 20.0712 10.6292 20.3544 8.75578C20.7029 6.45532 22.513 4.77066 24.7591 4.46731C25.0932 4.42044 25.4391 4.46601 25.7797 4.46992Z" fill="#D3DDE6"/>
<path d="M14.5938 13.627C14.6056 13.64 14.6251 13.653 14.6251 13.6647C14.6251 13.6764 14.6043 13.6881 14.5925 13.6986C14.5821 13.6868 14.5625 13.6738 14.5625 13.6621C14.5638 13.6504 14.5834 13.6387 14.5938 13.627Z" fill="#FEFEFE"/>
<path d="M24.6853 8.02252C24.6853 7.63456 24.6814 7.24529 24.6853 6.85732C24.6919 6.27146 24.9111 5.99676 25.3679 5.99416C25.8286 5.99155 26.0701 6.27537 26.0753 6.8417C26.0805 7.40802 26.0857 7.97565 26.0727 8.54198C26.0674 8.77763 26.1431 8.89219 26.3833 8.93906C26.7004 9.00155 27.0136 9.09008 27.3203 9.19424C27.7419 9.33744 27.9272 9.67724 27.8215 10.0613C27.721 10.4284 27.3556 10.6302 26.9353 10.5274C26.3689 10.3894 25.8064 10.2384 25.2439 10.0847C24.8667 9.98189 24.6814 9.72932 24.6853 9.33484C24.6892 8.8974 24.6853 8.45996 24.6853 8.02252Z" fill="#507691"/>
</svg>
