<svg width="50" height="50" viewBox="0 0 50 50" fill="none" xmlns="http://www.w3.org/2000/svg">
<g clip-path="url(#clip0_4836_26448)">
<path d="M20.7027 44.7665C14.3111 44.7665 7.92083 44.749 1.52921 44.7787C-0.000243358 44.7868 0.184532 44.4257 0.0172901 43.2672C0.0051516 43.185 0.0159414 43.0988 0.0159414 43.0152C0.0159414 31.206 0.0159414 19.3954 0.0199876 7.58616C0.0199876 7.3787 -0.0663309 7.14564 0.119793 6.96512C2.00127 6.96512 3.88274 6.96647 5.76421 6.96377C6.66112 6.96242 6.97537 6.64853 6.97672 5.75267C6.97942 3.87338 6.97807 1.99408 6.97807 0.114788C7.12508 -0.0549548 7.32334 0.0137506 7.49868 0.0137506C15.9687 0.0110563 24.4373 0.0097091 32.9073 0.0150978C33.2391 0.0150978 33.575 0.0635957 33.9014 0.126912C34.1765 0.180799 34.3707 0.343806 34.4597 0.641529C34.5299 0.875936 34.5285 1.10361 34.5285 1.33667C34.5299 7.7815 34.5299 14.2277 34.5299 20.6725C34.3451 20.6792 34.1617 20.6941 33.9769 20.6941C31.9255 20.6954 29.8741 20.69 27.8226 20.6968C26.6034 20.7008 25.9223 21.3852 25.9169 22.6057C25.9101 23.7643 25.9223 24.9242 25.9115 26.0827C25.9074 26.4828 25.9749 26.8883 25.8629 27.2844C24.3996 28.2746 22.9915 29.3388 21.5915 30.4152C21.3204 30.624 21.0655 30.8827 21.0062 31.2558C20.7553 31.6559 20.7256 32.1045 20.7256 32.5585C20.7243 34.8366 20.7283 37.1133 20.7243 39.3914C20.7202 41.1831 20.7095 42.9748 20.7027 44.7665ZM19.0128 14.6992C22.6098 14.6992 26.2069 14.6992 29.8039 14.6978C29.9873 14.6978 30.1762 14.6992 30.3556 14.6642C30.8168 14.5766 31.0704 14.2667 31.065 13.8168C31.0596 13.3682 30.8047 13.061 30.3367 12.9896C30.1384 12.96 29.9347 12.9587 29.7338 12.9587C22.5734 12.9573 15.413 12.9573 8.25262 12.9587C8.05166 12.9587 7.84665 12.9587 7.65108 12.9977C7.18038 13.0907 6.90928 13.4935 6.97672 13.9623C7.04416 14.4378 7.42045 14.6978 8.07189 14.6978C11.7175 14.7005 15.3658 14.6992 19.0128 14.6992ZM15.556 18.1372C13.6057 18.1372 11.6541 18.1372 9.70385 18.1372C9.08208 18.1372 8.45897 18.1277 7.83721 18.1425C7.32199 18.1547 6.9956 18.4699 6.97133 18.9374C6.94705 19.417 7.27749 19.7901 7.78596 19.8507C7.88576 19.8629 7.98692 19.8575 8.08807 19.8575C13.0824 19.8575 18.0781 19.8575 23.0724 19.8588C23.2761 19.8588 23.4757 19.8561 23.6645 19.7672C24.0476 19.5854 24.2067 19.2755 24.1514 18.8646C24.0961 18.447 23.8412 18.2059 23.4244 18.1506C23.2585 18.1291 23.0886 18.1385 22.92 18.1385C20.4667 18.1372 18.012 18.1372 15.556 18.1372ZM14.6968 25.009C16.9667 25.009 19.2353 25.0131 21.5052 25.0063C22.1 25.005 22.4547 24.6507 22.4412 24.1226C22.4277 23.6161 22.0825 23.2954 21.5012 23.2954C16.9789 23.2914 12.4566 23.2927 7.93432 23.2941C7.83316 23.2941 7.73066 23.2914 7.63355 23.313C7.14936 23.4194 6.8405 23.9313 7.001 24.3988C7.1588 24.8582 7.51891 25.0144 7.98961 25.0131C10.2245 25.005 12.4606 25.009 14.6968 25.009ZM12.9799 30.1619C14.6429 30.1619 16.3059 30.1646 17.9675 30.1606C18.6338 30.1592 18.9885 29.8656 18.9993 29.3267C19.0087 28.7703 18.6324 28.4457 17.954 28.4443C14.6456 28.4416 11.3372 28.4416 8.02873 28.4443C7.34762 28.4443 6.96593 28.7663 6.96998 29.3159C6.97402 29.8696 7.33818 30.1606 8.04221 30.1606C9.68901 30.1633 11.3345 30.1619 12.9799 30.1619ZM12.5604 40.5041C13.9888 40.5041 15.4157 40.5041 16.844 40.5041C17.7288 40.5041 18.1698 40.2064 18.1577 39.6163C18.1469 39.0424 17.7261 38.7636 16.8615 38.7636C13.9726 38.7636 11.0836 38.7622 8.19462 38.7649C8.01119 38.7649 7.82237 38.7676 7.64434 38.804C7.17633 38.901 6.90659 39.3051 6.97672 39.774C7.04551 40.2347 7.41506 40.5014 8.02468 40.5028C9.5366 40.5082 11.0485 40.5041 12.5604 40.5041ZM12.605 33.5986C11.1942 33.5986 9.78342 33.5972 8.37265 33.5999C8.12179 33.5999 7.86283 33.5878 7.62276 33.6471C7.17768 33.7562 6.9403 34.0674 6.97402 34.5348C7.00639 34.974 7.2586 35.2407 7.69829 35.3068C7.88037 35.3337 8.06649 35.3351 8.25127 35.3351C9.82928 35.3364 11.4086 35.3364 12.9866 35.3364C14.33 35.3364 15.6733 35.3364 17.0166 35.3364C17.3403 35.3364 17.664 35.3297 17.9028 35.0683C18.1482 34.7989 18.2305 34.4877 18.0781 34.1401C17.8987 33.7306 17.5534 33.6012 17.138 33.6012C15.6275 33.5986 14.1169 33.5999 12.605 33.5986ZM4.37098 14.6884C4.83629 14.6898 5.2463 14.2802 5.23956 13.8195C5.23416 13.348 4.8309 12.9613 4.35749 12.9721C3.89218 12.9829 3.53477 13.3426 3.52803 13.8087C3.51993 14.2937 3.89758 14.6871 4.37098 14.6884ZM4.38447 38.7771C3.90297 38.773 3.52398 39.1529 3.52668 39.6365C3.52937 40.1 3.88679 40.4745 4.34131 40.4933C4.80257 40.5122 5.22607 40.1148 5.23821 39.6541C5.25305 39.1879 4.85652 38.7811 4.38447 38.7771ZM4.38716 18.1398C3.89218 18.1331 3.52533 18.4955 3.52668 18.9886C3.52803 19.4533 3.88139 19.8292 4.33726 19.8507C4.79583 19.8723 5.22338 19.4749 5.23956 19.0128C5.25709 18.5467 4.86596 18.1466 4.38716 18.1398ZM5.23956 34.4796C5.2463 34.0202 4.83764 33.608 4.37368 33.6066C3.92185 33.6066 3.54556 33.9744 3.52803 34.4351C3.51049 34.9296 3.86656 35.3108 4.35345 35.3216C4.83494 35.331 5.23282 34.9525 5.23956 34.4796ZM4.38042 28.447C3.90432 28.4416 3.52398 28.8296 3.52668 29.3159C3.52937 29.7915 3.87195 30.1444 4.34401 30.1592C4.8228 30.1741 5.22742 29.7982 5.23956 29.3267C5.2517 28.8673 4.84708 28.4524 4.38042 28.447ZM4.35075 25.0063C4.81606 25.0185 5.23282 24.6224 5.24091 24.159C5.24765 23.7171 4.87136 23.3183 4.42358 23.2954C3.93534 23.2698 3.54421 23.6255 3.52803 24.1118C3.51184 24.6035 3.8706 24.9942 4.35075 25.0063Z" fill="#EAEFF0"/>
<path d="M25.8613 27.2857C25.9733 26.8896 25.9072 26.4841 25.9099 26.084C25.9207 24.9255 25.9085 23.7669 25.9153 22.607C25.922 21.3865 26.6031 20.7021 27.821 20.6981C29.8724 20.6913 31.9239 20.6967 33.9753 20.6954C34.16 20.6954 34.3435 20.6819 34.5282 20.6738C37.1812 20.6819 39.8341 20.6886 42.4871 20.6967C42.6719 20.6967 42.8566 20.6927 43.0414 20.6981C44.1312 20.7304 44.8285 21.4255 44.8379 22.51C44.8528 24.0862 44.8554 25.6624 44.8622 27.2386C44.8541 27.4393 44.8393 27.64 44.8393 27.8394C44.8325 30.1848 44.8285 32.5302 44.8244 34.877C43.7117 35.6826 42.5977 36.4895 41.485 37.2951C41.315 37.1267 41.396 36.9125 41.3946 36.7212C41.3892 33.5662 41.3865 30.4098 41.396 27.2547C41.3973 26.9031 41.3461 26.7495 40.9253 26.6903C39.8557 26.5407 39.0195 25.6368 38.8725 24.5685C38.8334 24.2883 38.712 24.1967 38.449 24.1967C36.3814 24.2007 34.3151 24.2007 32.2476 24.1967C32.0277 24.1967 31.9346 24.26 31.8955 24.5025C31.7013 25.6839 31.0081 26.4424 29.832 26.6714C29.4274 26.7509 29.3721 26.9139 29.3721 27.2601C29.3815 30.4152 29.3788 33.5716 29.3734 36.7266C29.3734 36.9179 29.4543 37.1321 29.2777 37.2992C28.142 36.4572 27.0064 35.6152 25.8708 34.7746C25.8694 32.2783 25.8654 29.782 25.8613 27.2857Z" fill="#25AE5F"/>
<path d="M49.069 49.3377C48.5983 49.8388 47.9739 49.991 47.3346 49.991C39.369 50.0031 31.4034 50.0018 23.4392 49.9924C22.7608 49.991 22.1147 49.8186 21.6211 49.2959C24.8526 46.9235 28.0896 44.5606 31.3103 42.1748C32.0575 41.6211 32.8749 41.1563 33.5223 40.4747C33.7987 40.4612 33.9619 40.2429 34.1656 40.1042C35.0868 39.4764 35.7328 39.4858 36.6446 40.1433C36.8293 40.2766 36.9885 40.4747 37.2528 40.4639C37.3014 40.6686 37.4956 40.74 37.6345 40.8438C40.7326 43.1299 43.84 45.4026 46.9367 47.6901C47.6569 48.2249 48.4432 48.6789 49.069 49.3377Z" fill="#F2D45B"/>
<path d="M33.5214 40.4745C32.8727 41.1562 32.0554 41.6209 31.3095 42.1746C28.0888 44.5605 24.8518 46.9247 21.6203 49.2957C20.9877 48.765 20.7382 48.0644 20.7261 47.2629C20.7139 46.4303 20.7099 45.5978 20.7031 44.7652C20.7099 42.9735 20.7207 41.1818 20.7234 39.3914C20.7274 37.1133 20.7234 34.8366 20.7247 32.5586C20.7247 32.1046 20.7544 31.656 21.0052 31.2559C22.6291 32.4292 24.2516 33.6026 25.8755 34.7747C27.0111 35.6166 28.1467 36.4586 29.2837 37.2992C29.3444 37.3545 29.4011 37.4164 29.4658 37.4649C30.8145 38.4699 32.1687 39.4722 33.5214 40.4745Z" fill="#EFC31A"/>
<path d="M49.0695 49.3375C48.4437 48.6787 47.6574 48.2247 46.9358 47.6899C43.8391 45.4024 40.7317 43.1298 37.6336 40.8436C37.4947 40.7412 37.3005 40.6685 37.252 40.4637C37.3572 40.3815 37.461 40.298 37.5676 40.2185C38.8731 39.2432 40.18 38.2692 41.487 37.2952C42.5997 36.4896 43.7137 35.6826 44.8264 34.877C46.4705 33.67 48.1146 32.4629 49.7587 31.2559C49.9421 31.5509 49.9974 31.8809 49.9974 32.2191C50.0001 37.3019 50.0028 42.3848 49.9974 47.4676C49.9961 48.2355 49.6778 48.8633 49.0695 49.3375Z" fill="#EFC319"/>
<path d="M6.97742 0.115234C6.97742 1.99453 6.97876 3.87382 6.97607 5.75312C6.97472 6.64898 6.66047 6.96287 5.76356 6.96422C3.88209 6.96556 2.00061 6.96556 0.119141 6.96556C0.155556 6.91033 0.182531 6.84567 0.228388 6.79986C2.42142 4.60668 4.6158 2.41619 6.81017 0.225702C6.85738 0.179898 6.92077 0.151608 6.97742 0.115234Z" fill="#D0D4D1"/>
<path d="M49.7585 31.2585C48.1144 32.4655 46.4703 33.6726 44.8262 34.8796C44.8316 32.5342 44.8356 30.1875 44.841 27.842C44.841 27.6413 44.8558 27.4406 44.8639 27.2412C46.2626 28.2651 47.6666 29.2835 49.0571 30.3168C49.3768 30.5539 49.656 30.8462 49.7585 31.2585Z" fill="#EF9C21"/>
<path d="M19.0124 14.6996C15.3655 14.6996 11.7172 14.7009 8.07023 14.6982C7.42014 14.6982 7.04385 14.4382 6.97506 13.9627C6.90762 13.4938 7.17872 13.091 7.64942 12.9981C7.84499 12.959 8.05 12.959 8.25096 12.959C15.4113 12.9577 22.5717 12.9577 29.7321 12.959C29.9331 12.959 30.1367 12.9604 30.335 12.99C30.803 13.0614 31.0579 13.3699 31.0633 13.8172C31.0687 14.2658 30.8152 14.577 30.3539 14.6645C30.1745 14.6982 29.987 14.6982 29.8023 14.6982C26.2066 14.6996 22.6095 14.6996 19.0124 14.6996Z" fill="#435F6F"/>
<path d="M15.5559 18.1371C18.0119 18.1371 20.4666 18.1371 22.9226 18.1371C23.0912 18.1371 23.2611 18.1263 23.427 18.1492C23.8438 18.2045 24.0987 18.4456 24.154 18.8632C24.2093 19.2741 24.0501 19.584 23.6671 19.7658C23.4783 19.8548 23.2787 19.8574 23.075 19.8574C18.0807 19.8561 13.085 19.8561 8.09066 19.8561C7.9895 19.8561 7.88835 19.8615 7.78854 19.8494C7.28007 19.7901 6.94963 19.4156 6.97391 18.936C6.99819 18.4699 7.32458 18.1546 7.83979 18.1412C8.46156 18.1263 9.08467 18.1358 9.70643 18.1358C11.654 18.1371 13.6056 18.1371 15.5559 18.1371Z" fill="#415E6D"/>
<path d="M14.6976 25.0087C12.4614 25.0087 10.2252 25.0046 7.99037 25.0113C7.51966 25.0127 7.15955 24.8564 7.00175 24.397C6.84125 23.9296 7.15011 23.419 7.6343 23.3112C7.73141 23.2897 7.83526 23.2924 7.93507 23.2924C12.4573 23.291 16.9796 23.2897 21.5019 23.2937C22.0832 23.2937 22.4285 23.6143 22.442 24.1209C22.4555 24.6503 22.1007 25.0033 21.506 25.0046C19.236 25.0127 16.9675 25.0087 14.6976 25.0087Z" fill="#3F5C6C"/>
<path d="M12.9807 30.162C11.3352 30.162 9.68842 30.1634 8.04297 30.1607C7.33759 30.1593 6.97478 29.8697 6.97074 29.316C6.96669 28.7664 7.34703 28.4444 8.02949 28.4444C11.3379 28.4417 14.6463 28.4417 17.9548 28.4444C18.6345 28.4444 19.0108 28.7704 19 29.3268C18.9906 29.8657 18.6345 30.1593 17.9683 30.1607C16.3066 30.1647 14.6436 30.162 12.9807 30.162Z" fill="#415E6D"/>
<path d="M12.5602 40.5045C11.0483 40.5045 9.53635 40.5086 8.02577 40.5032C7.4148 40.5005 7.0466 40.2351 6.97781 39.7744C6.90768 39.3056 7.17742 38.9014 7.64543 38.8044C7.82481 38.7681 8.01228 38.7654 8.19571 38.7654C11.0847 38.7627 13.9737 38.764 16.8626 38.764C17.7258 38.764 18.1466 39.0429 18.1588 39.6168C18.1709 40.2068 17.7299 40.5045 16.8451 40.5045C15.4154 40.5059 13.9871 40.5045 12.5602 40.5045Z" fill="#435F6F"/>
<path d="M12.6056 33.5985C14.1176 33.5985 15.6281 33.5985 17.1401 33.5985C17.5555 33.5985 17.9007 33.7278 18.0801 34.1373C18.2325 34.4849 18.1489 34.7961 17.9048 35.0655C17.6674 35.3269 17.3424 35.335 17.0187 35.3336C15.6753 35.3336 14.332 35.3336 12.9887 35.3336C11.4107 35.3336 9.83131 35.335 8.2533 35.3323C8.06853 35.3323 7.8824 35.3309 7.70032 35.304C7.26064 35.238 7.00978 34.9712 6.97606 34.532C6.94099 34.0646 7.17837 33.7547 7.6248 33.6443C7.86352 33.585 8.12382 33.5985 8.37469 33.5971C9.78411 33.5971 11.1949 33.5985 12.6056 33.5985Z" fill="#425F6E"/>
<path d="M25.8742 34.7764C24.2503 33.603 22.6278 32.4296 21.0039 31.2576C21.0646 30.8844 21.3182 30.6258 21.5893 30.4169C22.9892 29.3406 24.3973 28.2763 25.8607 27.2861C25.8661 29.7824 25.8701 32.2787 25.8742 34.7764Z" fill="#F19C1F"/>
<path d="M4.37043 14.6882C3.89702 14.6868 3.51938 14.2921 3.52747 13.8085C3.53422 13.3424 3.89163 12.9827 4.35694 12.9719C4.83034 12.9611 5.23361 13.3478 5.23901 13.8193C5.2444 14.28 4.83439 14.6895 4.37043 14.6882Z" fill="#3A4D62"/>
<path d="M4.38382 38.7774C4.85452 38.7814 5.25105 39.1883 5.23891 39.6544C5.22677 40.1165 4.80327 40.5125 4.34201 40.4937C3.88614 40.4748 3.53007 40.1003 3.52738 39.6369C3.52333 39.1532 3.90367 38.7733 4.38382 38.7774Z" fill="#3A4D62"/>
<path d="M4.38784 18.1397C4.86663 18.1465 5.25642 18.5466 5.24023 19.0141C5.22405 19.4761 4.7965 19.8722 4.33793 19.852C3.88206 19.8304 3.5287 19.4559 3.52735 18.9898C3.526 18.4954 3.89285 18.133 4.38784 18.1397Z" fill="#3A4D62"/>
<path d="M5.2395 34.4794C5.23275 34.9536 4.83488 35.3308 4.35338 35.3214C3.86649 35.3106 3.51043 34.9294 3.52796 34.435C3.54415 33.9756 3.92179 33.6064 4.37362 33.6064C4.83758 33.6078 5.24624 34.02 5.2395 34.4794Z" fill="#3A4D62"/>
<path d="M4.3811 28.4473C4.84641 28.4527 5.25238 28.8676 5.24024 29.327C5.2281 29.7985 4.82348 30.173 4.34469 30.1596C3.87398 30.1447 3.5314 29.7904 3.52736 29.3162C3.52466 28.8299 3.90635 28.4419 4.3811 28.4473Z" fill="#3A4D62"/>
<path d="M4.35068 25.0063C3.87053 24.9928 3.51042 24.6035 3.52796 24.1118C3.54414 23.6254 3.93527 23.2684 4.42351 23.2954C4.87129 23.3196 5.24758 23.717 5.24084 24.1589C5.2341 24.6223 4.81599 25.0197 4.35068 25.0063Z" fill="#3A4D62"/>
<path d="M41.4853 37.2963C40.1784 38.2703 38.8728 39.2443 37.5659 40.2197C37.4593 40.2992 37.3555 40.3827 37.2503 40.4649C36.9859 40.4743 36.8268 40.2776 36.642 40.1443C35.7303 39.4868 35.0842 39.4774 34.163 40.1052C33.9607 40.2439 33.7975 40.4608 33.5197 40.4757C32.1669 39.4734 30.8141 38.4711 29.4614 37.4674C29.3953 37.4189 29.34 37.357 29.2793 37.3017C29.4546 37.136 29.3737 36.9205 29.3751 36.7292C29.3805 33.5741 29.3831 30.4177 29.3737 27.2627C29.3724 26.9164 29.4277 26.7521 29.8336 26.674C31.0097 26.4449 31.703 25.6865 31.8972 24.505C31.9363 24.2625 32.0294 24.1992 32.2492 24.1992C34.3168 24.2033 36.383 24.2033 38.4506 24.1992C38.7136 24.1992 38.835 24.2908 38.8741 24.571C39.0212 25.6407 39.8587 26.5433 40.9269 26.6928C41.3477 26.7521 41.3976 26.9057 41.3976 27.2573C41.3882 30.4123 41.3909 33.5687 41.3963 36.7238C41.3963 36.9138 41.3153 37.128 41.4853 37.2963ZM35.3971 31.0549C34.0079 30.9364 32.7631 32.3213 32.8008 33.5566C32.8453 35.0304 33.9432 36.1971 35.3823 36.1971C36.7782 36.1971 37.9597 35.0008 37.9597 33.5863C37.9611 32.1583 36.8443 31.0563 35.3971 31.0549ZM35.3445 28.436C35.8166 28.4509 36.2239 28.075 36.2428 27.6089C36.259 27.2007 35.8462 26.7534 35.4295 26.7265C34.9736 26.6982 34.5447 27.0929 34.5312 27.5523C34.5151 28.0723 34.8361 28.4199 35.3445 28.436Z" fill="#4FB96F"/>
<path d="M35.3979 31.0551C36.845 31.0565 37.9604 32.1584 37.9604 33.5864C37.9604 35.001 36.779 36.1986 35.383 36.1972C33.9439 36.1959 32.8447 35.0293 32.8016 33.5568C32.7651 32.3215 34.0087 30.9352 35.3979 31.0551Z" fill="#7DCF9D"/>
<path d="M35.3444 28.4367C34.836 28.4205 34.515 28.073 34.5298 27.553C34.5433 27.0922 34.9722 26.6975 35.428 26.7272C35.8448 26.7528 36.2575 27.2 36.2413 27.6095C36.2224 28.0757 35.8165 28.4515 35.3444 28.4367Z" fill="#7DCF9D"/>
</g>
<defs>
<clipPath id="clip0_4836_26448">
<rect width="50" height="50" fill="white"/>
</clipPath>
</defs>
</svg>
