<svg width="50" height="50" viewBox="0 0 50 50" fill="none" xmlns="http://www.w3.org/2000/svg">
<g clip-path="url(#clip0_4838_26619)">
<path d="M0.000666255 6.546C0.251031 6.11793 0.40751 5.63767 0.762193 5.26181C1.49243 4.47876 2.41043 4.12378 3.45362 4.12378C6.87527 4.11334 10.3074 4.12378 13.729 4.12378C13.7395 4.21775 13.7395 4.32215 13.7499 4.42656L13.7395 4.45788C12.9988 4.46832 12.2581 4.47876 11.507 4.47876C10.3804 4.4892 9.76491 5.09476 9.75447 6.2119C9.75447 6.61908 9.74404 7.01583 9.74404 7.42301C7.62637 7.42301 5.51913 7.43345 3.40146 7.41257C3.03634 7.41257 2.93202 7.51697 2.93202 7.88239C2.94246 20.7243 2.94246 33.5663 2.93202 46.4082C2.93202 46.7527 3.00505 46.8884 3.39103 46.8884C12.9362 46.878 22.4814 46.878 32.0265 46.8884C32.3917 46.8884 32.496 46.7945 32.496 46.4291C32.4751 44.8317 32.4855 43.2342 32.4855 41.6473C33.5287 41.4489 34.5198 41.073 35.5004 40.6554C35.5004 42.7226 35.5212 44.7794 35.5004 46.8467C35.5004 47.4209 35.3126 47.9638 34.9892 48.4545C34.4363 49.3002 33.6435 49.7805 32.6733 50.0102C22.7213 50.0102 12.7693 50.0102 2.81727 50.0102C2.52518 49.9162 2.23309 49.8431 1.95143 49.7283C0.949967 49.3315 0.386646 48.5276 -0.00976562 47.5671C0.000666255 33.8899 0.000666255 20.2127 0.000666255 6.546Z" fill="#A0A3F1"/>
<path d="M47.4245 49.9998C47.3515 49.8223 47.122 49.9476 47.0281 49.8119C47.0594 49.7701 47.0802 49.7179 47.1115 49.697C48.2069 48.7469 48.186 47.1287 47.0489 46.0533C46.0162 45.0823 45.046 44.0487 44.0446 43.0568C43.3874 42.4095 42.7719 41.71 42.0625 41.1149C42.365 40.5824 42.7927 40.1543 43.3248 39.8516C45.3485 41.877 47.3723 43.8921 49.4065 45.9175C50.1055 46.6066 50.1159 47.4836 49.9073 48.3293C49.6778 49.2168 48.9893 49.7179 48.0817 49.8954C47.9878 49.9163 47.8835 49.8745 47.8313 49.9998C47.6853 49.9998 47.5497 49.9998 47.4245 49.9998Z" fill="#BD8D23"/>
<path d="M21.709 4.11333C25.089 4.11333 28.4689 4.13421 31.8488 4.11333C34.123 4.10289 35.5626 5.72118 35.5313 7.79886C35.4687 11.7663 35.5104 15.7337 35.5104 19.7011C35.5104 19.8995 35.5 20.0874 35.4895 20.2858C35.1036 20.2963 34.8323 20.0039 34.4776 19.9099C33.7996 19.722 33.1424 19.5028 32.4747 19.294C32.4747 15.504 32.4643 11.7245 32.4852 7.93459C32.4852 7.54829 32.4121 7.40212 31.9844 7.40212C29.8563 7.423 27.7282 7.41256 25.6001 7.41256C25.5897 6.96361 25.5793 6.50423 25.5688 6.05528C25.5375 5.07387 24.9325 4.46831 23.9519 4.45787C23.1904 4.44743 22.4393 4.43699 21.6777 4.42655V4.41611C21.6882 4.32214 21.6986 4.21774 21.709 4.11333Z" fill="#A0A3F1"/>
<path d="M32.4855 19.3047C33.1531 19.5135 33.8207 19.7327 34.4884 19.9207C34.8431 20.0146 35.1143 20.307 35.5003 20.2965C36.147 20.8081 36.9086 21.1527 37.5553 21.6851C39.5791 23.3452 40.8935 25.4333 41.4777 27.9808C41.5299 28.2001 41.6133 28.4089 41.5716 28.6386C41.8428 29.8601 41.822 31.0817 41.5716 32.3032C41.4882 33.2637 41.1752 34.1721 40.7997 35.0491C40.4867 35.7486 40.1425 36.4377 39.6626 37.0432C39.527 37.2207 39.527 37.2729 39.7147 37.4504C40.3198 38.0038 40.8935 38.6093 41.4673 39.194C40.8518 40.0397 40.0694 40.7079 39.3079 41.4074C38.755 40.8645 38.2021 40.332 37.6597 39.7787C37.4093 39.5177 37.2215 39.5177 36.9294 39.7369C36.4809 40.071 35.9906 40.3425 35.5107 40.6452C34.5301 41.0629 33.5391 41.4387 32.4959 41.6371C32.2351 41.658 31.9743 41.6789 31.7135 41.7102C31.4527 41.7311 31.1919 41.6371 30.9415 41.7833C30.6181 41.7833 30.2843 41.7833 29.9609 41.7833C29.9922 41.6058 30.1383 41.6267 30.2635 41.6058C31.2858 41.4283 32.2768 41.136 33.2157 40.6661C35.7298 39.4028 37.5658 37.4922 38.6924 34.9029C39.6 32.8148 39.7669 30.6223 39.3914 28.4193C39.068 26.4982 38.2334 24.7651 36.9607 23.2408C35.1873 21.1213 32.9653 19.8267 30.2635 19.3464C30.1383 19.3256 29.9922 19.3464 29.9609 19.1689C30.2948 19.1689 30.6181 19.1689 30.952 19.1689C31.2023 19.3151 31.4631 19.2211 31.7239 19.242C31.9743 19.2211 32.2142 19.4195 32.4855 19.3047Z" fill="#CD9830"/>
<path d="M21.7089 4.11357C21.6985 4.21798 21.688 4.32238 21.688 4.42679C19.0383 4.42679 16.3991 4.41635 13.7494 4.41635C13.7389 4.31194 13.7389 4.21798 13.7285 4.11357C13.7807 2.25514 14.6257 0.908307 16.3886 0.250549C18.8819 -0.689104 21.542 1.10668 21.6776 3.76903C21.688 3.88388 21.6985 3.99872 21.7089 4.11357Z" fill="#FA695B"/>
<path d="M39.3078 41.4073C40.0694 40.7078 40.8518 40.0396 41.4672 39.1939C41.6863 39.2253 41.7698 39.0373 41.8949 38.9225C42.3331 38.4944 42.7608 38.0455 43.2094 37.6174C43.5953 37.252 44.0022 37.252 44.336 37.5757C44.6803 37.9202 44.6594 38.3169 44.2943 38.7346C43.9709 39.1104 43.5015 39.3506 43.3241 39.8517C42.7921 40.1545 42.3644 40.5825 42.0619 41.115C41.3525 41.5326 40.8831 42.2322 40.278 42.7646C40.1424 42.8795 40.0068 42.9943 40.0068 43.1927C39.819 43.13 39.746 43.2867 39.6521 43.3806C39.3704 43.6521 39.1096 43.934 38.828 44.2054C38.4211 44.5917 38.0039 44.6335 37.67 44.3203C37.2945 43.9653 37.3154 43.5372 37.7431 43.0883C38.1708 42.6498 38.6089 42.2217 39.0366 41.7832C39.1305 41.6788 39.2974 41.5953 39.3078 41.4073Z" fill="#F9B536"/>
<path d="M41.5723 32.3033C41.8226 31.0818 41.8435 29.8602 41.5723 28.6387C41.6662 28.6804 41.7287 28.7326 41.7392 28.8475C41.8852 29.9333 41.8852 31.0087 41.7392 32.0945C41.7287 32.2094 41.6557 32.2616 41.5723 32.3033Z" fill="#F9B536"/>
<path d="M32.4865 19.3051C32.2153 19.4199 31.9753 19.2215 31.7041 19.232C31.4537 19.1171 31.1929 19.1485 30.9321 19.1589C30.5983 19.1589 30.2749 19.1589 29.9411 19.1589C29.3256 19.1485 28.7206 19.2633 28.1155 19.3886C25.2363 20.0255 22.9622 21.5811 21.2201 23.9511C20.6672 23.9407 20.1143 23.9302 19.5718 23.9407C18.925 23.9511 18.2783 23.878 17.6315 23.9929C17.3498 24.0451 17.1621 24.1913 17.0577 24.4523C16.8282 25.0474 17.2038 25.5381 17.934 25.5485C18.7164 25.5694 19.4884 25.5485 20.2708 25.5485C19.7283 26.7701 19.3945 28.0438 19.2067 29.3594C18.7477 29.3594 18.2991 29.3594 17.8401 29.3594C17.2977 29.3698 16.9743 29.6621 16.9847 30.1424C16.9847 30.5705 17.329 30.9046 17.8193 30.915C18.2783 30.9359 18.7268 30.915 19.1858 30.915C19.2693 32.4915 19.6657 33.9845 20.3021 35.4149C19.4884 35.4149 18.6851 35.4149 17.8714 35.4253C17.3081 35.4358 16.9743 35.7594 16.9847 36.2501C16.9951 36.7095 17.3185 36.981 17.8819 36.981C18.9981 36.981 20.1143 36.981 21.2409 36.981C22.4406 38.6306 23.9845 39.873 25.8101 40.7814C24.5791 40.7918 23.3482 40.8022 22.1068 40.8022C20.7089 40.8022 19.311 40.7918 17.9236 40.8022C17.1829 40.8022 16.7656 41.4078 17.089 42.0029C17.3081 42.4101 17.7254 42.4205 18.1114 42.4205C20.8236 42.431 23.5359 42.431 26.2378 42.4205C27.1141 42.4205 27.3227 42.1804 27.281 41.3034C28.1468 41.5226 29.0231 41.721 29.9307 41.7315C30.2541 41.7315 30.5879 41.7315 30.9113 41.7315C31.1721 41.7419 31.4329 41.7732 31.6832 41.6584C31.944 41.6375 32.2048 41.6166 32.4656 41.5853C32.4656 43.1827 32.4552 44.7801 32.4761 46.3671C32.4761 46.7325 32.3717 46.8265 32.0066 46.8265C22.4615 46.816 12.9163 46.816 3.37111 46.8265C2.98513 46.8265 2.91211 46.7012 2.91211 46.3462C2.92254 33.5043 2.92254 20.6623 2.91211 7.82041C2.91211 7.45499 3.01643 7.35059 3.38154 7.35059C5.49922 7.37147 7.60646 7.36103 9.72413 7.36103C9.73456 7.60116 9.76585 7.85173 9.73456 8.09187C9.69283 8.58258 9.84931 8.69742 10.277 8.69742C13.1249 8.67654 15.9728 8.68698 18.8103 8.68698C20.928 8.68698 23.0352 8.67654 25.1529 8.69742C25.4867 8.69742 25.6223 8.6139 25.591 8.25892C25.5702 7.98746 25.6014 7.70557 25.6119 7.43411C27.74 7.43411 29.8681 7.44455 31.9962 7.42367C32.4239 7.42367 32.4969 7.56984 32.4969 7.95614C32.4865 11.7356 32.4865 15.5151 32.4865 19.3051ZM13.7717 19.8897C13.7613 17.5719 11.727 15.8701 9.26512 16.1416C9.01476 16.1207 8.78526 16.2251 8.56619 16.3086C7.0327 16.8724 6.14599 17.9896 5.8852 19.5974C5.8539 19.7749 5.70785 20.0881 6.12513 20.0881C8.05503 20.0777 9.98492 20.0672 11.9148 20.0568C12.5303 20.0985 13.1458 20.1612 13.7613 20.015C13.8343 19.9837 13.8134 19.9419 13.7717 19.8897ZM13.7508 43.475C13.8969 43.308 13.8239 43.1409 13.7613 42.9739C13.7926 42.7442 13.7195 42.5249 13.6465 42.3057C13.0728 40.3637 10.9551 39.0587 9.16081 39.5389C7.47084 39.706 5.8226 41.554 5.8539 43.2245C5.8539 43.4646 5.93735 43.5377 6.16686 43.5272C6.62586 43.5168 7.07443 43.5272 7.53343 43.5272C8.9939 43.5064 10.4544 43.5794 11.9148 43.4959C12.5199 43.5481 13.1354 43.5794 13.7508 43.475ZM9.08778 26.6448C9.46333 26.8014 9.84931 26.791 10.2353 26.7596C10.9655 26.697 11.6958 26.0392 11.9044 25.298C12.1339 24.4418 11.8627 23.5439 11.2263 23.0532C10.4961 22.4894 9.69283 22.4164 8.9626 22.8444C8.80612 22.834 8.69137 22.9175 8.57662 23.0115C7.24134 24.1077 7.50214 25.9557 9.08778 26.6448ZM9.08778 14.9305C9.73456 15.1393 10.3605 15.1288 10.9655 14.7843C11.967 14.1996 12.2904 12.9154 11.6958 11.8922C11.122 10.9213 9.89104 10.5767 8.9626 11.1301C8.80612 11.1196 8.69137 11.2032 8.57662 11.2971C7.24134 12.3934 7.50214 14.2309 9.08778 14.9305ZM9.07735 38.2756C10.0788 38.6306 11.0072 38.3591 11.6123 37.5343C12.1235 36.8453 12.1235 35.8116 11.6123 35.1226C11.0072 34.2978 10.0788 34.0263 9.07735 34.3813C8.2428 34.7154 7.72121 35.4462 7.71077 36.3023C7.70034 37.1794 8.23237 37.9311 9.07735 38.2756ZM9.16081 27.8246C7.46041 28.0125 5.87476 29.7665 5.8539 31.437C5.8539 31.7398 5.93735 31.8338 6.23988 31.8233C6.79277 31.8025 7.34566 31.8233 7.88812 31.8129C9.23383 31.792 10.5795 31.8651 11.9148 31.7711C12.1861 31.7816 12.4677 31.8025 12.7389 31.8025C13.9073 31.8025 13.9595 31.7294 13.6361 30.5705C13.1145 28.6807 10.9342 27.3443 9.16081 27.8246ZM23.223 12.4978C21.4496 12.4978 19.6761 12.4978 17.9132 12.4978C17.5689 12.4978 17.2664 12.5604 17.1099 12.9154C16.8387 13.521 17.2038 14.0534 17.9027 14.0534C19.9161 14.0639 21.9294 14.0534 23.9532 14.0534C25.518 14.0534 27.0723 14.0534 28.6371 14.0534C29.2317 14.0534 29.5238 13.7402 29.4925 13.1869C29.4612 12.7379 29.1692 12.4978 28.6058 12.4978C26.8011 12.4978 25.0173 12.4978 23.223 12.4978ZM22.1694 19.4408C23.6194 19.4408 25.059 19.4408 26.509 19.4408C27.0619 19.4408 27.3018 19.232 27.3227 18.7622C27.3436 18.1984 27.041 17.8851 26.4047 17.8851C23.5777 17.8747 20.7506 17.8747 17.9236 17.8851C17.3811 17.8851 17.016 18.2192 17.0056 18.6891C16.9951 19.1589 17.3394 19.4512 17.934 19.4512C19.3423 19.4408 20.7611 19.4408 22.1694 19.4408Z" fill="#FEF9F7"/>
<path d="M25.6117 7.42351C25.6013 7.69497 25.57 7.97686 25.5908 8.24832C25.6221 8.59286 25.4865 8.68682 25.1527 8.68682C23.035 8.67638 20.9278 8.67638 18.8101 8.67638C15.9622 8.67638 13.1143 8.66594 10.2768 8.68682C9.83869 8.68682 9.69265 8.58242 9.74481 8.15435C9.7761 7.91422 9.74481 7.66364 9.73438 7.42351C9.74481 7.01633 9.74481 6.61958 9.74481 6.2124C9.75524 5.09526 10.3707 4.47926 11.4974 4.46882C12.238 4.45838 12.9787 4.44794 13.7298 4.44794C13.928 4.45838 14.1158 4.47926 14.314 4.47926C16.5464 4.47926 18.7788 4.47926 21.0112 4.47926C21.2407 4.47926 21.4598 4.44794 21.6893 4.4375C22.4508 4.44794 23.2019 4.45838 23.9635 4.46882C24.9545 4.47926 25.5595 5.08482 25.5804 6.06623C25.6013 6.52562 25.6013 6.97456 25.6117 7.42351Z" fill="#CD5550"/>
<path d="M21.688 4.4369C21.4585 4.44734 21.2395 4.47866 21.01 4.47866C18.7775 4.47866 16.5451 4.47866 14.3127 4.47866C14.1145 4.47866 13.9267 4.45778 13.7285 4.44734L13.7389 4.41602C16.3886 4.41602 19.0279 4.42646 21.6776 4.42646C21.688 4.42646 21.688 4.4369 21.688 4.4369Z" fill="#C7A28B"/>
<path d="M39.9863 43.1929C39.9968 42.9945 40.1324 42.8797 40.2576 42.7648C40.8626 42.2324 41.3216 41.5329 42.0414 41.1152C42.7508 41.7103 43.3663 42.4099 44.0235 43.0572C45.0354 44.049 46.0055 45.0827 47.0278 46.0536C48.1649 47.129 48.1858 48.7473 47.0904 49.6974C47.0591 49.7287 47.0383 49.7809 47.007 49.8122C46.6419 49.76 46.3289 49.5721 46.0785 49.3215C44.0548 47.2752 42.0205 45.2393 39.9863 43.1929ZM46.548 47.2752C46.5375 47.2439 46.5375 47.1708 46.5063 47.129C45.9847 46.5548 45.4422 45.991 44.8476 45.4898C44.7015 45.3646 44.5346 45.4481 44.4094 45.5734C44.2634 45.7195 44.2425 45.9075 44.3886 46.0536C44.8893 46.5861 45.39 47.1186 45.9012 47.6406C46.0055 47.7555 46.162 47.7868 46.308 47.7032C46.4437 47.6093 46.548 47.4944 46.548 47.2752Z" fill="#E8A71B"/>
<path d="M19.2257 29.3903C19.4135 28.0748 19.7473 26.7906 20.2897 25.5795C20.6027 25.047 20.9261 24.5041 21.2495 23.9717C22.9812 21.6016 25.2657 20.046 28.1449 19.4091C28.7396 19.2734 29.355 19.169 29.9705 19.1794C30.0018 19.3569 30.1479 19.336 30.2731 19.3569C32.9749 19.8372 35.1969 21.1423 36.9703 23.2513C38.243 24.7756 39.0776 26.4983 39.4009 28.4298C39.7765 30.6328 39.5992 32.8253 38.702 34.9134C37.5754 37.5027 35.7394 39.4133 33.2253 40.6766C32.2968 41.1464 31.3058 41.4388 30.2731 41.6163C30.1479 41.6371 30.0018 41.6163 29.9705 41.7938C29.063 41.7833 28.1867 41.5849 27.3208 41.3657C26.8305 41.1882 26.3298 41.0107 25.8395 40.8332C24.0139 39.9249 22.47 38.6825 21.2703 37.0328C20.9574 36.5108 20.6444 35.9888 20.3315 35.4668C19.6951 34.0364 19.2883 32.5434 19.2153 30.9669C19.2048 30.4239 19.2153 29.9124 19.2257 29.3903ZM36.7825 36.3333C36.8138 36.302 36.8556 36.2602 36.8869 36.2289L36.8764 36.2394C36.9599 36.1976 37.012 36.1454 36.9808 36.041L36.9703 36.0514C37.0538 36.0619 37.0746 36.0201 37.0746 35.947V35.9575C37.1477 35.9679 37.179 35.9157 37.179 35.8531L37.1685 35.8635C37.2415 35.8635 37.2624 35.8217 37.2728 35.7591L37.2624 35.7695C37.2937 35.7382 37.3354 35.6964 37.3667 35.6651L37.3563 35.6756C37.4293 35.6338 37.471 35.5712 37.4606 35.4772L37.4502 35.4876C37.5232 35.4876 37.5441 35.4459 37.5545 35.3832V35.3937C37.638 35.3519 37.6693 35.2893 37.6588 35.1953L37.6484 35.2057C37.7214 35.2057 37.7423 35.164 37.7527 35.1013V35.1118C37.8675 35.0387 37.9196 34.9343 37.9509 34.809V34.8194C37.9822 34.7568 38.0239 34.6837 38.0552 34.6211L38.0448 34.6315C38.1178 34.5897 38.1491 34.5167 38.1491 34.4331L38.1387 34.4436C38.2221 34.4018 38.243 34.3287 38.243 34.2452L38.2326 34.2556C38.316 34.2139 38.3265 34.1304 38.3369 34.0468V34.0573C38.4621 33.9111 38.5247 33.7441 38.5351 33.5561L38.5247 33.5666C38.629 33.4622 38.6603 33.3369 38.6499 33.1907C39.2549 31.6351 39.2549 30.0272 38.8481 28.4507C37.9718 25.0992 35.7915 22.9902 32.4324 22.1446C31.2536 21.8418 30.0331 21.7896 28.8439 22.1341C28.6665 22.1237 28.4892 22.155 28.3119 22.2072C23.8992 23.3974 21.1973 27.699 22.0527 32.1884C22.6682 35.4459 25.3596 38.2648 28.4579 38.8808C28.9065 39.0479 29.3655 39.1001 29.8349 39.1105C30.2626 39.1418 30.6799 39.1523 31.1076 39.1105C32.3594 39.0374 33.5487 38.7451 34.6231 38.056H34.6127C34.6962 38.056 34.7692 38.0247 34.8109 37.9516L34.8005 37.9621C34.8631 37.9516 34.9048 37.9307 34.9048 37.8576L34.8944 37.8681C34.9883 37.8785 35.0509 37.8576 35.0926 37.7637H35.0821C35.1447 37.7532 35.1969 37.7428 35.1865 37.6593H35.176C35.2699 37.6802 35.3429 37.6488 35.3742 37.5549H35.3638C35.4264 37.5444 35.4681 37.5236 35.4681 37.4505L35.4577 37.4609C35.5516 37.4818 35.6142 37.44 35.6559 37.3565L35.6455 37.3669C35.6768 37.3356 35.7185 37.2939 35.7498 37.2625V37.273C35.8645 37.2521 35.948 37.2103 35.948 37.0746H35.9376C36.0106 37.085 36.0523 37.0537 36.0419 36.9702L36.0315 36.9806C36.1358 37.012 36.1879 36.9598 36.2297 36.8762H36.2192C36.2505 36.8449 36.2922 36.8032 36.3235 36.7718L36.3131 36.7823C36.3444 36.7509 36.3861 36.7092 36.4174 36.6779L36.407 36.6883C36.4383 36.657 36.48 36.6152 36.5113 36.5839L36.5009 36.5943C36.5322 36.563 36.5739 36.5213 36.6052 36.4899L36.5948 36.5004C36.72 36.396 36.7617 36.3646 36.7825 36.3333Z" fill="#F9B536"/>
<path d="M30.9414 19.1691C31.2022 19.1586 31.463 19.1273 31.7134 19.2422C31.4526 19.2109 31.1813 19.3048 30.9414 19.1691Z" fill="#F9B536"/>
<path d="M31.7036 41.7097C31.4532 41.8246 31.1924 41.7933 30.9316 41.7828C31.182 41.6367 31.4532 41.7202 31.7036 41.7097Z" fill="#F9B536"/>
<path d="M23.2219 12.4971C25.0057 12.4971 26.8 12.4971 28.5839 12.4971C29.1472 12.4971 29.4393 12.7372 29.4706 13.1861C29.5123 13.7395 29.2202 14.0527 28.6152 14.0527C27.0504 14.0632 25.496 14.0527 23.9312 14.0527C21.9179 14.0527 19.9045 14.0527 17.8808 14.0527C17.1818 14.0527 16.8167 13.5098 17.0879 12.9147C17.2444 12.5597 17.5469 12.4971 17.8912 12.4971C19.675 12.5075 21.4485 12.4971 23.2219 12.4971Z" fill="#A0A3F1"/>
<path d="M11.9129 43.4951C10.4525 43.5786 8.992 43.516 7.53153 43.5264C7.07253 43.5368 6.62396 43.516 6.16496 43.5264C5.93546 43.5368 5.86243 43.4638 5.852 43.2236C5.82071 41.5531 7.46894 39.7051 9.15891 39.5381C9.1902 39.5694 9.23193 39.6112 9.27366 39.6321C11.0471 40.3002 11.9129 41.6053 11.9129 43.4951ZM8.10529 41.9185C8.12615 41.6471 8.0427 41.407 7.69844 41.4174C7.38549 41.4278 7.3229 41.6575 7.3229 41.929C7.3229 42.2004 7.35419 42.4719 7.70888 42.4719C8.0427 42.4719 8.12615 42.2318 8.10529 41.9185Z" fill="#F9B536"/>
<path d="M11.9144 31.7815C10.5687 31.8755 9.23344 31.8024 7.88773 31.8233C7.33484 31.8337 6.78195 31.8128 6.2395 31.8337C5.93697 31.8441 5.85352 31.7397 5.85352 31.4474C5.87438 29.7769 7.46002 28.0229 9.16042 27.835C9.22301 27.9498 9.35863 27.9394 9.45251 27.9916C10.0576 28.263 10.6209 28.6076 11.0382 29.14C11.6641 29.9126 11.9562 30.7896 11.9144 31.7815ZM8.1068 30.2781C8.11723 30.017 8.08594 29.7769 7.74169 29.7874C7.39743 29.7978 7.32441 30.0275 7.32441 30.3198C7.32441 30.6122 7.387 30.8627 7.73125 30.8523C8.06507 30.8314 8.12767 30.5704 8.1068 30.2781Z" fill="#A0A3F1"/>
<path d="M11.9139 20.0566C9.98401 20.0671 8.05411 20.0775 6.12422 20.088C5.71737 20.088 5.86342 19.7747 5.88428 19.5973C6.14508 17.9894 7.03179 16.8723 8.56528 16.3085C8.79478 16.2249 9.01385 16.131 9.26421 16.1414C9.28508 16.2876 9.38939 16.3294 9.49371 16.3711C11.1315 17.0602 11.8826 18.3235 11.9139 20.0566ZM8.10627 18.595C8.1167 18.3131 8.08541 18.0521 7.72029 18.0625C7.39691 18.0729 7.33431 18.2922 7.33431 18.5636C7.33431 18.8351 7.36561 19.117 7.70986 19.1274C8.03325 19.1379 8.12714 18.8977 8.10627 18.595Z" fill="#62C258"/>
<path d="M25.8305 40.8125C26.3208 40.99 26.8215 41.1675 27.3118 41.345C27.3535 42.222 27.1449 42.4621 26.2686 42.4621C23.5563 42.4726 20.844 42.4726 18.1422 42.4621C17.7562 42.4621 17.3493 42.4517 17.1198 42.0445C16.7964 41.4494 17.2033 40.8543 17.9544 40.8438C19.3523 40.8334 20.7501 40.8438 22.1376 40.8438C23.3581 40.8334 24.5995 40.8229 25.8305 40.8125Z" fill="#A0A3F1"/>
<path d="M22.1679 19.4408C20.7596 19.4408 19.3409 19.4408 17.9326 19.4408C17.338 19.4408 16.9937 19.1589 17.0041 18.6787C17.0146 18.2089 17.3797 17.8852 17.9221 17.8748C20.7492 17.8748 23.5762 17.8643 26.4033 17.8748C27.0396 17.8748 27.3421 18.188 27.3213 18.7518C27.3004 19.2216 27.0605 19.4304 26.5076 19.4304C25.0575 19.4408 23.6179 19.4408 22.1679 19.4408Z" fill="#A0A3F1"/>
<path d="M9.07617 34.3811C10.0776 34.0261 11.0061 34.2976 11.6111 35.1224C12.1223 35.8114 12.1223 36.8451 11.6111 37.5341C11.0061 38.359 10.0776 38.6304 9.07617 38.2754C9.07617 38.0875 9.24308 38.0562 9.3474 37.9622C10.255 37.1478 10.3906 36.1455 9.74381 35.1224C9.55604 34.8405 9.22222 34.6943 9.07617 34.3811Z" fill="#C7A28B"/>
<path d="M8.96094 11.1296C9.88937 10.5762 11.1203 10.9207 11.6941 11.8917C12.2991 12.9149 11.9653 14.1991 10.9639 14.7838C10.3588 15.1387 9.7329 15.1387 9.08612 14.9299C9.09655 14.7107 9.30519 14.6689 9.43037 14.5541C10.557 13.4787 10.3379 11.8604 8.96094 11.1296Z" fill="#C7A28B"/>
<path d="M8.96094 22.8444C9.69117 22.4163 10.4944 22.4894 11.2247 23.0532C11.861 23.5439 12.1427 24.4418 11.9027 25.2979C11.6941 26.0392 10.9639 26.6865 10.2336 26.7596C9.84765 26.7909 9.45124 26.8118 9.08612 26.6448C9.09655 26.4255 9.30519 26.3837 9.43037 26.2689C10.557 25.1935 10.3379 23.5752 8.96094 22.8444Z" fill="#C7A28B"/>
<path d="M11.9142 43.4959C11.9142 41.6061 11.0588 40.3115 9.27491 39.6329C9.23318 39.612 9.20188 39.5702 9.16016 39.5389C10.9544 39.0586 13.0721 40.3533 13.6459 42.3057C13.7085 42.5249 13.7815 42.7442 13.7606 42.9739C13.7606 43.1409 13.7606 43.308 13.7502 43.475C13.1347 43.5794 12.5192 43.5481 11.9142 43.4959Z" fill="#CD9830"/>
<path d="M11.9142 31.7809C11.9455 30.789 11.6534 29.9016 11.0379 29.129C10.6102 28.5965 10.0573 28.252 9.45225 27.9805C9.34793 27.9387 9.22275 27.9387 9.16016 27.8239C10.9336 27.3436 13.1138 28.68 13.6459 30.5907C13.9693 31.7496 13.9067 31.8226 12.7487 31.8226C12.4671 31.8122 12.1958 31.7913 11.9142 31.7809Z" fill="#8688C3"/>
<path d="M11.9147 20.056C11.8834 18.3229 11.1323 17.0595 9.50489 16.3705C9.39014 16.3287 9.28582 16.2869 9.27539 16.1408C11.7269 15.8693 13.7715 17.5711 13.782 19.8889C13.782 19.9307 13.7715 19.9725 13.7715 20.0142C13.1456 20.1708 12.5301 20.0978 11.9147 20.056Z" fill="#559F4E"/>
<path d="M8.96159 11.1299C10.3386 11.8607 10.5577 13.479 9.43103 14.5544C9.30584 14.6693 9.09721 14.711 9.08677 14.9303C7.50113 14.2308 7.24033 12.3932 8.57561 11.2969C8.69036 11.1925 8.80511 11.1195 8.96159 11.1299Z" fill="#F7C5A5"/>
<path d="M8.96159 22.8437C10.3386 23.5745 10.5577 25.1928 9.43103 26.2682C9.30584 26.383 9.09721 26.4248 9.08677 26.644C7.50113 25.9445 7.24033 24.107 8.57561 23.0003C8.69036 22.9167 8.80511 22.8332 8.96159 22.8437Z" fill="#F7C5A5"/>
<path d="M9.07571 34.3809C9.22176 34.6941 9.55558 34.8402 9.74335 35.1221C10.3901 36.1349 10.2545 37.1372 9.34694 37.962C9.24262 38.0559 9.06528 38.0873 9.07571 38.2752C8.2203 37.9307 7.69871 37.1789 7.70914 36.3019C7.71957 35.4458 8.24116 34.715 9.07571 34.3809Z" fill="#F7C5A5"/>
<path d="M21.2399 23.9607C20.9165 24.4931 20.6035 25.0361 20.2801 25.5685C19.4977 25.5685 18.7258 25.579 17.9434 25.5685C17.2132 25.5476 16.8376 25.0569 17.0671 24.4723C17.1714 24.2113 17.3488 24.0651 17.6409 24.0129C18.2876 23.898 18.9344 23.9711 19.5812 23.9607C20.1341 23.9398 20.687 23.9607 21.2399 23.9607Z" fill="#A0A3F1"/>
<path d="M20.3215 35.4453C20.6344 35.9673 20.9474 36.4894 21.2604 37.0114C20.1441 37.0114 19.0279 37.0218 17.9013 37.0114C17.338 37.0114 17.0146 36.7295 17.0041 36.2806C16.9937 35.7899 17.3275 35.4662 17.8909 35.4558C18.7045 35.4453 19.5078 35.4453 20.3215 35.4453Z" fill="#A0A3F1"/>
<path d="M19.2259 29.3904C19.2155 29.9124 19.2155 30.4344 19.205 30.946C18.746 30.946 18.2975 30.9565 17.8385 30.946C17.3377 30.9251 17.0039 30.6015 17.0039 30.1734C17.0039 29.6932 17.3169 29.4008 17.8593 29.3904C18.3079 29.3799 18.7669 29.3904 19.2259 29.3904Z" fill="#A0A3F1"/>
<path d="M13.75 43.4748C13.75 43.3077 13.75 43.1407 13.7604 42.9736C13.823 43.1407 13.896 43.3077 13.75 43.4748Z" fill="#F9B536"/>
<path d="M13.7598 20.0149C13.7598 19.9732 13.7702 19.9314 13.7702 19.8896C13.8119 19.9419 13.8328 19.9836 13.7598 20.0149Z" fill="#62C258"/>
<path d="M46.5472 47.2751C46.5472 47.4943 46.4429 47.6091 46.2968 47.7031C46.1508 47.7866 46.0047 47.7553 45.89 47.6405C45.3788 47.1184 44.8781 46.586 44.3773 46.0535C44.2313 45.8969 44.2626 45.7194 44.3982 45.5732C44.5234 45.4479 44.6903 45.3644 44.8363 45.4897C45.431 45.9909 45.9734 46.5547 46.495 47.1289C46.5472 47.1602 46.5367 47.2437 46.5472 47.2751Z" fill="#FEF9F7"/>
<path d="M28.4788 38.8181C25.3806 38.2021 22.6891 35.3831 22.0737 32.1256C21.2182 27.6466 23.9201 23.3346 28.3328 22.1444C28.5101 22.0922 28.677 22.0609 28.8648 22.0713C29.2091 22.3324 29.6368 22.3846 30.0228 22.562C32.0257 23.4391 33.507 24.8277 34.3624 26.8636C34.0286 26.874 33.7887 27.0619 33.5696 27.2812C32.0361 28.8264 30.4818 30.3612 28.9587 31.9168C28.7292 32.1465 28.5936 32.157 28.3849 31.9168C28.0616 31.5514 27.7069 31.2173 27.3522 30.8832C26.9245 30.476 26.4863 30.4656 26.1525 30.8206C25.8396 31.1547 25.8709 31.5827 26.2568 31.9795C26.7784 32.5119 27.3105 33.0444 27.8425 33.5664C28.5414 34.266 28.7814 34.2555 29.4803 33.556C31.2641 31.7811 33.048 30.0062 34.8423 28.2208C35.27 29.5155 35.2387 30.831 34.9779 32.1465C34.5919 34.1302 33.5487 35.7485 32.0152 37.0431C31.0555 37.8575 29.9706 38.4631 28.6979 38.6719C28.5936 38.6719 28.5101 38.7136 28.4788 38.8181Z" fill="#FEFEFD"/>
<path d="M34.3525 26.8528C33.4971 24.8169 32.0158 23.4283 30.0129 22.5513C29.6269 22.3842 29.1992 22.332 28.8549 22.0606C30.0546 21.716 31.2647 21.7787 32.4435 22.071C35.7921 22.9167 37.9724 25.0257 38.8591 28.3771C39.2764 29.9537 39.266 31.5615 38.6609 33.1172C38.4627 33.1902 38.567 33.3677 38.5357 33.493L38.5462 33.4826C38.3167 33.587 38.3479 33.7853 38.3479 33.9837V33.9733C38.2541 34.0046 38.2541 34.0986 38.2436 34.1821L38.2541 34.1717C38.1602 34.203 38.1497 34.2865 38.1497 34.37L38.1602 34.3596C38.0663 34.3909 38.0559 34.4744 38.0559 34.558L38.0663 34.5475C37.9724 34.5788 37.9724 34.6624 37.962 34.7459V34.7354C37.7638 34.7459 37.7638 34.8921 37.7638 35.0382V35.0278C37.7325 35.0591 37.6907 35.1009 37.6594 35.1322L37.6699 35.1217C37.576 35.1635 37.5656 35.2366 37.5656 35.3201V35.3097C37.5343 35.341 37.4925 35.3828 37.4612 35.4141L37.4717 35.4036C37.3778 35.435 37.3674 35.5185 37.3674 35.602L37.3778 35.5916C37.3465 35.6229 37.3048 35.6647 37.2735 35.696L37.2839 35.6855C37.2526 35.7169 37.2109 35.7586 37.1796 35.7899L37.19 35.7795C37.1587 35.8108 37.117 35.8526 37.0857 35.8839V35.8735C37.0544 35.9048 37.0127 35.9466 36.9814 35.9779L36.9918 35.9674C36.8979 36.0092 36.8875 36.0823 36.8875 36.1658L36.8979 36.1554C36.8666 36.1867 36.8249 36.2284 36.7936 36.2598L36.804 36.2493C36.7727 36.2807 36.731 36.3224 36.6997 36.3537L36.7101 36.3433C36.6788 36.3746 36.6371 36.4164 36.6058 36.4477L36.6163 36.4373C36.585 36.4686 36.5432 36.5103 36.5119 36.5417L36.5224 36.5312C36.4911 36.5625 36.4493 36.6043 36.4181 36.6356L36.4285 36.6252C36.3972 36.6565 36.3555 36.6983 36.3242 36.7296H36.3346C36.2511 36.7296 36.1677 36.74 36.1364 36.834L36.1468 36.8236C36.1155 36.8549 36.0738 36.8966 36.0425 36.928H36.0529C35.9278 36.928 35.8547 36.9906 35.8547 37.1263V37.1159C35.8234 37.1472 35.7817 37.189 35.7504 37.2203L35.7608 37.2099C35.6774 37.2099 35.5939 37.2203 35.5626 37.3143L35.5731 37.3038C35.5418 37.3352 35.5 37.3769 35.4688 37.4082H35.4792C35.3957 37.4082 35.3123 37.4187 35.281 37.5126H35.2914C35.2601 37.544 35.2184 37.5857 35.1871 37.617H35.1975C35.1141 37.617 35.0306 37.6275 34.9993 37.7215L35.0097 37.711C34.9785 37.7423 34.9367 37.7841 34.9054 37.8154L34.9159 37.805C34.8324 37.805 34.749 37.805 34.7177 37.9094H34.7281C34.6238 37.9303 34.4986 37.9303 34.4047 37.9825C33.6327 38.3688 32.8086 38.5776 31.9741 38.7655C31.7237 38.8177 31.4003 38.6715 31.2125 38.9743C30.7848 39.0161 30.3676 39.0056 29.9399 38.9743C29.8668 38.7133 29.6582 38.8177 29.4913 38.8073C29.2305 38.7864 28.9801 38.7968 28.7715 38.6089C30.0442 38.4001 31.1291 37.7945 32.0888 36.9802C33.6223 35.6855 34.6551 34.0672 35.0515 32.0835C35.3123 30.768 35.3436 29.4525 34.9159 28.1579C35.2184 27.5732 35.0619 27.1451 34.3525 26.8528Z" fill="#CCCBCB"/>
<path d="M31.1289 39.0474C31.3167 38.7446 31.6296 38.9012 31.8904 38.8386C32.725 38.6611 33.5491 38.4522 34.3211 38.0555C34.4149 38.0033 34.5401 38.0033 34.6444 37.9824C33.57 38.6715 32.3807 38.9638 31.1289 39.0474Z" fill="#FEF9F7"/>
<path d="M28.6891 38.6719C28.8977 38.8598 29.1585 38.8598 29.4089 38.8702C29.5654 38.8807 29.7845 38.7867 29.8575 39.0373C29.388 39.0164 28.9186 38.9746 28.4805 38.8076C28.5118 38.7136 28.5952 38.6719 28.6891 38.6719Z" fill="#FEF9F7"/>
<path d="M38.3491 33.9943C38.3491 33.8064 38.3178 33.5976 38.5473 33.4932C38.5369 33.6811 38.4638 33.8481 38.3491 33.9943Z" fill="#FEF9F7"/>
<path d="M38.5471 33.5038C38.5784 33.3785 38.4741 33.201 38.6723 33.1279C38.6827 33.2741 38.6515 33.3994 38.5471 33.5038Z" fill="#FEF9F7"/>
<path d="M37.7637 35.0704C37.7637 34.9242 37.7637 34.778 37.9619 34.7676C37.9306 34.8929 37.8784 34.9973 37.7637 35.0704Z" fill="#FEF9F7"/>
<path d="M35.8125 37.2208C35.8125 37.0851 35.8855 37.0225 36.0107 37.0225C36.0107 37.1477 35.9168 37.1895 35.8125 37.2208Z" fill="#FEF9F7"/>
<path d="M34.6348 37.9931C34.6661 37.8887 34.7495 37.8887 34.833 37.8887C34.7912 37.9722 34.7287 37.9931 34.6348 37.9931Z" fill="#FEF9F7"/>
<path d="M37.3672 35.6544C37.3672 35.5709 37.3776 35.4874 37.4715 35.4561C37.4924 35.5396 37.4506 35.6022 37.3672 35.6544Z" fill="#FEF9F7"/>
<path d="M37.9512 34.7667C37.9616 34.6832 37.9616 34.5997 38.0555 34.5684C38.0242 34.6414 37.9929 34.7041 37.9512 34.7667Z" fill="#FEF9F7"/>
<path d="M38.0566 34.5792C38.0566 34.4957 38.0671 34.4122 38.161 34.3809C38.161 34.4644 38.1297 34.527 38.0566 34.5792Z" fill="#FEF9F7"/>
<path d="M38.1504 34.381C38.1504 34.2975 38.1504 34.2139 38.2547 34.1826C38.2547 34.2661 38.2338 34.3392 38.1504 34.381Z" fill="#FEF9F7"/>
<path d="M36.8887 36.2394C36.8887 36.1559 36.8991 36.0723 36.993 36.041C37.0243 36.135 36.9617 36.1976 36.8887 36.2394Z" fill="#FEF9F7"/>
<path d="M36.1055 36.9179C36.1472 36.8239 36.2202 36.8135 36.3037 36.8135C36.2619 36.897 36.2098 36.9596 36.1055 36.9179Z" fill="#FEF9F7"/>
<path d="M35.5215 37.4091C35.5528 37.3151 35.6362 37.3047 35.7197 37.3047C35.678 37.3882 35.6154 37.43 35.5215 37.4091Z" fill="#FEF9F7"/>
<path d="M38.2539 34.1824C38.2539 34.0989 38.2539 34.0154 38.3582 33.9736C38.3478 34.0676 38.3269 34.1407 38.2539 34.1824Z" fill="#FEF9F7"/>
<path d="M37.5664 35.3624C37.5664 35.2789 37.5768 35.1954 37.6707 35.1641C37.6916 35.2476 37.6499 35.3207 37.5664 35.3624Z" fill="#FEF9F7"/>
<path d="M35.2285 37.6073C35.2702 37.5134 35.3433 37.5029 35.4267 37.5029C35.385 37.5969 35.3224 37.6282 35.2285 37.6073Z" fill="#FEF9F7"/>
<path d="M34.9375 37.8056C34.9792 37.7116 35.0522 37.7012 35.1357 37.7012C35.094 37.7847 35.021 37.816 34.9375 37.8056Z" fill="#FEF9F7"/>
<path d="M37.1797 35.8427C37.211 35.8114 37.2527 35.7696 37.284 35.7383C37.2736 35.8009 37.2423 35.8427 37.1797 35.8427Z" fill="#FEF9F7"/>
<path d="M37.0762 35.9472C37.1075 35.9159 37.1492 35.8741 37.1805 35.8428C37.1805 35.9054 37.1596 35.9472 37.0762 35.9472Z" fill="#FEF9F7"/>
<path d="M36.0117 37.0224C36.043 36.9911 36.0847 36.9493 36.116 36.918C36.1265 37.0015 36.0847 37.0224 36.0117 37.0224Z" fill="#FEF9F7"/>
<path d="M37.6699 35.164C37.7012 35.1327 37.7429 35.0909 37.7742 35.0596C37.7638 35.1222 37.7429 35.164 37.6699 35.164Z" fill="#FEF9F7"/>
<path d="M36.293 36.8241C36.3243 36.7928 36.366 36.751 36.3973 36.7197C36.366 36.751 36.3347 36.7928 36.293 36.8241Z" fill="#FEF9F7"/>
<path d="M36.3984 36.7304C36.4297 36.6991 36.4715 36.6573 36.5028 36.626C36.461 36.6573 36.4297 36.6886 36.3984 36.7304Z" fill="#FEF9F7"/>
<path d="M34.832 37.8993C34.8633 37.868 34.9051 37.8262 34.9364 37.7949C34.9364 37.868 34.8946 37.8889 34.832 37.8993Z" fill="#FEF9F7"/>
<path d="M35.125 37.7011C35.1563 37.6698 35.198 37.628 35.2293 37.5967C35.2398 37.6802 35.1876 37.6906 35.125 37.7011Z" fill="#FEF9F7"/>
<path d="M35.709 37.3144C35.7403 37.283 35.782 37.2413 35.8133 37.21C35.782 37.2413 35.7507 37.2726 35.709 37.3144Z" fill="#FEF9F7"/>
<path d="M36.4922 36.6259C36.5235 36.5946 36.5652 36.5528 36.5965 36.5215C36.5652 36.5632 36.5339 36.5946 36.4922 36.6259Z" fill="#FEF9F7"/>
<path d="M37.4727 35.456C37.504 35.4246 37.5457 35.3829 37.577 35.3516C37.5665 35.4142 37.5457 35.456 37.4727 35.456Z" fill="#FEF9F7"/>
<path d="M36.5957 36.5312C36.627 36.4998 36.6687 36.4581 36.7 36.4268C36.6583 36.4581 36.627 36.4998 36.5957 36.5312Z" fill="#FEF9F7"/>
<path d="M36.6895 36.4374C36.7207 36.4061 36.7625 36.3643 36.7938 36.333C36.7625 36.3643 36.7207 36.3957 36.6895 36.4374Z" fill="#FEF9F7"/>
<path d="M36.7832 36.3329C36.8145 36.3016 36.8562 36.2598 36.8875 36.2285C36.8562 36.2703 36.8249 36.3016 36.7832 36.3329Z" fill="#FEF9F7"/>
<path d="M36.9824 36.0409C37.0137 36.0096 37.0554 35.9678 37.0867 35.9365C37.0867 36.0096 37.0659 36.0514 36.9824 36.0409Z" fill="#FEF9F7"/>
<path d="M35.416 37.5126C35.4473 37.4813 35.489 37.4395 35.5203 37.4082C35.5308 37.4813 35.4786 37.5022 35.416 37.5126Z" fill="#FEF9F7"/>
<path d="M8.10661 41.9194C8.11704 42.2327 8.04402 42.4728 7.7102 42.4728C7.35551 42.4728 7.32422 42.2013 7.32422 41.9299C7.32422 41.6584 7.38681 41.4287 7.69977 41.4183C8.04402 41.4079 8.12747 41.648 8.10661 41.9194Z" fill="#FEF9F7"/>
<path d="M8.10661 30.2775C8.12747 30.5699 8.06488 30.8309 7.73106 30.8413C7.38681 30.8517 7.32422 30.6012 7.32422 30.3088C7.32422 30.0165 7.39724 29.7868 7.74149 29.7764C8.08575 29.7764 8.11704 30.0165 8.10661 30.2775Z" fill="#FEF9F7"/>
<path d="M8.10661 18.595C8.12747 18.8873 8.02315 19.1274 7.69977 19.1274C7.35551 19.117 7.32422 18.8455 7.32422 18.5636C7.32422 18.2922 7.39724 18.0729 7.7102 18.0625C8.08575 18.0625 8.11704 18.3131 8.10661 18.595Z" fill="#FEF9F7"/>
<path d="M34.352 26.8535C35.0614 27.1354 35.2178 27.5635 34.8319 28.2108C33.048 29.9857 31.2537 31.7606 29.4699 33.5355C28.7605 34.235 28.5206 34.235 27.8321 33.5459C27.3 33.0135 26.768 32.4914 26.2464 31.959C25.8604 31.5622 25.8291 31.1342 26.1421 30.8001C26.4759 30.4451 26.9141 30.466 27.3418 30.8627C27.6964 31.1968 28.0511 31.5413 28.3745 31.8963C28.5936 32.1365 28.7292 32.126 28.9483 31.8963C30.4818 30.3407 32.0257 28.8059 33.5592 27.2607C33.7782 27.0519 34.0182 26.864 34.352 26.8535Z" fill="#FA695B"/>
</g>
<defs>
<clipPath id="clip0_4838_26619">
<rect width="50" height="50" fill="white"/>
</clipPath>
</defs>
</svg>
