<svg width="50" height="50" viewBox="0 0 50 50" fill="none" xmlns="http://www.w3.org/2000/svg">
<path d="M37.1522 33.4376C37.1494 37.4026 37.1274 41.3676 37.1549 45.3326C37.1645 46.6843 36.3643 47.9131 34.6154 47.9049C24.8642 47.8557 15.1117 47.8858 5.3606 47.8667C4.94674 47.8653 4.53425 48.1561 4.12039 47.8844C4.02415 47.8175 3.9334 47.7397 3.8289 47.6864C2.98468 47.2522 2.58045 46.5423 2.58045 45.6234C2.57495 31.8729 2.57632 18.1225 2.57632 4.37208C2.57632 4.16864 2.6052 3.97203 2.65195 3.76996C2.84031 2.94665 3.43842 2.49472 4.12039 2.10969C4.24276 1.96906 4.40913 1.98544 4.548 2.03869C4.81612 2.13973 5.08836 2.11242 5.35922 2.11242C13.5594 2.11379 21.7596 2.11379 29.9584 2.11379C30.1977 2.11379 30.4383 2.11925 30.6775 2.12198C30.672 4.09628 30.6775 6.07057 30.65 8.0435C30.6445 8.4613 30.7848 8.55551 31.178 8.55141C33.1318 8.53503 35.0856 8.54595 37.0394 8.54732C37.2113 8.69477 37.1412 8.89275 37.1425 9.07024C37.148 10.5025 37.1453 11.9347 37.1439 13.367C37.0972 13.3875 37.0518 13.4189 37.0037 13.4271C32.7757 14.1275 29.7013 17.7566 29.4923 21.7257C29.4662 22.2186 29.5748 22.3278 30.0519 22.3251C32.4168 22.31 34.7804 22.3292 37.1453 22.336C37.1453 23.1374 37.1467 23.9389 37.1467 24.7417C36.9597 24.7513 36.7713 24.7704 36.5843 24.7704C34.7501 24.7731 32.9159 24.7854 31.0831 24.7608C30.6418 24.7554 30.5235 24.8906 30.5593 25.3083C30.6679 26.559 30.9745 27.751 31.5589 28.8664C32.7661 31.1794 34.6786 32.6471 37.1522 33.4376ZM28.2906 9.79661C27.7819 9.75975 27.3556 9.95772 26.9899 10.2827C26.1636 11.0159 26.1924 11.9006 26.5527 12.8386C25.2011 14.7788 23.8495 16.7189 22.4993 18.6577C22.1611 18.6373 21.86 18.4106 21.5052 18.4789C20.9374 18.3888 20.5263 18.7397 20.0753 18.98C18.9712 18.259 17.8658 17.5368 16.7617 16.8159C16.4496 15.4505 15.868 14.8989 14.7171 14.873C14.0241 14.8197 13.5099 15.1365 13.1016 15.6567C12.6781 16.1946 12.7097 16.8186 12.7839 17.4467C11.4365 18.7833 10.0877 20.12 8.74022 21.4567C8.46935 21.413 8.21086 21.2792 7.92487 21.3365C6.83866 21.327 5.97795 22.168 5.96695 23.2508C5.95457 24.4004 6.77817 25.2524 7.9235 25.2769C9.14445 25.3165 10.3338 24.0918 9.81955 22.5708C11.1478 21.2574 12.476 19.9453 13.8042 18.6318C14.1094 18.685 14.3913 18.8803 14.7212 18.7792C15.2863 18.8325 15.7305 18.5663 16.1553 18.2481C17.2745 18.9813 18.3937 19.7145 19.5116 20.4477C19.4689 21.5714 20.5332 22.4916 21.5025 22.4179C22.1418 22.4179 22.6533 22.1571 23.0686 21.6792C23.5278 21.1509 23.5168 20.5283 23.4632 19.8934C24.9014 17.844 26.3382 15.7946 27.7764 13.7452C27.9482 13.7425 28.1187 13.7411 28.2906 13.7384C29.4318 13.7152 30.2595 12.9001 30.2678 11.7941C30.276 10.6541 29.4538 9.82528 28.2906 9.79661ZM18.8818 29.033C15.4527 29.033 12.0236 29.033 8.59447 29.0344C8.42398 29.0344 8.25074 29.0317 8.08162 29.0549C7.68013 29.1068 7.46152 29.3662 7.45739 29.7457C7.45327 30.1253 7.67188 30.3847 8.06924 30.4503C8.22049 30.4748 8.37586 30.4762 8.52985 30.4762C15.3881 30.4776 22.2463 30.4776 29.1046 30.4748C29.3081 30.4748 29.5212 30.4707 29.7137 30.4134C30.0505 30.3137 30.2045 30.0502 30.1867 29.7102C30.1702 29.3907 29.9997 29.1559 29.6793 29.0822C29.4827 29.0371 29.2709 29.0371 29.0675 29.0371C25.6713 29.0317 22.2766 29.033 18.8818 29.033ZM18.831 38.5536C22.2422 38.5536 25.6548 38.5536 29.0661 38.5536C29.8402 38.5536 30.1963 38.3215 30.1922 37.8204C30.1894 37.3275 29.8443 37.1145 29.0496 37.1145C22.2257 37.1145 15.4018 37.1145 8.57797 37.1145C8.42398 37.1145 8.26861 37.1118 8.11599 37.1255C7.71313 37.1623 7.48214 37.404 7.45877 37.7863C7.43402 38.1986 7.66913 38.4594 8.08162 38.5304C8.24799 38.5591 8.42261 38.5522 8.59447 38.5536C12.0085 38.5536 15.4197 38.5536 18.831 38.5536ZM18.8158 42.5759C22.245 42.5759 25.6727 42.5759 29.1018 42.5759C29.2558 42.5759 29.4126 42.5868 29.5638 42.565C29.9309 42.5104 30.1509 42.2947 30.1784 41.9233C30.2087 41.526 30.0038 41.272 29.6271 41.1737C29.4648 41.1314 29.2874 41.1464 29.1156 41.1464C22.2587 41.145 15.4018 41.145 8.5436 41.1464C8.38961 41.1464 8.23149 41.1314 8.08162 41.1601C7.67326 41.2379 7.43539 41.4959 7.46152 41.9083C7.48489 42.2906 7.71726 42.5309 8.11737 42.5691C8.26999 42.5841 8.42536 42.5759 8.57935 42.5759C11.9933 42.5773 15.4046 42.5759 18.8158 42.5759ZM18.8172 34.5012C22.2463 34.5012 25.6741 34.5012 29.1032 34.5012C29.2572 34.5012 29.4139 34.5149 29.5652 34.4903C29.9296 34.433 30.1537 34.2173 30.1798 33.8445C30.2073 33.4486 30.0052 33.1919 29.6257 33.0963C29.4634 33.0553 29.2847 33.0717 29.1142 33.0717C22.2573 33.0704 15.4005 33.0704 8.5436 33.0717C8.37311 33.0717 8.19574 33.0567 8.03212 33.0936C7.67326 33.1741 7.46014 33.4172 7.46152 33.7817C7.46289 34.1681 7.68013 34.4193 8.07062 34.489C8.22049 34.5163 8.37861 34.5012 8.5326 34.5012C11.9603 34.5012 15.3895 34.5012 18.8172 34.5012Z" fill="#F4F4F3"/>
<path d="M4.11808 2.10938C3.43473 2.49304 2.838 2.94497 2.64964 3.76964C2.60289 3.97171 2.57401 4.16696 2.57401 4.37176C2.57401 18.1222 2.57264 31.8726 2.57814 45.6231C2.57814 46.542 2.98237 47.2519 3.82659 47.6861C3.92971 47.7394 4.02046 47.8172 4.11808 47.8841C3.46636 47.8827 2.816 47.8855 2.16428 47.8814C0.979073 47.8745 0.052358 46.9816 0.00285989 45.8019C-0.0026399 45.6831 0.00148494 45.5644 0.00148494 45.4442C0.00148494 31.7784 0.00148494 18.114 0.00148494 4.44822C0.00148494 2.97637 0.875952 2.11347 2.36915 2.11211C2.95212 2.11074 3.5351 2.11074 4.11808 2.10938Z" fill="#E5E5E5"/>
<path d="M37.151 33.4381C34.6789 32.6476 32.7663 31.1798 31.5563 28.8669C30.972 27.7514 30.6654 26.5595 30.5568 25.3088C30.521 24.891 30.6393 24.7558 31.0806 24.7613C32.9134 24.7859 34.7476 24.7722 36.5818 24.7709C36.7688 24.7709 36.9571 24.7531 37.1441 24.7422C37.8289 24.7517 38.5136 24.7777 39.1983 24.7627C39.5187 24.7558 39.7387 24.8623 39.96 25.0849C41.8547 26.9814 43.7521 28.8737 45.6702 30.747C45.9796 31.0501 45.9878 31.2071 45.6523 31.4843C43.2448 33.4763 40.5265 34.1849 37.4549 33.4913C37.3545 33.4695 37.2514 33.4558 37.151 33.4381Z" fill="#FEDE41"/>
<path d="M40.9352 17.8124C40.9352 16.4347 40.9435 15.0557 40.9297 13.6781C40.927 13.3613 41.0191 13.2753 41.3436 13.2971C45.7091 13.6057 49.0309 16.4538 49.8339 20.7151C50.3756 23.5837 49.5768 26.1287 47.6519 28.3324C47.4126 28.6054 47.2669 28.6014 47.0111 28.3447C45.0835 26.41 43.1434 24.4862 41.1979 22.5692C40.9957 22.3699 40.9284 22.1665 40.9311 21.8948C40.9407 20.5349 40.9352 19.1736 40.9352 17.8124Z" fill="#52CB7B"/>
<path d="M37.1429 22.336C34.778 22.3291 32.4145 22.31 30.0495 22.325C29.5724 22.3278 29.4638 22.2185 29.4899 21.7256C29.6989 17.7566 32.7747 14.1275 37.0013 13.427C37.0508 13.4189 37.0948 13.3874 37.1415 13.367C37.3464 13.3574 37.5513 13.3519 37.7561 13.3356C38.5563 13.2741 38.5563 13.2741 38.5563 14.0483C38.5563 16.5796 38.5577 19.1124 38.555 21.6437C38.5536 22.4001 38.6375 22.3032 37.8592 22.3127C37.62 22.3182 37.3808 22.3291 37.1429 22.336Z" fill="#FE5B5B"/>
<path d="M37.038 8.54838C35.0842 8.54702 33.1304 8.5361 31.1766 8.55248C30.782 8.55521 30.6431 8.461 30.6486 8.04457C30.6761 6.07027 30.6706 4.09734 30.6761 2.12305C32.755 4.17653 34.8339 6.23002 36.9129 8.28214C36.9885 8.35587 37.0407 8.43916 37.038 8.54838Z" fill="#BFBFBF"/>
<path d="M18.881 29.0326C22.2757 29.0326 25.6705 29.0313 29.0652 29.034C29.2701 29.034 29.4804 29.0326 29.6771 29.079C29.9974 29.1528 30.1679 29.389 30.1844 29.7071C30.2023 30.0471 30.0483 30.3119 29.7114 30.4103C29.5189 30.4676 29.3058 30.4717 29.1023 30.4717C22.2441 30.4744 15.3858 30.4744 8.52759 30.4731C8.3736 30.4731 8.21823 30.4731 8.06699 30.4471C7.671 30.3816 7.45101 30.1235 7.45514 29.7426C7.45926 29.363 7.67788 29.1036 8.07936 29.0517C8.24848 29.0299 8.42172 29.0326 8.59222 29.0312C12.0227 29.0326 15.4518 29.0326 18.881 29.0326Z" fill="#3F3F3F"/>
<path d="M18.8296 38.5539C15.4184 38.5539 12.0058 38.5539 8.59452 38.5526C8.42402 38.5526 8.2494 38.5594 8.08166 38.5294C7.66918 38.457 7.43406 38.1962 7.45881 37.7853C7.48218 37.4043 7.71317 37.1613 8.11603 37.1244C8.26865 37.1108 8.42402 37.1135 8.57802 37.1135C15.4019 37.1135 22.2258 37.1135 29.0496 37.1135C29.8443 37.1135 30.1881 37.3265 30.1922 37.8194C30.1963 38.3205 29.8402 38.5526 29.0661 38.5526C25.6535 38.5539 22.2423 38.5539 18.8296 38.5539Z" fill="#3F3F3F"/>
<path d="M18.8145 42.576C15.4032 42.576 11.992 42.576 8.58072 42.576C8.42673 42.576 8.27136 42.5829 8.11874 42.5692C7.71863 42.531 7.48626 42.2893 7.46289 41.9084C7.43676 41.496 7.67463 41.238 8.08299 41.1602C8.23286 41.1315 8.39098 41.1465 8.54497 41.1465C15.4018 41.1465 22.2587 41.1465 29.117 41.1465C29.2874 41.1465 29.4662 41.1315 29.6284 41.1738C30.0065 41.2721 30.21 41.5261 30.1798 41.9234C30.1523 42.2961 29.9323 42.5119 29.5652 42.5651C29.4139 42.587 29.2572 42.576 29.1032 42.576C25.6713 42.5774 22.2436 42.576 18.8145 42.576Z" fill="#3B3B3B"/>
<path d="M18.8161 34.5011C15.3869 34.5011 11.9592 34.5011 8.53008 34.5011C8.37608 34.5011 8.21796 34.5161 8.06809 34.4888C7.67761 34.4192 7.46037 34.168 7.45899 33.7816C7.45762 33.417 7.66936 33.174 8.02959 33.0934C8.19321 33.0566 8.37058 33.0716 8.54108 33.0716C15.3979 33.0702 22.2548 33.0702 29.1117 33.0716C29.2822 33.0716 29.4609 33.0552 29.6232 33.0962C30.0013 33.1931 30.2048 33.4498 30.1773 33.8444C30.1511 34.2171 29.9284 34.4315 29.5627 34.4902C29.4114 34.5134 29.2547 34.5011 29.1007 34.5011C25.6729 34.5011 22.2452 34.5011 18.8161 34.5011Z" fill="#3A3A3A"/>
<path d="M22.4961 18.659C23.8477 16.7188 25.1992 14.7786 26.5508 12.8398C26.9372 13.1703 27.2754 13.5662 27.7745 13.7451C26.3363 15.7945 24.8995 17.8439 23.4613 19.8932C23.2729 19.3785 22.9031 19.0044 22.4961 18.659Z" fill="#2888C5"/>
<path d="M8.73828 21.4553C10.0857 20.1187 11.4346 18.782 12.782 17.4453C13.0075 17.9368 13.3402 18.3383 13.8008 18.6291C12.4726 19.9425 11.1444 21.2546 9.81624 22.5681C9.58387 22.0779 9.21401 21.7161 8.73828 21.4553Z" fill="#2888C5"/>
<path d="M8.73859 21.4554C9.2157 21.7148 9.58419 22.078 9.81793 22.5695C10.3322 24.0919 9.14283 25.3166 7.92188 25.2756C7.92188 23.9622 7.92325 22.6487 7.92325 21.3352C8.20924 21.2779 8.46635 21.4131 8.73859 21.4554Z" fill="#FE5B5B"/>
<path d="M20.0735 18.9804C20.5231 18.7388 20.9342 18.3892 21.5021 18.4794C21.5021 19.7915 21.5007 21.1049 21.5007 22.417C20.53 22.4907 19.4672 21.5705 19.5098 20.4468C19.4809 19.8761 19.7738 19.4269 20.0735 18.9804Z" fill="#3E997B"/>
<path d="M13.8002 18.6304C13.3383 18.3396 13.0055 17.9382 12.7814 17.4467C12.7071 16.8186 12.6742 16.196 13.099 15.6567C13.5074 15.1379 14.0216 14.8197 14.7146 14.873C14.7159 16.1742 14.7173 17.4753 14.7187 18.7765C14.3873 18.8789 14.1055 18.6837 13.8002 18.6304Z" fill="#FEBE41"/>
<path d="M14.719 18.7776C14.7176 17.4764 14.7162 16.1752 14.7148 14.874C15.8657 14.8986 16.4459 15.4502 16.7594 16.8169C16.6796 17.3453 16.516 17.8382 16.153 18.2478C15.7282 18.5646 15.2827 18.8308 14.719 18.7776Z" fill="#FEDE41"/>
<path d="M21.502 22.4163C21.502 21.1042 21.5033 19.7907 21.5033 18.4786C21.8581 18.4103 22.1592 18.637 22.4974 18.6575C22.9044 19.0029 23.2743 19.377 23.4626 19.8917C23.5163 20.528 23.5273 21.1492 23.068 21.6776C22.6514 22.1568 22.1413 22.4163 21.502 22.4163Z" fill="#52CB7B"/>
<path d="M27.7737 13.7436C27.2732 13.5648 26.9364 13.1702 26.55 12.8384C26.1898 11.9004 26.1623 11.0156 26.9873 10.2825C27.353 9.9575 27.7792 9.75952 28.288 9.79639C28.288 11.1099 28.288 12.4233 28.288 13.7354C28.1175 13.7382 27.9456 13.7409 27.7737 13.7436Z" fill="#4DA6FE"/>
<path d="M28.2891 13.7369C28.2891 12.4234 28.2891 11.11 28.2891 9.79785C29.4523 9.82516 30.2745 10.6553 30.2662 11.7926C30.2594 12.8986 29.4303 13.7137 28.2891 13.7369Z" fill="#67CBFE"/>
<path d="M7.92291 21.335C7.92291 22.6485 7.92153 23.962 7.92153 25.2754C6.7762 25.2522 5.95261 24.3989 5.96498 23.2492C5.97598 22.1679 6.8367 21.3268 7.92291 21.335Z" fill="#E63C58"/>
<path d="M16.1523 18.2463C16.5153 17.8367 16.6789 17.3438 16.7587 16.8154C17.8628 17.5363 18.9682 18.2586 20.0723 18.9809C19.7726 19.4273 19.4797 19.8765 19.51 20.4473C18.3894 19.7127 17.2716 18.9795 16.1523 18.2463Z" fill="#2888C5"/>
</svg>
