<svg width="641" height="350" viewBox="0 0 641 350" fill="none" xmlns="http://www.w3.org/2000/svg">
<path d="M96.7449 104.641C101.982 110.455 107.857 110.788 117.844 114.322C132.838 119.626 151.924 135.505 142.639 153.491C138.906 160.723 130.896 164.811 122.941 166.515C106.803 169.971 89.3331 165.061 77.3263 153.739C67.0753 144.074 61.0702 129.963 61.2952 115.856C61.2952 115.853 61.2952 115.851 61.2954 115.848C61.4391 107.063 65.9428 92.2238 74.2614 87.7094C84.2357 82.2975 88.2747 90.5472 92.3765 98.1952C93.8338 100.913 95.2637 102.996 96.7449 104.641Z" fill="#F4F7FD"/>
<path d="M147.142 37.8332C133.156 55.9753 122.044 84.3033 137.148 105.113C146.401 117.86 164.562 124.983 179.071 116.739C190.521 110.232 195.062 97.3704 201.991 86.9572C209.613 75.5031 219.113 69.6651 231.964 65.1725C248.18 59.5034 275.629 45.3035 261.313 23.7141C258.344 19.2374 253.934 15.9016 249.293 13.199C221.308 -3.09753 185.561 3.43427 161.157 23.2847C156.282 27.2499 151.472 32.2178 147.142 37.8332Z" fill="#F4F7FD"/>
<path d="M287.339 64.9178C266.408 84.0334 271.642 116.52 258.103 139.904C254.322 146.435 249.544 152.483 247.039 159.602C241.768 174.576 252.037 188.358 266.818 191.188C281.265 193.953 297.696 189.182 310.446 182.454C339.406 167.173 349.388 130.833 353.082 100.636C354.465 89.3277 353.804 77.3455 348.337 67.3499C336.102 44.9836 306.506 49.3418 289.388 63.1589C288.678 63.7317 287.996 64.3181 287.339 64.9178Z" fill="#F4F7FD"/>
<path d="M171.854 154.556C170.835 155.897 170.001 157.41 169.4 159.092C158.044 190.889 221.782 184.803 204.737 155.836C197.855 144.142 179.574 144.391 171.854 154.556Z" fill="#F4F7FD"/>
<path d="M68.1928 332.005H578.654C581.909 307.249 579.838 284.125 575.476 259.54C573.319 247.387 570.21 235.313 564.888 224.178C558.968 211.793 550.419 200.81 540.865 190.956C518.652 168.047 490.251 150.699 459.078 143.914C427.905 137.129 394.003 141.399 366.699 157.906C332.139 178.799 307.466 218.502 267.643 225.184C252.294 227.759 236.619 224.889 221.303 222.129C197.13 217.774 172.266 213.681 148.159 218.392C123.798 223.153 101.354 237.138 86.3396 256.912C71.3254 276.686 66.2436 307.25 68.1928 332.005Z" fill="#F4F7FD"/>
<path d="M172.079 150.928L176.896 152.694L177.515 154.982L183.667 160.272C184.49 160.98 184.789 162.125 184.415 163.146L168.722 157.393C167.953 157.111 167.647 156.186 168.095 155.501L172.079 150.928Z" fill="#102A54"/>
<path d="M178.275 148.54L176.895 152.694L172.078 150.929L172.914 147.338L178.275 148.54Z" fill="#FFC0B1"/>
<path d="M105.723 175.148L109.893 178.137L109.879 180.508L114.396 187.249C115.001 188.152 114.982 189.335 114.35 190.218L100.762 180.482C100.096 180.005 100.048 179.033 100.663 178.492L105.723 175.148Z" fill="#102A54"/>
<path d="M112.332 174.502L109.893 178.137L105.723 175.149L107.487 171.912L112.332 174.502Z" fill="#FFC0B1"/>
<path d="M155.402 96.3739C156.352 96.0418 192.039 94.0833 197.421 98.7461C202.802 103.409 179.582 150.052 179.582 150.052L171.08 148.539L182.126 110.802C182.126 110.802 152.67 123.425 143.606 119.651C134.542 115.877 136.808 96.3739 136.808 96.3739H155.402Z" fill="#0C203F"/>
<path d="M136.808 96.373L130.312 133.333L106.148 172.193L112.519 175.708C112.519 175.708 140.097 144.392 142.99 141.826C145.884 139.259 162.959 100.212 162.959 100.212L136.808 96.373Z" fill="#102A54"/>
<path d="M130.579 58.9316L119.293 63.683C118.431 64.0461 117.595 64.4691 116.791 64.9488L91.4707 80.0654L93.665 84.7695L121.499 73.3042C121.976 73.1076 122.463 72.9367 122.958 72.7921L132.909 69.8869L130.579 58.9316Z" fill="#FFC0B1"/>
<path d="M91.4704 80.0661C91.4704 80.0661 86.9501 80.6497 86.6476 81.2958C86.3451 81.9419 85.1699 85.6867 85.1699 86.0947C85.1699 86.5026 88.092 89.0181 89.1795 88.8822C89.563 88.8342 90.3231 88.2711 91.146 87.5634C91.5994 87.6445 91.9835 87.6766 92.1867 87.6218C92.9512 87.415 94.3773 84.477 94.3773 84.477C94.3773 84.477 92.5005 79.9156 91.4704 80.0661Z" fill="#FFC0B1"/>
<path d="M91.1459 87.7655C91.1322 87.7655 91.1184 87.7639 91.1043 87.7612C88.0939 87.1363 87.9792 87.0216 87.9303 86.9725C87.8828 86.9251 87.8339 86.8381 87.8699 86.693C87.9522 86.3611 88.6067 85.5107 89.1409 85.3463C89.5885 85.2086 90.9223 85.2803 91.4999 85.3195C91.4476 84.9014 91.3687 84.0587 91.4894 83.4673C90.9242 83.3017 89.2931 82.7902 88.6635 82.2302C88.5796 82.1555 88.5721 82.0271 88.6465 81.9433C88.721 81.8594 88.8494 81.8517 88.9333 81.9264C89.6137 82.5315 91.7678 83.1244 91.7896 83.1302C91.8434 83.1448 91.8889 83.1812 91.9152 83.2303C91.9416 83.2796 91.9466 83.3375 91.9289 83.3905C91.706 84.0591 91.9345 85.4938 91.9368 85.508C91.9466 85.5696 91.9277 85.6324 91.8856 85.6782C91.8433 85.724 91.7815 85.7473 91.7201 85.7431C91.1713 85.6992 89.6593 85.612 89.2608 85.7348C88.9206 85.8395 88.4347 86.4321 88.299 86.7012C88.7326 86.8341 90.1752 87.1531 91.1872 87.3631C91.2971 87.386 91.3678 87.4935 91.3449 87.6034C91.3246 87.6994 91.2402 87.7655 91.1459 87.7655Z" fill="#102A54"/>
<path d="M154.226 53.1704C152.368 53.1704 150.903 51.5866 151.047 49.7328L151.91 38.625H156.418L157.403 49.6974C157.569 51.5636 156.099 53.1704 154.226 53.1704Z" fill="#FFC0B1"/>
<path d="M151.076 29.3613H165.336L165.217 30.2461C164.806 33.3053 164.675 36.3983 164.879 39.478C164.977 40.9516 164.872 42.707 164.137 44.1266C162.696 46.9112 159.339 48.1579 156.492 46.8473C153.621 45.5262 149.179 41.3863 151.076 29.3613Z" fill="#FFC0B1"/>
<path d="M160.399 39.7989H159.082C158.999 39.7989 158.932 39.7317 158.932 39.6488C158.932 39.5658 158.999 39.4986 159.082 39.4986H160.399C160.512 39.4986 160.617 39.4466 160.686 39.3561C160.755 39.2654 160.777 39.1505 160.747 39.0408L159.604 34.9147C159.582 34.8348 159.629 34.752 159.709 34.7299C159.789 34.7083 159.871 34.7547 159.894 34.8346L161.036 38.9607C161.092 39.1615 161.051 39.3721 160.925 39.5379C160.799 39.7038 160.607 39.7989 160.399 39.7989Z" fill="#102A54"/>
<path d="M158.013 35.3045C158.013 35.7046 157.688 36.029 157.289 36.029C156.889 36.029 156.564 35.7046 156.564 35.3045C156.564 34.9045 156.889 34.5801 157.289 34.5801C157.689 34.5801 158.013 34.9045 158.013 35.3045Z" fill="#102A54"/>
<path d="M163.177 35.162C163.177 35.562 162.853 35.8864 162.453 35.8864C162.053 35.8864 161.729 35.562 161.729 35.162C161.729 34.7619 162.053 34.4375 162.453 34.4375C162.853 34.4375 163.177 34.7617 163.177 35.162Z" fill="#102A54"/>
<path d="M157.171 47.2605C157.156 47.2605 157.14 47.2582 157.125 47.253C157.04 47.2253 155.027 46.5543 153.635 44.9173C153.582 44.8542 153.589 44.7595 153.652 44.7057C153.716 44.6518 153.81 44.6597 153.864 44.7229C155.199 46.2935 157.198 46.9609 157.218 46.9677C157.297 46.9935 157.34 47.0782 157.314 47.1571C157.293 47.2202 157.234 47.2605 157.171 47.2605Z" fill="#102A54"/>
<path d="M161.533 41.759C161.421 41.7365 159.038 41.9165 157.599 40.252C157.599 40.252 157.503 42.2988 159.08 42.7262C160.656 43.1536 161.533 41.759 161.533 41.759Z" fill="white"/>
<path d="M160.077 41.7739C160.073 41.7739 160.068 41.7737 160.063 41.7733C158.561 41.6339 157.527 40.3999 157.484 40.3475C157.431 40.2836 157.44 40.1891 157.504 40.1361C157.568 40.0832 157.662 40.092 157.715 40.1561C157.725 40.1681 158.716 41.3467 160.091 41.4741C160.173 41.4818 160.234 41.555 160.227 41.6376C160.219 41.7155 160.154 41.7739 160.077 41.7739Z" fill="#102A54"/>
<path d="M171.526 27.8437C171.465 27.6797 171.395 27.5189 171.315 27.3634C170.671 26.1039 169.469 25.1875 168.151 24.7224C167.442 24.4721 166.695 24.3308 165.946 24.279C165.573 24.2532 165.198 24.2502 164.824 24.2696C164.67 24.2775 163.822 24.4671 163.736 24.3911C162.478 23.2706 160.528 23.1151 158.845 23.1957C158.222 23.2256 157.573 23.2983 157.05 23.6385C156.989 23.678 156.932 23.7207 156.877 23.766C154.133 22.7793 152.97 25.8923 150.69 26.3769C149.981 26.5277 149.246 26.3426 148.522 26.3837C147.577 26.437 146.662 26.8959 146.054 27.6212C145.427 28.3695 145.141 29.3458 144.592 30.1532C143.649 31.5385 142.076 32.2838 140.921 33.4583C138.304 36.1194 138.846 40.9008 140.675 43.8357C141.877 45.7642 143.923 47.2058 146.182 47.4435C148.441 47.6813 150.848 46.6028 151.98 44.6322C153.311 42.3133 152.74 39.4268 152.918 36.7587C153.004 35.4804 153.339 34.1019 154.354 33.3205C155.502 32.4359 157.131 32.5945 158.482 32.0695C158.942 31.8907 159.365 31.6236 159.736 31.2973C160.324 31.8075 160.954 32.2607 161.653 32.6022C163.201 33.3582 164.993 33.5417 166.687 33.307C168.179 33.1005 170.211 32.5579 171.18 31.3137C171.926 30.3557 171.929 28.9332 171.526 27.8437Z" fill="#102A54"/>
<path d="M211.056 33.8207L208.243 32.7089C207.311 32.3402 206.269 32.8916 206.05 33.8703L204.785 39.5063L194.708 62.1454L181.918 59.2205L179.283 69.9954L196.458 71.9732C197.173 72.0556 197.897 71.9841 198.582 71.7637C200.225 71.2352 201.486 69.9038 201.924 68.2331L208.971 41.3461L211.639 37.5141L212.09 35.34C212.089 34.6697 211.68 34.0671 211.056 33.8207Z" fill="#FFC0B1"/>
<path d="M210.441 39.0652C210.43 39.0652 210.419 39.064 210.408 39.0613C210.327 39.0431 210.276 38.9626 210.295 38.8817L210.804 36.642C210.834 36.5093 210.941 36.4152 211.076 36.4019C211.21 36.389 211.334 36.4604 211.389 36.5844L211.777 37.4532C211.81 37.5291 211.776 37.6178 211.701 37.6515C211.625 37.6852 211.536 37.6511 211.502 37.5755L211.115 36.7066L210.588 38.9481C210.572 39.018 210.51 39.0652 210.441 39.0652Z" fill="#102A54"/>
<path d="M196.938 66.8194C196.862 66.8194 196.79 66.7778 196.754 66.7058L194.524 62.2365C194.473 62.135 194.514 62.0118 194.616 61.9612C194.717 61.9104 194.84 61.9518 194.891 62.0532L197.121 66.5225C197.172 66.624 197.131 66.7472 197.029 66.7979C197 66.8125 196.968 66.8194 196.938 66.8194Z" fill="#102A54"/>
<path d="M162.969 51.5962C162.969 51.5962 154.082 48.0813 151.037 49.2682C150.994 49.285 150.952 49.3021 150.911 49.3208L128.219 58.7989L131.087 71.8781L144.636 69.3451C144.34 70.7305 144.083 72.0612 143.881 73.286C143.208 77.3755 141.879 81.3281 139.944 84.9927L131.727 100.549C130.237 108.156 162.791 107.315 162.791 107.315C168.952 101.274 170.493 71.2566 170.493 71.2566L184.341 72.019L186.888 59.348L162.969 51.5962Z" fill="#E6515C"/>
<path d="M144.635 69.5503C144.62 69.5503 144.605 69.5488 144.59 69.5453C144.479 69.5205 144.41 69.4105 144.435 69.3C144.456 69.2076 146.533 59.9902 148.083 55.3784C148.119 55.271 148.235 55.2126 148.343 55.2492C148.45 55.2854 148.508 55.4017 148.472 55.5091C146.928 60.1009 144.856 69.2977 144.835 69.3899C144.814 69.4854 144.729 69.5503 144.635 69.5503Z" fill="#102A54"/>
<path d="M172.051 71.521C172.047 71.521 172.043 71.521 172.04 71.5206L164.669 71.1211C164.556 71.1149 164.469 71.0183 164.475 70.9051C164.481 70.7917 164.579 70.7053 164.691 70.7112L172.062 71.1107C172.175 71.1169 172.262 71.2135 172.255 71.3267C172.25 71.4363 172.159 71.521 172.051 71.521Z" fill="#102A54"/>
<path d="M179.163 135.523L176.184 135.968L167.572 133.299C167.337 133.226 167.094 133.388 167.072 133.633C167.023 134.163 167.271 134.676 167.717 134.966L170.166 136.561L162.356 136.418C161.194 136.345 160.239 137.319 160.333 138.48L160.525 140.853C160.588 141.64 161.129 142.306 161.885 142.531L167.336 144.149C167.694 144.255 168.075 144.254 168.432 144.146L177.445 141.422L179.959 141.256L179.163 135.523Z" fill="#FFC0B1"/>
<path d="M171.327 140.596C171.279 140.596 171.232 140.578 171.195 140.543C169.839 139.262 169.969 136.661 169.975 136.551C169.981 136.445 170.072 136.363 170.177 136.37C170.283 136.375 170.364 136.466 170.358 136.572C170.357 136.597 170.233 139.106 171.459 140.263C171.536 140.336 171.539 140.458 171.467 140.535C171.429 140.575 171.378 140.596 171.327 140.596Z" fill="#102A54"/>
<path d="M253.735 78.6432L261.019 79.5894C263.002 79.847 264.526 81.4755 264.647 83.4725C264.79 85.8393 265.037 88.9039 265.425 90.8849C265.765 92.6154 265.906 94.7108 265.251 96.5037C263.966 100.021 260.18 102.007 256.608 100.887C253.403 99.8819 248.221 94.9436 248.715 82.8614C248.821 80.2559 251.15 78.3074 253.735 78.6432Z" fill="#FFC0B1"/>
<path d="M250.706 109.261C248.352 108.92 246.787 106.645 247.31 104.324L250.441 90.4141L256.15 91.2419L255.366 105.446C255.234 107.84 253.077 109.605 250.706 109.261Z" fill="#FFC0B1"/>
<path d="M258.821 91.6879C258.726 91.6879 258.643 91.6171 258.63 91.52C258.617 91.4149 258.691 91.3185 258.797 91.305L260.468 91.0909C260.613 91.0724 260.737 90.9894 260.81 90.8632C260.883 90.7369 260.892 90.5875 260.836 90.4533L258.715 85.4014C258.674 85.3036 258.72 85.1908 258.818 85.1498C258.915 85.1087 259.028 85.1548 259.069 85.2526L261.19 90.3045C261.293 90.5505 261.276 90.8241 261.143 91.0551C261.01 91.2863 260.782 91.4384 260.517 91.4723L258.845 91.6864C258.837 91.6873 258.829 91.6879 258.821 91.6879Z" fill="#102A54"/>
<path d="M256.758 86.153C256.823 86.6609 256.464 87.1252 255.957 87.1903C255.449 87.2554 254.985 86.8963 254.92 86.3887C254.855 85.8808 255.213 85.4164 255.721 85.3514C256.229 85.2863 256.693 85.6452 256.758 86.153Z" fill="#102A54"/>
<path d="M263.291 85.1315C263.356 85.6394 262.997 86.1038 262.49 86.1688C261.982 86.2339 261.518 85.8749 261.453 85.3672C261.388 84.8593 261.747 84.395 262.254 84.3299C262.762 84.2648 263.226 84.6237 263.291 85.1315Z" fill="#102A54"/>
<path d="M256.814 84.7749L253.034 85.2593C252.755 85.2949 252.501 85.0979 252.465 84.8194C252.429 84.5408 252.626 84.2859 252.905 84.2503L256.684 83.7659C256.963 83.7303 257.218 83.927 257.253 84.2058C257.289 84.4846 257.092 84.7393 256.814 84.7749Z" fill="#102A54"/>
<path d="M264.087 83.646L260.307 84.1303C260.029 84.166 259.774 83.969 259.739 83.6904C259.703 83.4119 259.9 83.157 260.178 83.1214L263.958 82.637C264.237 82.6014 264.491 82.7983 264.527 83.0769C264.562 83.3557 264.366 83.6104 264.087 83.646Z" fill="#102A54"/>
<path d="M256.785 92.6289C256.785 92.6289 259.269 93.7938 261.942 93.6523C261.942 93.6523 259.022 96.9666 256.785 92.6289Z" fill="white"/>
<path d="M260.415 93.7957C260.41 93.7957 260.404 93.7955 260.398 93.7949C258.123 93.5882 256.527 92.6158 256.46 92.5744C256.37 92.5185 256.342 92.4003 256.398 92.31C256.453 92.2196 256.572 92.1918 256.662 92.2473C256.678 92.2569 258.252 93.2139 260.433 93.4122C260.538 93.4218 260.616 93.5152 260.606 93.6211C260.597 93.7208 260.514 93.7957 260.415 93.7957Z" fill="#102A54"/>
<path d="M250.969 74.825C250.969 74.825 254.659 69.3956 259.4 72C264.141 74.6045 270.214 79.7157 270.214 79.7157C270.214 79.7157 266.174 83.1759 264.646 83.4731C263.119 83.7704 252.141 79.849 252.141 79.849L249.18 90.0975C249.18 90.0975 244.629 82.0833 245.202 78.9638C245.775 75.844 250.969 74.825 250.969 74.825Z" fill="#102A54"/>
<path d="M251.102 89.088C251.543 90.9314 251.024 92.6354 249.943 92.8941C248.863 93.1528 247.629 91.8682 247.188 90.0248C246.747 88.1814 247.266 86.4774 248.347 86.2187C249.428 85.9599 250.661 87.2446 251.102 89.088Z" fill="#FFC0B1"/>
<path d="M255.635 100.764C255.61 100.764 255.585 100.759 255.56 100.749C255.478 100.714 253.547 99.8681 252.268 97.3817C252.219 97.2874 252.256 97.1715 252.35 97.1228C252.445 97.0745 252.561 97.1114 252.609 97.2058C253.822 99.5624 255.692 100.387 255.711 100.395C255.808 100.437 255.854 100.55 255.812 100.647C255.781 100.72 255.71 100.764 255.635 100.764Z" fill="#102A54"/>
<path d="M250.045 90.97C250.042 90.97 250.039 90.9698 250.035 90.9698C249.929 90.9648 249.848 90.8747 249.853 90.7686C249.949 88.7612 248.272 87.0456 248.255 87.0287C248.18 86.9534 248.181 86.8316 248.256 86.7569C248.331 86.6822 248.453 86.6827 248.528 86.7578C248.602 86.8325 250.341 88.6124 250.237 90.7869C250.232 90.8899 250.147 90.97 250.045 90.97Z" fill="#102A54"/>
<path d="M320.936 127.796L287.4 126.114C286.646 126.052 285.919 125.807 285.283 125.398L255.266 106.14L255.274 106.175L248.851 104.334L239.842 166.522L264.271 172.107C264.271 172.107 266.947 148.964 266.633 132.827L279.427 137.409C282.325 138.447 285.418 138.826 288.481 138.516L321.021 135.23L320.936 127.796Z" fill="#3C94F8"/>
<path d="M312.303 254.591L317.411 251.961L319.766 253.187L328.79 252.13C329.998 251.988 331.167 252.612 331.724 253.694L315.08 262.263C314.264 262.683 313.271 262.234 313.046 261.345L312.303 254.591Z" fill="#102A54"/>
<path d="M314.491 248.301L317.413 251.961L312.304 254.591L309.156 251.189L314.491 248.301Z" fill="#FFC0B1"/>
<path d="M194.809 248.02L197.929 252.847L196.942 255.311L198.882 264.191C199.141 265.38 198.637 266.606 197.615 267.266L187.452 251.54C186.954 250.769 187.302 249.736 188.165 249.425L194.809 248.02Z" fill="#102A54"/>
<path d="M201.281 249.577L197.928 252.847L194.809 248.019L197.883 244.551L201.281 249.577Z" fill="#FFC0B1"/>
<path d="M225.363 163.355L226.945 207.707L195.293 244.943L202.06 251.025L239.825 221.606C242.573 219.465 244.735 216.664 246.109 213.463C246.858 211.718 247.363 209.878 247.61 207.994L252.93 167.353L225.363 163.355Z" fill="#102A54"/>
<path d="M260.547 166.238L290.338 200.625L317.638 247.898L306.957 254.28L277.341 212.467L241.25 185.882C241.25 185.882 224.017 182.773 226.665 160.279L260.547 166.238Z" fill="#102A54"/>
<path d="M249.691 192.1L250.77 179.771C250.77 179.771 261.356 200.692 261.153 200.543C260.949 200.393 249.691 192.1 249.691 192.1Z" fill="#0C203F"/>
<path d="M247.359 103.889C247.359 103.889 252.818 106.419 255.28 106.145C255.28 106.145 261.408 115.277 262.955 124.596C264.838 135.945 260.546 166.238 260.546 166.238L231.469 162.647L247.359 103.889Z" fill="white"/>
<path d="M255.281 106.143C255.001 106.147 246.814 103.736 246.814 103.736C246.814 103.736 251.37 108.476 253.041 108.499C254.712 108.522 255.281 106.143 255.281 106.143Z" fill="#80C0FF"/>
<path d="M251.329 106.851C248.973 103.193 243.877 102.492 240.659 105.419C240.547 105.522 240.436 105.627 240.325 105.733L213.119 125.001C212.284 125.592 211.353 126.033 210.367 126.306L177.041 133.99L178.598 142.118L214.065 139.062C216.245 138.821 218.378 138.261 220.395 137.401L228.872 133.783C227.921 138.585 227.518 141.985 227.518 141.985L215.121 167.75L246.997 178.817C246.997 178.817 253.419 144.664 255.469 132.894C256.904 124.65 255.144 112.776 251.329 106.851Z" fill="#3C94F8"/>
<path d="M228.872 133.975C228.802 133.975 228.734 133.937 228.7 133.87C228.653 133.775 228.691 133.659 228.785 133.611L243.408 126.239C243.503 126.192 243.619 126.23 243.666 126.325C243.714 126.419 243.676 126.535 243.581 126.583L228.958 133.955C228.93 133.969 228.901 133.975 228.872 133.975Z" fill="#102A54"/>
<path d="M246.62 160.212L233.727 155.68L233.258 156.943L246.095 161.558L246.62 160.212Z" fill="#102A54"/>
<path d="M254.708 105.982C254.708 105.982 259.291 128.84 244.199 143.445L243.168 150.561L249.99 147.024C249.99 147.024 264.952 127.499 255.281 106.144L254.708 105.982Z" fill="#102A54"/>
<path d="M266.633 133.019C266.633 133.019 266.632 133.019 266.632 133.019C266.526 133.018 266.44 132.932 266.441 132.826C266.441 132.75 266.457 125.144 264.793 120.899C264.754 120.8 264.803 120.689 264.901 120.65C265 120.611 265.112 120.66 265.15 120.759C266.841 125.073 266.825 132.751 266.825 132.828C266.825 132.934 266.739 133.019 266.633 133.019Z" fill="#102A54"/>
<path d="M338.313 146.544L322.786 142.654C322.138 142.492 321.743 141.834 321.906 141.184L327.617 118.367C327.779 117.718 328.437 117.323 329.086 117.486L344.612 121.375C345.261 121.538 345.655 122.196 345.493 122.845L339.782 145.662C339.619 146.312 338.962 146.706 338.313 146.544Z" fill="#80C0FF"/>
<path d="M343.555 123.34L328.926 119.676L323.719 140.478L338.349 144.143L343.555 123.34Z" fill="white"/>
<path d="M341.955 124.803L329.65 121.721L329.389 122.764L341.693 125.846L341.955 124.803Z" fill="#F4F7FD"/>
<path d="M341.392 127.051L329.088 123.969L328.827 125.012L341.131 128.094L341.392 127.051Z" fill="#F4F7FD"/>
<path d="M340.83 129.299L328.525 126.217L328.264 127.26L340.568 130.342L340.83 129.299Z" fill="#F4F7FD"/>
<path d="M340.267 131.547L327.963 128.465L327.702 129.508L340.006 132.59L340.267 131.547Z" fill="#F4F7FD"/>
<path d="M339.705 133.797L327.4 130.715L327.139 131.758L339.443 134.84L339.705 133.797Z" fill="#F4F7FD"/>
<path d="M339.142 136.045L326.838 132.963L326.577 134.006L338.881 137.088L339.142 136.045Z" fill="#F4F7FD"/>
<path d="M338.579 138.293L326.275 135.211L326.014 136.254L338.318 139.336L338.579 138.293Z" fill="#F4F7FD"/>
<path d="M338.015 140.541L325.711 137.459L325.45 138.502L337.754 141.584L338.015 140.541Z" fill="#F4F7FD"/>
<path d="M338.815 122.713L333.567 121.399C333.422 121.362 333.333 121.215 333.37 121.069L334.139 117.995C334.175 117.849 334.323 117.761 334.469 117.797L339.716 119.112C339.862 119.148 339.95 119.296 339.914 119.442L339.145 122.516C339.108 122.661 338.96 122.75 338.815 122.713Z" fill="#0C203F"/>
<path d="M320.947 128.631L324.759 127.219C325.216 127.05 325.719 127.047 326.178 127.211L331.288 129.039C331.586 129.146 331.654 129.538 331.409 129.739L331.083 130.006C330.799 130.24 330.445 130.374 330.078 130.387L324.558 130.587L323.422 135.127L321.009 134.044L320.947 128.631Z" fill="#FFC0B1"/>
<path d="M151.316 153.173C152.655 152.5 154.2 152.382 155.699 152.375C157.046 152.369 158.408 152.446 159.702 152.82C160.996 153.194 162.228 153.887 163.064 154.944C164.16 156.329 164.469 158.176 164.527 159.942C164.585 161.707 164.429 163.493 164.754 165.229C165.065 166.888 165.81 168.485 165.775 170.173C165.734 172.164 164.622 173.947 163.856 175.786C162.936 177.994 162.495 180.401 162.57 182.792C161.378 182.177 160.015 181.899 158.678 181.996C157.84 182.057 156.995 182.261 156.171 182.099C155.284 181.925 154.539 181.351 153.763 180.887C152.987 180.422 152.056 180.048 151.195 180.324C150.376 178.198 150.361 175.754 150.438 173.478C150.522 170.973 150.606 168.463 150.962 165.983C151.11 164.947 151.306 163.916 151.412 162.875C151.534 161.683 151.538 160.483 151.533 159.285C151.526 157.245 151.372 155.212 151.316 153.173Z" fill="#102A54"/>
<path d="M170.288 240.84L169.628 246.182C169.526 247.01 168.675 247.524 167.895 247.228L159.621 244.095V240.84H170.288Z" fill="#FFB841"/>
<path d="M139.608 241.275L196.684 240.464C198.09 240.444 199.215 239.287 199.195 237.88L198.67 200.963C198.65 199.556 197.494 198.431 196.087 198.451L139.011 199.263C137.604 199.283 136.48 200.44 136.5 201.847L137.024 238.763C137.044 240.171 138.201 241.295 139.608 241.275Z" fill="#80C0FF"/>
<path d="M167.754 218.949C166.707 218.949 165.66 218.658 164.738 218.075L136.888 200.466C136.818 200.422 136.797 200.33 136.842 200.26C136.886 200.19 136.979 200.169 137.048 200.213L164.898 217.822C166.688 218.953 168.981 218.921 170.738 217.739L198.077 199.346C198.145 199.299 198.238 199.318 198.284 199.387C198.331 199.456 198.312 199.549 198.244 199.595L170.905 217.988C169.954 218.627 168.854 218.949 167.754 218.949Z" fill="#102A54"/>
<path d="M124.094 228.114L133.282 187.352C133.867 183.636 137.352 181.097 141.066 181.681L157.666 184.293C160.077 184.673 161.991 186.276 162.879 188.37L162.879 188.369L168.489 198.845L162.632 198.929L159.077 233.619L124.094 228.114Z" fill="white"/>
<path d="M142.871 181.809C142.311 185.366 144.754 188.615 148.311 189.174C151.867 189.734 155.189 187.393 155.749 183.835L142.871 181.809Z" fill="#FFC0B1"/>
<path d="M148.833 186.836C151.025 187.18 153.045 185.585 153.219 183.372L154.26 170.116L148.945 169.279L145.732 182.151C145.19 184.321 146.625 186.488 148.833 186.836Z" fill="#FFC0B1"/>
<path d="M145.905 156.41L162.718 159.056L162.414 160.077C161.362 163.607 160.634 167.23 160.304 170.899C160.147 172.655 159.697 174.705 158.568 176.242C156.352 179.258 152.163 180.105 149.049 178.032C145.91 175.941 141.44 170.236 145.905 156.41Z" fill="#FFC0B1"/>
<path d="M155.087 170.456C155.045 170.456 155.003 170.453 154.962 170.446L153.409 170.202C153.311 170.186 153.245 170.094 153.26 169.997C153.276 169.899 153.367 169.831 153.465 169.848L155.018 170.092C155.151 170.113 155.285 170.071 155.383 169.977C155.481 169.883 155.528 169.752 155.513 169.617L154.931 164.54C154.92 164.441 154.99 164.353 155.088 164.341C155.187 164.329 155.275 164.401 155.287 164.499L155.869 169.576C155.897 169.823 155.81 170.063 155.631 170.236C155.482 170.379 155.288 170.456 155.087 170.456Z" fill="#102A54"/>
<path d="M152.984 164.704C152.91 165.176 152.467 165.498 151.996 165.424C151.524 165.35 151.202 164.907 151.276 164.436C151.35 163.964 151.793 163.642 152.264 163.716C152.736 163.79 153.058 164.232 152.984 164.704Z" fill="#102A54"/>
<path d="M159.099 165.493C159.025 165.965 158.582 166.287 158.111 166.213C157.64 166.139 157.317 165.696 157.391 165.224C157.466 164.753 157.908 164.43 158.379 164.505C158.851 164.579 159.173 165.022 159.099 165.493Z" fill="#102A54"/>
<path d="M150.244 163.435C150.114 163.435 149.984 163.382 149.89 163.277C149.714 163.081 149.73 162.78 149.926 162.604C151.648 161.056 153.861 162.445 153.954 162.505C154.175 162.647 154.24 162.942 154.098 163.163C153.956 163.385 153.662 163.449 153.441 163.308C153.371 163.264 151.741 162.253 150.562 163.313C150.471 163.395 150.357 163.435 150.244 163.435Z" fill="#102A54"/>
<path d="M156.498 163.976C156.368 163.976 156.237 163.923 156.144 163.818C155.968 163.622 155.984 163.321 156.18 163.145C157.901 161.597 160.115 162.986 160.208 163.046C160.429 163.188 160.494 163.482 160.352 163.704C160.21 163.925 159.916 163.99 159.695 163.849C159.626 163.805 157.996 162.794 156.816 163.854C156.725 163.936 156.611 163.976 156.498 163.976Z" fill="#102A54"/>
<path d="M152.703 172.029C152.703 172.029 154.814 173.015 156.608 172.106C156.608 172.106 156.894 174.308 154.693 174.135C152.493 173.962 152.703 172.029 152.703 172.029Z" fill="white"/>
<path d="M154.233 174.245C154.217 174.245 154.2 174.243 154.184 174.238C152.364 173.716 152.522 172.026 152.524 172.009L152.549 171.771L152.77 171.862C155.085 172.812 156.498 171.961 156.512 171.953C156.596 171.9 156.706 171.926 156.759 172.01C156.811 172.093 156.786 172.203 156.703 172.256C156.642 172.295 155.23 173.158 152.882 172.291C152.916 172.713 153.131 173.563 154.282 173.893C154.377 173.921 154.432 174.02 154.405 174.115C154.383 174.194 154.311 174.245 154.233 174.245Z" fill="#102A54"/>
<path d="M149.384 189.576C149.068 189.576 148.738 189.559 148.392 189.525C148.293 189.515 148.222 189.427 148.231 189.329C148.241 189.23 148.328 189.158 148.427 189.168C154.761 189.801 155.635 184.22 155.669 183.982C155.683 183.884 155.773 183.816 155.872 183.83C155.97 183.844 156.038 183.934 156.024 184.033C156.016 184.091 155.166 189.576 149.384 189.576Z" fill="#102A54"/>
<path d="M171.062 266.383C170.221 261.033 159.078 233.618 159.078 233.618L145.617 231.5L124.094 228.113C118.611 231.721 116.729 265.151 116.729 265.151L92.3242 313.219L100.876 316.78C100.876 316.78 133 272.78 134.894 268.203C135.762 266.107 138.081 258.242 140.342 250.327C146.202 261.543 154.658 270.184 154.658 270.184L153.437 320.236H162.633C162.633 320.236 171.902 271.733 171.062 266.383Z" fill="#102A54"/>
<path d="M140.342 250.327L141.52 242.195L148.63 263.101C148.63 263.101 141.942 254.488 140.342 250.327Z" fill="#0C203F"/>
<path d="M159.992 185.109L162.633 198.928H171.116C171.116 198.928 165.551 186.591 159.992 185.109Z" fill="#FFB841"/>
<path d="M145.618 216.343C145.049 214.603 140.388 181.383 140.388 181.383C140.388 181.383 133.503 181.808 129.274 188.5C125.436 194.575 113.842 242.194 113.842 242.194C113.842 242.194 131.782 240.213 133.711 239.066C134.329 238.698 135.237 232.643 136.185 224.583C136.801 225.415 137.551 226.153 138.416 226.76C139.682 227.648 141.141 228.223 142.673 228.435L169.456 232.143L171.116 225.882C171.116 225.882 146.186 218.084 145.618 216.343Z" fill="#FFB841"/>
<path d="M170.994 226.341L171.725 226.58C172.005 226.672 172.304 226.681 172.589 226.608C173.684 226.324 176.078 225.307 176.45 225.442C176.914 225.61 180.404 227.647 180.107 228.647C179.999 229.011 178.305 232.41 177.042 232.495C175.778 232.579 173.04 232.747 172.535 232.495C172.029 232.242 169.66 231.37 169.66 231.37L170.994 226.341Z" fill="#FFC0B1"/>
<path d="M179.756 229.548H178.644C178.561 229.548 178.494 229.481 178.494 229.398C178.494 229.315 178.561 229.248 178.644 229.248H179.756C179.838 229.248 179.906 229.315 179.906 229.398C179.906 229.481 179.838 229.548 179.756 229.548Z" fill="#102A54"/>
<path d="M178.951 230.685H177.839C177.757 230.685 177.689 230.617 177.689 230.535C177.689 230.452 177.757 230.385 177.839 230.385H178.951C179.034 230.385 179.101 230.452 179.101 230.535C179.101 230.618 179.034 230.685 178.951 230.685Z" fill="#102A54"/>
<path d="M178.121 231.819H177.009C176.927 231.819 176.859 231.752 176.859 231.669C176.859 231.587 176.926 231.52 177.009 231.52H178.121C178.204 231.52 178.271 231.587 178.271 231.669C178.271 231.752 178.204 231.819 178.121 231.819Z" fill="#102A54"/>
<path d="M136.184 224.733C136.138 224.733 136.093 224.713 136.064 224.673C136.044 224.647 134.084 222.009 132.876 218.297C131.674 214.602 129.363 204.57 129.34 204.469C129.321 204.388 129.372 204.308 129.452 204.289C129.533 204.27 129.613 204.321 129.632 204.402C129.655 204.502 131.963 214.522 133.161 218.204C134.354 221.869 136.284 224.468 136.304 224.494C136.353 224.56 136.34 224.654 136.274 224.704C136.247 224.723 136.215 224.733 136.184 224.733Z" fill="#102A54"/>
<path d="M156.626 158.1C156.064 159.099 155.023 159.813 153.889 159.977C152.832 160.131 151.713 159.836 150.711 160.204C149.524 160.64 148.839 161.885 148.47 163.095C148.101 164.305 147.932 165.598 147.291 166.689C146.76 167.593 145.92 168.328 145.604 169.328C145.352 170.128 145.47 170.994 145.636 171.817C145.846 172.85 146.127 173.869 146.479 174.863C146.751 175.632 147.066 176.391 147.225 177.191C147.47 178.424 147.328 179.73 146.824 180.882C145.778 180.064 144.504 179.542 143.185 179.39C142.269 179.285 141.309 179.348 140.465 178.977C139.169 178.408 138.5 176.986 138.019 175.654C137.844 175.172 137.676 174.677 137.375 174.262C136.805 173.476 135.855 173.086 135.024 172.583C134.194 172.08 133.382 171.283 133.438 170.314C133.444 170.213 133.459 170.111 133.478 170.008C133.684 168.897 134.221 167.875 134.986 167.043C135.824 166.134 136.719 165.259 137.499 164.339C139.1 162.452 140.107 160.146 141.403 158.038C142.699 155.929 144.435 153.91 146.799 153.181C147.432 152.986 148.093 152.89 148.754 152.846C149.419 152.803 150.095 152.813 150.742 152.975C152.421 153.395 153.675 154.754 154.824 156.048C155.477 156.784 155.973 157.365 156.626 158.1Z" fill="#102A54"/>
<path d="M156.264 157.044C156.247 158.127 156.289 159.354 157.094 160.078C157.365 160.322 157.698 160.482 158.03 160.634C158.905 161.033 159.845 161.428 160.404 162.212C160.826 162.804 160.973 163.543 161.21 164.231C161.447 164.919 161.837 165.627 162.512 165.899C163.754 164.255 164.1 162.108 164.139 160.049C164.157 159.093 164.128 158.105 163.725 157.239C163.259 156.24 162.344 155.518 161.371 155C160.84 154.717 160.273 154.48 159.676 154.404C158.073 154.197 156.29 155.427 156.264 157.044Z" fill="#102A54"/>
<path d="M152.356 179.433C151.333 179.433 149.948 179.203 148.922 178.158C148.853 178.088 148.854 177.974 148.925 177.905C148.995 177.836 149.109 177.837 149.178 177.907C150.832 179.59 153.629 178.949 153.657 178.942C153.754 178.919 153.85 178.979 153.873 179.075C153.896 179.171 153.836 179.268 153.74 179.291C153.687 179.303 153.124 179.433 152.356 179.433Z" fill="#102A54"/>
<path d="M155.076 323.049L160.815 323.332L162.239 325.573L170.578 329.18C171.695 329.663 172.395 330.788 172.335 332.004L153.638 331.081C152.723 331.036 152.087 330.149 152.338 329.267L155.076 323.049Z" fill="#102A54"/>
<path d="M161.15 320.236L160.816 323.333L155.077 323.049L155.061 320.236H161.15Z" fill="#FFC0B1"/>
<path d="M92.4907 316.473L97.8674 318.499L98.5376 321.068L105.374 327.056C106.289 327.857 106.611 329.143 106.182 330.282L88.6651 323.679C87.8071 323.356 87.4734 322.317 87.9824 321.554L92.4907 316.473Z" fill="#102A54"/>
<path d="M99.1325 316.054L97.8669 318.498L92.4902 316.472L93.5053 313.711L99.1325 316.054Z" fill="#FFC0B1"/>
<path d="M636.363 333.049H5.56115C4.98481 333.049 4.51758 332.582 4.51758 332.005C4.51758 331.428 4.98481 330.961 5.56115 330.961H636.363C636.939 330.961 637.407 331.428 637.407 332.005C637.407 332.582 636.939 333.049 636.363 333.049Z" fill="#102A54"/>
<path d="M184.193 281.685L201.288 281.584L218.382 281.525L252.57 281.477L286.758 281.525L303.853 281.583L320.947 281.685L303.853 281.787L286.758 281.846L252.57 281.894L218.382 281.845L201.288 281.787L184.193 281.685Z" fill="#102A54"/>
<path d="M239.939 240.841L262.056 240.74L284.173 240.681L328.407 240.633L372.641 240.681L394.757 240.739L416.874 240.841L394.757 240.944L372.641 241.002L328.407 241.05L284.173 241.001L262.056 240.943L239.939 240.841Z" fill="#102A54"/>
<path d="M186.889 269.693L171.126 269.795L155.363 269.853L123.836 269.902L92.3098 269.854L76.5465 269.795L60.7832 269.693L76.5465 269.591L92.3098 269.532L123.836 269.484L155.363 269.533L171.126 269.591L186.889 269.693Z" fill="#102A54"/>
<path d="M326.487 207.191L310.723 207.293L294.96 207.351L263.434 207.4L231.907 207.352L216.144 207.293L200.381 207.191L216.144 207.089L231.907 207.03L263.434 206.982L294.96 207.031L310.723 207.089L326.487 207.191Z" fill="#102A54"/>
<path d="M95.498 127.092C98.3305 127.045 101.163 127.024 103.995 126.99L112.492 126.932C118.157 126.897 123.822 126.9 129.487 126.883L146.481 126.931L154.978 126.989C157.811 127.024 160.643 127.044 163.476 127.092C160.643 127.139 157.811 127.159 154.978 127.194L146.481 127.252L129.487 127.3C123.822 127.283 118.157 127.286 112.492 127.251L103.995 127.193C101.163 127.159 98.3305 127.139 95.498 127.092Z" fill="#102A54"/>
<path d="M149.271 88.4116L159.77 88.31L170.268 88.2518L191.265 88.2031L212.262 88.2511L222.761 88.3094L233.259 88.4116L222.761 88.514L212.262 88.5724L191.265 88.6203L170.268 88.5716L159.77 88.5135L149.271 88.4116Z" fill="#102A54"/>
<path d="M85.4551 101.201C87.695 101.154 89.9348 101.133 92.1747 101.099L98.8941 101.041C103.374 101.006 107.854 101.01 112.333 100.992C116.813 101.009 121.293 101.007 125.772 101.04L132.492 101.098C134.732 101.133 136.972 101.154 139.211 101.201C136.972 101.248 134.732 101.269 132.492 101.303L125.772 101.362C121.293 101.395 116.813 101.393 112.333 101.41C107.854 101.392 103.374 101.395 98.8941 101.361L92.1747 101.303C89.9348 101.268 87.695 101.248 85.4551 101.201Z" fill="#102A54"/>
<path d="M559.586 193.984C571.754 125.002 558.371 64.9769 529.693 59.9135C501.014 54.8501 467.901 106.666 455.733 175.648C443.564 244.63 456.947 304.655 485.626 309.719C514.304 314.782 547.417 262.966 559.586 193.984Z" fill="#102A54"/>
<path d="M550.353 192.355C562.522 123.374 549.138 63.348 520.46 58.2846C491.782 53.2212 458.669 105.037 446.5 174.019C434.332 243.001 447.715 303.027 476.393 308.09C505.071 313.153 538.184 261.337 550.353 192.355Z" fill="#E6515C"/>
<path d="M525.896 187.81C533.323 145.706 525.154 109.068 507.65 105.977C490.146 102.887 469.935 134.514 462.507 176.618C455.08 218.723 463.249 255.361 480.753 258.451C498.257 261.542 518.468 229.915 525.896 187.81Z" fill="white"/>
<path d="M505.901 183.992C509.558 163.259 505.535 145.218 496.916 143.696C488.297 142.174 478.344 157.748 474.687 178.481C471.029 199.214 475.052 217.255 483.671 218.777C492.291 220.299 502.243 204.725 505.901 183.992Z" fill="#E6515C"/>
<path d="M490.584 180.669C490.568 180.669 490.552 180.668 490.536 180.666L392.629 171.055C392.359 171.029 392.161 170.788 392.188 170.518C392.214 170.248 392.456 170.049 392.725 170.077L490.632 179.688C490.902 179.714 491.099 179.955 491.073 180.225C491.048 180.479 490.834 180.669 490.584 180.669Z" fill="#102A54"/>
<path d="M395.613 164.994L399.084 170.945L394.43 176.023L371.926 173.607L376.58 168.529L373.109 162.578L395.613 164.994Z" fill="#102A54"/>
<path d="M490.01 172.646C489.968 172.646 489.925 172.639 489.882 172.625L410.797 147.074C410.579 147.004 410.46 146.77 410.53 146.551C410.6 146.333 410.834 146.214 411.053 146.284L490.137 171.835C490.356 171.906 490.475 172.14 490.405 172.358C490.348 172.534 490.185 172.646 490.01 172.646Z" fill="#102A54"/>
<path d="M414.35 142.608L416.145 148.144L411.391 151.499L393.25 145.455L398.004 142.101L396.209 136.564L414.35 142.608Z" fill="#102A54"/>
<path d="M392.975 199.782C392.736 199.782 392.526 199.606 392.49 199.362C392.45 199.094 392.635 198.844 392.904 198.804L490.212 184.336C490.478 184.295 490.73 184.481 490.77 184.75C490.81 185.018 490.624 185.268 490.356 185.308L393.048 199.776C393.024 199.78 392.999 199.782 392.975 199.782Z" fill="#102A54"/>
<path d="M391.27 194.072L396.166 198.917L392.989 205.03L370.629 208.541L373.806 202.428L368.91 197.583L391.27 194.072Z" fill="#102A54"/>
<path d="M524.831 332.004C524.831 332.004 592.04 296.276 599.609 259.241C599.609 259.241 562.15 276.118 526.083 307.314C526.083 307.314 559.344 282.175 559.344 242.195C559.344 242.195 518.474 276.567 502.428 304.285C502.428 304.285 506.667 267.779 497.282 249.838C497.282 249.838 481.236 275.815 484.869 310.343C484.869 310.343 468.279 291.867 444.332 283.69C444.332 283.69 450.962 313.674 470.035 321.246C470.035 321.246 447.934 312.463 425.834 313.674C425.834 313.674 433.53 332.004 452.475 332.004C456.108 332.004 524.831 332.004 524.831 332.004Z" fill="#6CB597"/>
<path d="M485.029 332.003C485.029 332.003 477.152 327.813 470.785 310.677C470.785 310.677 485.93 315.769 492.421 321.34C492.421 321.34 501.616 308.152 515.499 296.969C515.499 296.969 519.646 312.481 510.09 323.665C510.09 323.665 527.245 314.798 556.53 311.655C556.53 311.655 545.429 328.437 528.841 332.003L485.029 332.003Z" fill="#102A54"/>
</svg>
