<svg width="479" height="350" viewBox="0 0 479 350" fill="none" xmlns="http://www.w3.org/2000/svg">
<g clip-path="url(#clip0_4855_28004)">
<path d="M425.8 183.964C425.8 82.3583 343.507 0 241.981 0C140.455 0 58.1621 82.3583 58.1621 183.964C58.1621 241.927 84.9556 293.603 126.807 327.325H357.169C399.007 293.603 425.8 241.927 425.8 183.964Z" fill="#EDEDED"/>
<path d="M241.387 326.794H234.576C224.365 326.794 216.08 318.503 216.08 308.284V292.865H259.883V308.284C259.883 318.516 251.598 326.794 241.387 326.794Z" fill="#222023"/>
<path d="M259.172 309.836H217.153C209.462 309.836 203.232 303.601 203.232 295.905V245.225H273.079V295.905C273.092 303.601 266.862 309.836 259.172 309.836Z" fill="#A59AA5"/>
<path d="M273.312 275.041H202.535C197.882 275.041 194.121 271.277 194.121 266.62C194.121 261.963 197.882 258.199 202.535 258.199H273.312C277.965 258.199 281.727 261.963 281.727 266.62C281.727 271.264 277.965 275.041 273.312 275.041Z" fill="#C2B8C2"/>
<path d="M230.905 275.041H216.08C211.427 275.041 207.666 271.277 207.666 266.62C207.666 261.963 211.427 258.199 216.08 258.199H230.905C235.558 258.199 239.319 261.963 239.319 266.62C239.319 271.264 235.545 275.041 230.905 275.041Z" fill="#DBD5DB"/>
<path d="M273.312 300.56H202.535C197.882 300.56 194.121 296.796 194.121 292.14C194.121 287.483 197.882 283.719 202.535 283.719H273.312C277.965 283.719 281.727 287.483 281.727 292.14C281.727 296.796 277.965 300.56 273.312 300.56Z" fill="#C2B8C2"/>
<path d="M223.914 300.56H223.061C218.408 300.56 214.646 296.796 214.646 292.14C214.646 287.483 218.408 283.719 223.061 283.719H223.914C228.567 283.719 232.328 287.483 232.328 292.14C232.328 296.796 228.567 300.56 223.914 300.56Z" fill="#DBD5DB"/>
<path d="M337.536 129.429C337.536 78.6846 293.061 37.5508 238.207 37.5508C183.354 37.5508 138.879 78.6846 138.879 129.429C138.879 159.84 154.854 186.797 179.463 203.509C179.463 203.509 190.992 209.86 192.285 227.064V239.43C192.285 245.238 197.364 249.933 203.646 249.933H272.95C279.218 249.933 284.311 245.225 284.311 239.43V226.961C285.629 209.809 296.913 203.574 296.913 203.574C321.535 186.849 337.536 159.866 337.536 129.429Z" fill="#FDC72F"/>
<path d="M309.451 153.366C317.897 114.615 293.355 76.3494 254.634 67.8972C215.914 59.445 177.679 84.0068 169.233 122.758C160.788 161.508 185.33 199.774 224.05 208.226C262.771 216.678 301.006 192.116 309.451 153.366Z" fill="#FFD56C"/>
<path d="M227.739 249.947V146.362C227.739 138.704 221.535 132.482 213.87 132.482C206.219 132.482 200.002 138.691 200.002 146.362V154.11C200.002 161.768 206.206 167.989 213.87 167.989L237.808 168.054" stroke="white" stroke-width="2.2052" stroke-miterlimit="10"/>
<path d="M248.121 249.947V146.362C248.121 138.704 254.325 132.482 261.989 132.482C269.641 132.482 275.858 138.691 275.858 146.362V154.11C275.858 161.768 269.654 167.989 261.989 167.989L236.217 168.054" stroke="white" stroke-width="2.2052" stroke-miterlimit="10"/>
<path d="M179.012 85.9154C185.565 77.8697 193.695 71.1563 202.923 66.2539" stroke="white" stroke-width="13.1376" stroke-miterlimit="10" stroke-linecap="round" stroke-linejoin="round"/>
<path d="M163.166 151.044C162.093 145.896 161.537 140.554 161.537 135.082" stroke="white" stroke-width="9.0321" stroke-miterlimit="10" stroke-linecap="round" stroke-linejoin="round"/>
<path d="M317.167 135.082C317.167 142.377 316.159 149.44 314.285 156.14" stroke="white" stroke-width="9.0321" stroke-miterlimit="10" stroke-linecap="round" stroke-linejoin="round"/>
<path d="M0 326.807H468.544" stroke="#222021" stroke-width="0.9905" stroke-miterlimit="10"/>
<path d="M77.873 349.365H208.092" stroke="#222021" stroke-width="0.9905" stroke-miterlimit="10"/>
<path d="M476.403 212.822L454.753 212.874C453.319 212.874 452.143 211.71 452.143 210.274C452.143 208.838 453.306 207.661 454.74 207.661L476.39 207.609C477.824 207.609 479.001 208.774 479.001 210.209C479.001 211.658 477.837 212.822 476.403 212.822Z" fill="#9FDEFD"/>
<path d="M88.3684 38.1973L44.0874 38.249C42.6527 38.249 41.4766 37.0848 41.4766 35.649C41.4766 34.2132 42.6398 33.0361 44.0745 33.0361L88.3555 32.9844C89.7902 32.9844 90.9663 34.1485 90.9663 35.5843C90.9793 37.0331 89.8031 38.1973 88.3684 38.1973Z" fill="#9FDEFD"/>
<path d="M430.39 44.2894H426.254C425.168 44.2894 424.289 43.4098 424.289 42.3233V38.4427C424.289 37.3562 425.168 36.4766 426.254 36.4766H430.39C431.475 36.4766 432.354 37.3562 432.354 38.4427V42.3233C432.354 43.4098 431.475 44.2894 430.39 44.2894Z" fill="#9FDEFD"/>
<path d="M10.0693 206.86H5.93335C4.84765 206.86 3.96875 205.98 3.96875 204.894V201.013C3.96875 199.926 4.84765 199.047 5.93335 199.047H10.0693C11.155 199.047 12.0339 199.926 12.0339 201.013V204.894C12.0339 205.967 11.155 206.847 10.0693 206.86Z" fill="#9FDEFD"/>
<path d="M111.504 165.802H107.873C106.916 165.802 106.141 165.026 106.141 164.082V160.667C106.141 159.71 106.916 158.934 107.86 158.934H111.492C112.448 158.934 113.224 159.71 113.224 160.654V164.069C113.236 165.026 112.461 165.802 111.504 165.802Z" fill="white"/>
<path d="M248.806 20.3982H227.234C225.812 20.3982 224.662 19.247 224.662 17.8241C224.662 16.4012 225.812 15.25 227.234 15.25H248.806C250.228 15.25 251.378 16.4012 251.378 17.8241C251.378 19.2599 250.228 20.3982 248.806 20.3982Z" fill="white"/>
<path d="M456.614 125.172H436.077C433.336 125.172 431.113 122.948 431.113 120.205C431.113 117.463 433.336 115.238 436.077 115.238H456.614C459.354 115.238 461.577 117.463 461.577 120.205C461.577 122.948 459.354 125.172 456.614 125.172Z" fill="#FBA09F"/>
<path d="M442.163 120.219C442.163 120.917 441.595 121.486 440.897 121.499C440.199 121.499 439.63 120.93 439.617 120.232C439.617 119.533 440.186 118.964 440.884 118.951C441.595 118.951 442.163 119.52 442.163 120.219Z" fill="white"/>
<path d="M447.605 120.205C447.605 120.904 447.036 121.473 446.338 121.486C445.64 121.499 445.072 120.917 445.059 120.218C445.046 119.52 445.628 118.951 446.325 118.938C447.036 118.925 447.605 119.494 447.605 120.205Z" fill="white"/>
<path d="M453.06 120.18C453.06 120.878 452.491 121.447 451.793 121.46C451.095 121.46 450.527 120.891 450.514 120.193C450.501 119.494 451.083 118.925 451.781 118.912C452.491 118.912 453.06 119.481 453.06 120.18Z" fill="white"/>
<path d="M72.1871 117.735C82.2521 117.735 90.4113 109.569 90.4113 99.4964C90.4113 89.4235 82.2521 81.2578 72.1871 81.2578C62.1222 81.2578 53.9629 89.4235 53.9629 99.4964C53.9629 109.569 62.1222 117.735 72.1871 117.735Z" fill="#005FEA"/>
<path d="M78.3773 94.801C76.878 93.3393 74.4868 93.3652 73.0263 94.8527L72.057 95.8358L71.0617 94.8527C69.5754 93.391 67.1842 93.404 65.7108 94.8915C64.2503 96.3791 64.2632 98.7721 65.7496 100.247L69.4332 103.869C69.4461 103.881 69.4461 103.881 69.459 103.894C70.0407 104.476 70.7774 104.813 71.527 104.929C72.6903 105.11 73.9182 104.748 74.81 103.843L78.429 100.143C79.9024 98.6686 79.8766 96.2627 78.3773 94.801Z" fill="white"/>
<path d="M378.69 61.6478H344.051C340.987 61.6478 338.506 59.1642 338.506 56.0986V26.3606C338.506 23.9676 340.445 22.0273 342.836 22.0273H378.703C381.094 22.0273 383.032 23.9676 383.032 26.3606V57.3016C383.02 59.7075 381.081 61.6478 378.69 61.6478Z" fill="#1FA5F8"/>
<path d="M357.093 50.3814C360.867 50.4461 364.693 50.4978 368.17 50.2521C369.269 50.1745 370.225 48.4282 368.881 47.872C369.437 47.5874 370.018 47.3029 370.264 46.669C370.497 46.074 370.212 45.2591 369.592 45.1039C370.897 45.4273 371.414 43.3447 370.393 42.6721C370.936 42.2064 371.388 41.5984 371.492 40.8999C371.608 40.2014 371.324 39.3995 370.69 39.0631C370.277 38.8433 369.799 38.8303 369.333 38.8303C367.756 38.8174 366.193 38.8044 364.616 38.7915C365.042 36.3338 365.171 33.6562 363.918 31.4961C363.543 30.8493 362.535 30.0603 361.733 30.5647C360.984 31.0304 361.191 32.1946 361.229 32.9319C361.384 35.9975 359.652 39.0761 356.951 40.5119C356.951 40.5378 357.132 47.0571 357.093 50.3814Z" fill="#FAFAFA"/>
<path d="M355.723 40.5371H350.01V50.3678H355.723V40.5371Z" fill="#FAFAFA"/>
<path d="M425.437 327.325C424.713 327.325 424.028 326.872 423.757 326.148L375.12 192.502L326.484 326.148C326.148 327.079 325.126 327.558 324.196 327.222C323.265 326.885 322.787 325.864 323.123 324.932L373.44 186.681C373.699 185.97 374.371 185.504 375.12 185.504C375.87 185.504 376.542 185.97 376.801 186.681L427.117 324.932C427.454 325.864 426.975 326.885 426.045 327.222C425.851 327.286 425.644 327.325 425.437 327.325Z" fill="#21529F"/>
<path d="M380.924 205.01H354.454C353.471 205.01 352.67 204.208 352.67 203.225C352.67 202.241 353.471 201.439 354.454 201.439H380.924C381.906 201.439 382.708 202.241 382.708 203.225C382.721 204.208 381.919 205.01 380.924 205.01Z" fill="#21529F"/>
<path d="M387.748 224.504H362.518C361.536 224.504 360.734 223.702 360.734 222.719C360.734 221.736 361.536 220.934 362.518 220.934H387.748C388.73 220.934 389.531 221.736 389.531 222.719C389.531 223.702 388.73 224.504 387.748 224.504Z" fill="#21529F"/>
<path d="M359.727 224.504H335.558C334.614 224.504 333.852 223.702 333.852 222.719C333.852 221.736 334.614 220.934 335.558 220.934H359.727C360.671 220.934 361.434 221.736 361.434 222.719C361.446 223.702 360.671 224.504 359.727 224.504Z" fill="#21529F"/>
<path d="M394.56 244.01H369.331C368.348 244.01 367.547 243.208 367.547 242.224C367.547 241.241 368.348 240.439 369.331 240.439H394.56C395.542 240.439 396.344 241.241 396.344 242.224C396.344 243.208 395.542 244.01 394.56 244.01Z" fill="#21529F"/>
<path d="M354.455 244.01H329.225C328.243 244.01 327.441 243.208 327.441 242.224C327.441 241.241 328.243 240.439 329.225 240.439H354.455C355.437 240.439 356.238 241.241 356.238 242.224C356.238 243.208 355.45 244.01 354.455 244.01Z" fill="#21529F"/>
<path d="M401.371 263.504H376.141C375.159 263.504 374.357 262.702 374.357 261.719C374.357 260.736 375.159 259.934 376.141 259.934H401.371C402.353 259.934 403.154 260.736 403.154 261.719C403.154 262.702 402.353 263.504 401.371 263.504Z" fill="#21529F"/>
<path d="M347.035 263.504H321.805C320.823 263.504 320.021 262.702 320.021 261.719C320.021 260.736 320.823 259.934 321.805 259.934H347.035C348.017 259.934 348.818 260.736 348.818 261.719C348.831 262.702 348.03 263.504 347.035 263.504Z" fill="#21529F"/>
<path d="M408.183 282.996H382.954C381.971 282.996 381.17 282.194 381.17 281.211C381.17 280.228 381.971 279.426 382.954 279.426H408.183C409.165 279.426 409.967 280.228 409.967 281.211C409.98 282.194 409.178 282.996 408.183 282.996Z" fill="#21529F"/>
<path d="M340.197 282.996H314.967C313.985 282.996 313.184 282.194 313.184 281.211C313.184 280.228 313.985 279.426 314.967 279.426H340.197C341.179 279.426 341.98 280.228 341.98 281.211C341.98 282.194 341.179 282.996 340.197 282.996Z" fill="#21529F"/>
<path d="M415.007 302.49H389.778C388.795 302.49 387.994 301.688 387.994 300.705C387.994 299.722 388.795 298.92 389.778 298.92H415.007C415.99 298.92 416.791 299.722 416.791 300.705C416.791 301.688 415.99 302.49 415.007 302.49Z" fill="#21529F"/>
<path d="M333.179 302.49H307.95C306.967 302.49 306.166 301.688 306.166 300.705C306.166 299.722 306.967 298.92 307.95 298.92H333.179C334.162 298.92 334.963 299.722 334.963 300.705C334.963 301.688 334.162 302.49 333.179 302.49Z" fill="#21529F"/>
<path d="M375.004 189.074H348.534C347.551 189.074 346.75 188.272 346.75 187.289C346.75 186.306 347.551 185.504 348.534 185.504H375.004C375.986 185.504 376.788 186.306 376.788 187.289C376.788 188.272 375.986 189.074 375.004 189.074Z" fill="#21529F"/>
<path d="M382.955 272.986L383.769 258.654L391.447 259.663L389.934 274.72L382.58 273.413L382.955 272.986Z" fill="#E0895A"/>
<path d="M391.008 271.059C391.008 271.059 385.838 273.724 382.956 269.766L369.01 277.268L392.908 277.113L391.008 271.059Z" fill="black"/>
<path d="M392.922 277.12L369.023 277.271L369.037 279.432L392.935 279.28L392.922 277.12Z" fill="#A59AA5"/>
<path d="M391.241 177.02C391.241 177.02 384.339 181.094 383.525 203.873C382.698 226.652 381.289 264.901 381.289 264.901H392.922L398.906 190.692L397.342 177.032H391.241V177.02Z" fill="#FAC030"/>
<path d="M403.028 272.985L402.266 258.652L409.956 259.661L410.008 274.718L402.666 273.411L403.028 272.985Z" fill="#E0895A"/>
<path d="M411.08 271.057C411.08 271.057 405.91 273.722 403.028 269.764L389.082 277.266L412.98 277.111L411.08 271.057Z" fill="black"/>
<path d="M412.994 277.118L389.096 277.27L389.109 279.43L413.008 279.278L412.994 277.118Z" fill="#A59AA5"/>
<path d="M406.997 179.968C406.997 179.968 413.976 188.052 412.942 202.204L412.606 265.043L399.397 264.693L395.209 179.166L406.997 179.968Z" fill="#FAC030"/>
<path d="M396.875 216.316L396.139 198.104L391.137 191.145" stroke="#EAAE28" stroke-width="0.75" stroke-miterlimit="10"/>
<path d="M347.992 151.432L362.856 165.571C364.795 167.407 367.948 166.916 369.228 164.562L370.663 161.923L350.564 147.332L347.992 151.432Z" fill="#E0895A"/>
<path d="M350.888 149.454C350.113 151.847 347.553 153.154 345.162 152.377C342.771 151.601 341.466 149.04 342.241 146.647C343.017 144.254 345.576 142.948 347.967 143.724C350.358 144.5 351.664 147.061 350.888 149.454Z" fill="#E0895A"/>
<path d="M347.735 143.658L343.547 141.084C343.211 140.838 342.72 140.916 342.475 141.239C342.268 141.524 342.294 141.912 342.565 142.158L346.533 145.689L347.735 143.658Z" fill="#E0895A"/>
<path d="M365.144 159.117L384.286 152.041L383.381 161.096C383.381 161.096 373.08 165.584 366.579 166.606C360.104 167.628 365.144 159.117 365.144 159.117Z" fill="#E0895A"/>
<path d="M389.289 151.691C389.289 151.691 387.531 148.961 383.007 150.863C378.483 152.764 370.186 155.558 370.186 155.558L377.385 167.898L391.008 162.776L389.289 151.691Z" fill="#1FA5F8"/>
<path d="M407.524 148.961L397.43 148.004L384.763 150.319C384.763 150.319 383.923 168.571 386.03 177.936C386.405 179.579 387.904 180.704 389.571 180.588L407.653 180.846C407.653 180.846 410.161 179.061 410.238 175.297L408.946 150.436C408.894 149.66 408.286 149.026 407.524 148.961Z" fill="#1FA5F8"/>
<path d="M384.13 164.794L383.51 157.822" stroke="#1C96D3" stroke-width="0.75" stroke-miterlimit="10"/>
<path d="M438.442 192.386L379.53 186.242C378.212 186.112 377.255 184.935 377.385 183.616L378.096 176.514C378.225 175.195 379.401 174.238 380.719 174.367L439.631 180.511C440.95 180.641 441.906 181.818 441.777 183.137L441.066 190.239C440.937 191.558 439.761 192.515 438.442 192.386Z" fill="#005FEA"/>
<path d="M422.054 180.278C422.002 179.942 424.367 175.88 424.367 175.88L417.737 162.195C416.819 159.466 411.067 149.984 408.702 151.64C406.97 152.856 408.095 163.489 409.012 165.39L416.043 178.817L422.054 180.278Z" fill="#E0895A"/>
<path d="M406.543 148.846C406.543 148.846 412.359 149.273 414.621 152.817C417.478 157.305 422.428 164.588 422.428 164.588L407.564 170.163L406.543 148.846Z" fill="#1FA5F8"/>
<path d="M409.581 169.399L404.023 159.84" stroke="#1C96D3" stroke-width="0.75" stroke-miterlimit="10"/>
<path d="M417.852 173.372L401.631 185.104L404.216 188.907L421.794 181.288C424.534 180.098 425.335 176.58 423.371 174.329C421.988 172.725 419.687 172.337 417.852 173.372Z" fill="#E0895A"/>
<path d="M404.669 188.313C404.669 188.313 402.472 193.577 398.31 193.047C393.502 192.439 393.088 188.623 395.273 187.86L398.517 188.106C398.517 188.106 398.581 185.997 400.598 185.105C401.063 184.898 401.632 184.756 402.33 184.717L404.669 188.313Z" fill="#E0895A"/>
<path d="M401.346 184.846L396.861 185.661C396.564 185.725 396.357 185.984 396.357 186.282C396.357 186.618 396.616 186.889 396.939 186.915L401.282 187.278L401.346 184.846Z" fill="#E0895A"/>
<path d="M382.864 134.851C384.234 133.699 385.836 131.099 385.836 131.099L387.194 127.633L391.472 128.81L389.404 133.079L388.228 133.893L396.887 143.983C396.887 143.983 390.619 150.049 384.57 146.221C379.477 143 380.305 137.011 382.864 134.851Z" fill="#201C30"/>
<path d="M406.542 129.922C406.542 129.922 407.046 133.078 409.695 134.85C412.332 136.609 413.082 142.999 407.989 146.22C401.94 150.049 395.672 143.982 395.672 143.982L406.542 129.922Z" fill="#201C30"/>
<path d="M389.469 124.191C389.469 124.191 401.644 118.953 405.78 127.011C408.21 131.758 405.302 140.076 399.331 142.443C393.631 144.707 395.246 126.132 395.246 126.132L389.469 124.191Z" fill="#201C30"/>
<path d="M391.007 135.627C391.136 137.166 389.999 138.511 388.461 138.641C386.923 138.77 385.579 137.632 385.449 136.092C385.32 134.553 386.458 133.208 387.996 133.079C389.521 132.962 390.878 134.1 391.007 135.627Z" fill="#CC6E44"/>
<path d="M391.873 143.413L392.351 149.466C392.519 151.588 393.915 152.635 395.996 152.454C397.78 152.299 399.382 151.238 399.447 149.453L398.245 139.959L391.873 143.413Z" fill="#E0895A"/>
<path d="M392.209 147.786L399.189 141.422L391.809 142.793L392.209 147.786Z" fill="#CC6E44"/>
<path d="M393.734 144.371C390.154 144.436 387.155 141.655 387.013 138.731L386.703 131.837C386.509 128.176 389.262 125.02 392.92 124.71C396.655 124.399 400.597 127.116 400.92 130.854L401.114 136.403C401.244 140.711 398.012 144.009 393.734 144.371Z" fill="#E0895A"/>
<path d="M400.002 135.781C400.002 135.781 399.73 133.298 397.636 132.069C395.555 130.84 389.843 129.055 390.424 124.644C390.424 124.644 399.265 122.044 402.522 127.839C405.792 133.621 400.002 135.781 400.002 135.781Z" fill="#201C30"/>
<path d="M404.513 135.873C404.642 137.412 403.505 138.757 401.967 138.887C400.429 139.016 399.085 137.878 398.955 136.338C398.826 134.799 399.963 133.454 401.502 133.324C403.04 133.195 404.384 134.333 404.513 135.873Z" fill="#E0895A"/>
<path d="M392.764 124.645C392.764 124.645 392.118 128.279 386.496 130.711C386.496 130.711 385.1 128.072 388.835 124.58C389.184 124.257 389.636 124.075 390.115 124.075L394.444 124.062L392.764 124.645Z" fill="#201C30"/>
<path d="M402.394 148.444L396.758 147.836L389.301 149.479C389.301 149.479 389.327 154.847 395.363 154.485C401.411 154.122 402.394 148.444 402.394 148.444Z" fill="#E0895A"/>
<path d="M398.594 327.325C397.87 327.325 397.185 326.872 396.913 326.148L348.277 192.502L299.64 326.148C299.304 327.079 298.27 327.558 297.352 327.222C296.421 326.885 295.943 325.864 296.279 324.932L346.596 186.681C346.855 185.97 347.527 185.504 348.277 185.504C349.026 185.504 349.698 185.97 349.957 186.681L400.274 324.932C400.61 325.864 400.132 326.885 399.201 327.222C399.007 327.286 398.8 327.325 398.594 327.325Z" fill="#1FA5F8"/>
<path d="M74.3062 303.022L73.311 317.755L66.5254 317.47L66.758 302.543L74.3062 303.022Z" fill="#FDBC9B"/>
<path d="M73.8146 316.126L86.1838 321.765C86.998 322.166 87.4246 323.085 87.2178 323.964H65.4004L66.2147 316.035L73.8146 316.126Z" fill="black"/>
<path d="M65.0098 326.316H87.4863V323.962H65.0098V326.316Z" fill="#C2B8C2"/>
<path d="M52.2183 303.022L51.2231 317.755L44.4375 317.47L44.6702 302.543L52.2183 303.022Z" fill="#FDBC9B"/>
<path d="M51.7259 316.126L64.0951 321.765C64.9094 322.166 65.3359 323.085 65.1291 323.964H43.2988L44.1131 316.035L51.7259 316.126Z" fill="black"/>
<path d="M42.9121 326.316H65.3887V323.962H42.9121V326.316Z" fill="#C2B8C2"/>
<path d="M70.3901 233.818L44.3592 235.797L40.9082 308.985H55.1645L59.7916 253.79L65.9698 277.371L63.863 309.877L76.0125 309.916L80.2002 273.969L70.3901 233.818Z" fill="#005FEA"/>
<path d="M65.6073 250.607L59.791 253.789" stroke="#0759AA" stroke-width="0.75" stroke-miterlimit="10"/>
<path d="M70.0528 211.491L69.8848 218.67L73.9561 218.722L73.6589 210.986L70.0528 211.491Z" fill="#FFAC9D"/>
<path d="M70.2993 199.293C70.2993 199.293 76.8264 203.161 75.8958 215.475L69.834 214.117L70.2993 199.293Z" fill="#FBA09F"/>
<path d="M57.1802 195.244C50.6272 195.244 43.1953 197.508 43.1953 197.508L43.4797 239.211L71.1521 237.089L70.8548 200.612C70.8548 199.965 70.4929 199.37 69.9242 199.073L62.2726 195.8C62.2855 195.8 58.5114 195.244 57.1802 195.244Z" fill="#FBA09F"/>
<path d="M70.959 214.362V206.316" stroke="#ED8E8E" stroke-width="0.75" stroke-miterlimit="10"/>
<path d="M46.4792 211.569L44.6955 232.2C44.6955 232.2 42.7309 236.353 39.2541 232.032C35.7773 227.712 38.75 210.857 38.75 210.857L46.4792 211.569Z" fill="#FDBC9B"/>
<path d="M47.3959 215.901C47.3959 215.901 49.6449 198.374 44.8239 197.481C39.8348 196.55 35.1172 208.36 35.1172 218.113L47.3959 215.901Z" fill="#FBA09F"/>
<path d="M46.0781 216.017L47.9264 215.474L48.2754 207.195" stroke="#ED8E8E" stroke-width="0.75" stroke-miterlimit="10"/>
<path d="M58.2906 212.888C58.2906 212.888 59.2988 209.253 62.9307 208.891C66.5626 208.541 67.6354 211.4 66.9504 213.276C66.2653 215.164 63.9001 218.217 60.3069 216.652C56.7396 215.087 58.2906 212.888 58.2906 212.888Z" fill="#FDBC9B"/>
<path d="M64.1465 208.891C64.1465 208.891 67.7138 209.305 70.3763 210.598C70.6478 210.727 70.7899 211.025 70.7512 211.322C70.6995 211.723 70.3117 212.008 69.9239 211.93L64.9995 211.012L64.1465 208.891Z" fill="#FDBC9B"/>
<path d="M43.9316 233.247L60.3205 216.651L58.2912 212.887L42.3418 223.028L43.9316 233.247Z" fill="#FDBC9B"/>
<path d="M45.6635 220.906L42.3418 223.028" stroke="#EFA987" stroke-width="0.4825" stroke-miterlimit="10"/>
<path d="M80.6901 217.053L73.7881 237.542C73.5555 238.241 72.8446 238.681 72.1079 238.59L55.3442 236.391C54.3619 236.262 53.7544 235.266 54.0775 234.335L61.1734 213.871C61.4189 213.173 62.1169 212.746 62.8407 212.836L79.3976 215.009C80.3928 215.152 81.0003 216.135 80.6901 217.053Z" fill="#090B0C"/>
<path d="M80.3918 215.539L81.2707 216.677L55.1493 236.856L54.2188 235.627L80.3918 215.539Z" fill="#090B0C"/>
<path d="M81.4792 218.075L74.5772 238.564C74.3446 239.262 73.6337 239.702 72.897 239.612L56.1333 237.413C55.151 237.283 54.5435 236.287 54.8666 235.356L61.9624 214.893C62.208 214.194 62.9059 213.767 63.6297 213.858L80.1867 216.031C81.1819 216.16 81.7894 217.143 81.4792 218.075Z" fill="#3D5057"/>
<path d="M80.6905 224.025L79.1266 228.268C78.9327 228.785 78.4157 229.096 77.8599 229.031C76.2572 228.824 75.2232 227.207 75.7014 225.655L76.1409 224.232C76.4899 223.094 77.5756 222.343 78.7647 222.395L79.6436 222.434C80.4449 222.473 80.9748 223.275 80.6905 224.025Z" fill="#FDBC9B"/>
<path d="M63.2152 189.05L62.388 195.776C62.1036 198.143 60.5397 199.217 58.2908 198.919C56.3779 198.66 54.3745 197.47 54.7235 195.401L55.7187 184.846L63.2152 189.05Z" fill="#FDBC9B"/>
<path d="M62.4537 195.245C62.4537 195.245 54.8926 192.503 55.526 185.712C55.7198 183.694 63.2551 188.752 63.2551 188.752L62.4537 195.245Z" fill="#EFA987"/>
<path d="M64.0684 196.564L60.7984 195.051L55.0338 195.219L51.6604 195.698C51.6604 195.698 50.4067 200.755 58.9372 201.04C65.7745 201.247 64.0684 196.564 64.0684 196.564Z" fill="#FDBC9B"/>
<path d="M67.7255 180.317C67.7255 180.317 74.2914 175.428 71.2928 170.888C68.2942 166.348 62.8398 170.28 62.8398 170.28L67.7255 180.317Z" fill="#171E21"/>
<path d="M62.4534 169.077C62.4534 169.077 43.9448 166.451 52.0875 180.797L54.1943 174.976L62.4534 169.077Z" fill="#171E21"/>
<path d="M68.0763 172.996C68.0763 172.996 71.1783 175.583 67.2879 181.288L66.2539 174.018L68.0763 172.996Z" fill="#171E21"/>
<path d="M64.5978 182.957C64.4169 184.522 65.5026 185.932 67.0019 186.113C68.5141 186.294 69.8842 185.182 70.0651 183.617C70.2461 182.052 69.1604 180.642 67.6611 180.461C66.1488 180.28 64.7788 181.392 64.5978 182.957Z" fill="#E49D7D"/>
<path d="M60.3589 191.415C64.2364 191.609 67.584 188.608 67.8554 185.349L68.3853 178.519C68.7214 174.431 65.865 170.81 61.9228 170.331C57.8773 169.852 53.5087 172.75 53.0305 176.928L52.6815 182.257C52.3584 187.056 55.7447 190.872 60.3589 191.415Z" fill="#FDBC9B"/>
<path d="M68.4109 176.89C68.4109 176.89 68.6694 175.092 65.1409 174.652C61.6253 174.213 57.0886 174.51 54.5811 177.653L54.5294 182.595L51.3887 179.49L53.0431 172.13L62.4395 169.064L68.0619 172.984L68.4109 176.89Z" fill="#171E21"/>
<path d="M49.1273 181.947C48.9464 183.499 50.0192 184.896 51.5185 185.077C53.0178 185.258 54.3749 184.146 54.5558 182.607C54.7368 181.054 53.664 179.657 52.1647 179.476C50.6654 179.295 49.3083 180.408 49.1273 181.947Z" fill="#FDBC9B"/>
<path d="M65.2316 170.5C65.2316 170.5 66.0717 168.353 63.1249 167.163C60.5916 166.141 57.9678 166.581 52.3066 170.409L65.2316 170.5Z" fill="#171E21"/>
<path d="M67.1971 188.35C67.1971 187.911 66.9256 187.523 66.525 187.341C65.9821 187.096 65.0386 186.772 63.6685 186.552C61.9624 186.281 59.5067 186.824 58.1884 187.173C57.6197 187.328 57.0251 187.057 56.7537 186.527C55.8748 184.767 54.2592 180.654 55.487 175.881L53.5354 177.304L53.7939 180.318C53.7939 180.318 55.319 183.577 52.9279 185.026C52.9279 185.026 52.8116 191.765 59.0543 192.994C60.825 193.343 62.9448 193.046 64.5862 192.257C65.9563 191.597 67.1971 190.084 67.1971 188.35Z" fill="#171E21"/>
<path d="M54.7628 179.129C54.7628 179.129 58.8729 178.171 57.2832 174.161C55.7063 170.152 53.7676 175.248 53.7676 175.248L54.7628 179.129Z" fill="#171E21"/>
<path d="M108.854 329.51L115.445 319.02L123.2 322.952L115.238 335.163L109.022 332.356L108.854 329.51Z" fill="#FDBC9B"/>
<path d="M108.724 328.695C108.724 328.695 112.511 334.814 117.578 333.145L123.394 347.632L102.973 332.86L108.724 328.695Z" fill="black"/>
<path d="M102.973 332.862L101.686 334.645L122.1 349.415L123.388 347.633L102.973 332.862Z" fill="#C2B8C2"/>
<path d="M130.361 266.645L122.413 300.379L109.035 322.848L121.74 330.221L137.806 301.608L143.118 280.045L130.361 266.645Z" fill="#005FEA"/>
<path d="M121.78 330.92L108.066 322.784L112.009 316.277L125.696 324.905L121.78 330.92Z" fill="#2783F2"/>
<path d="M170.119 339.833L165.143 328.488L172.742 324.271L178.378 337.711L172.562 341.294L170.119 339.833Z" fill="#FDBC9B"/>
<path d="M169.369 339.482C169.369 339.482 176.555 339.78 178.016 334.645L193.255 337.956L169.679 346.377L169.369 339.482Z" fill="black"/>
<path d="M193.277 337.954L169.596 346.588L170.348 348.654L194.029 340.02L193.277 337.954Z" fill="#C2B8C2"/>
<path d="M145.742 257.371V265.029L165.866 296.151L178.455 330.222L166.138 335.15L153.432 303.951L129.405 272.971C129.405 272.971 121.327 262.506 131.007 253.322L145.742 257.371Z" fill="#005FEA"/>
<path d="M141.14 288.092L129.004 272.428" stroke="#0759AA" stroke-width="0.75" stroke-miterlimit="10"/>
<path d="M179.399 329.912L165.078 335.798L162.338 328.696L177.034 323.121L179.399 329.912Z" fill="#2783F2"/>
<path d="M147.164 229.768L156.508 236.572L167.779 222.123L171.256 224.037C171.256 224.037 167.081 238.279 161.51 245.471C160.541 246.726 158.848 247.153 157.374 246.583C154.35 245.393 148.74 242.651 141.748 236.701L147.164 229.768Z" fill="#EFA987"/>
<path d="M149.968 231.812L142.898 243.609L135.971 238.266C133.14 236.08 132.468 232.096 134.433 229.108C136.643 225.732 141.218 224.736 144.346 227.271L149.968 231.812Z" fill="#E9B022"/>
<path d="M144.346 227.272L133.308 223.469C133.308 223.469 123.821 231.941 131.02 253.323L145.742 257.372C145.742 257.372 146.879 251.448 147.138 244.54C152.747 236.663 144.346 227.272 144.346 227.272Z" fill="#F7C12E"/>
<path d="M199.161 239.922H171.023C167.494 239.922 164.625 237.063 164.625 233.519V205.889C164.625 202.358 167.481 199.486 171.023 199.486H199.161C202.689 199.486 205.558 202.345 205.558 205.889V233.519C205.558 237.063 202.702 239.922 199.161 239.922Z" fill="#1FA5F8"/>
<path d="M192.891 218.178L191.599 217.945C191.443 217.376 191.224 216.846 190.926 216.328L191.676 215.255C191.947 214.854 191.909 214.323 191.56 213.987L190.784 213.211C190.435 212.875 189.905 212.836 189.518 213.12L188.445 213.871C187.941 213.573 187.398 213.353 186.829 213.198L186.609 211.879C186.532 211.413 186.131 211.064 185.653 211.051H184.541C184.063 211.051 183.65 211.4 183.559 211.879L183.327 213.172C182.758 213.327 182.228 213.547 181.711 213.845L180.638 213.12C180.237 212.849 179.708 212.888 179.371 213.237L178.596 214.013C178.26 214.349 178.208 214.893 178.48 215.281L179.229 216.354C178.932 216.859 178.712 217.402 178.557 217.971L177.265 218.204C176.786 218.282 176.438 218.695 176.438 219.187V220.286C176.438 220.765 176.786 221.179 177.265 221.27L178.557 221.502C178.712 222.072 178.932 222.602 179.229 223.119L178.48 224.193C178.208 224.594 178.247 225.124 178.596 225.461L179.371 226.237C179.708 226.573 180.25 226.625 180.638 226.353L181.711 225.603C182.215 225.9 182.758 226.12 183.327 226.275L183.559 227.569C183.637 228.048 184.05 228.397 184.541 228.397H185.653C186.131 228.397 186.545 228.048 186.635 227.569L186.868 226.275C187.437 226.12 187.967 225.9 188.484 225.603L189.531 226.34C189.931 226.612 190.461 226.573 190.797 226.224L191.573 225.448C191.909 225.111 191.96 224.568 191.689 224.18L190.939 223.093C191.237 222.589 191.456 222.046 191.611 221.489L192.904 221.257C193.382 221.179 193.731 220.765 193.731 220.274V219.174C193.718 218.683 193.369 218.269 192.891 218.178ZM185.097 222.667C183.469 222.667 182.137 221.347 182.137 219.704C182.137 218.075 183.456 216.742 185.097 216.742C186.726 216.742 188.057 218.062 188.057 219.704V219.717C188.044 221.347 186.726 222.667 185.097 222.667Z" fill="white"/>
<path d="M144.668 233.804L152.785 243.635L166.537 231.527L169.432 234.244C169.432 234.244 161.845 246.998 154.672 252.573C153.418 253.543 151.673 253.543 150.381 252.612C147.744 250.71 143 246.649 137.701 239.159L144.668 233.804Z" fill="#FDBC9B"/>
<path d="M176.593 227.426C176.399 227.219 176.076 227.193 175.843 227.349L173.814 228.616C173.762 228.577 173.71 228.539 173.659 228.487L175.791 226.34C176.05 226.081 176.05 225.68 175.804 225.434C175.546 225.163 175.093 225.15 174.796 225.408L172.431 227.53C172.353 227.478 172.289 227.413 172.211 227.362L174.447 224.283C174.628 224.037 174.589 223.701 174.357 223.507C174.085 223.274 173.672 223.313 173.426 223.572L170.88 226.353C170.789 226.288 170.712 226.223 170.621 226.159L172.03 223.597C172.185 223.326 172.095 222.989 171.836 222.821C171.526 222.627 171.1 222.718 170.906 223.015L169.458 225.305C169.471 225.357 168.941 226.482 168.334 227.775L167.92 225.525C167.881 225.305 167.7 225.124 167.468 225.085C167.106 225.007 166.77 225.266 166.744 225.602C166.64 227.038 166.718 231.242 166.537 231.527L169.432 234.243L175.042 229.586L176.554 228.164C176.774 227.969 176.787 227.646 176.593 227.426Z" fill="#FDBC9B"/>
<path d="M147.02 236.351L137.107 246.143L131.717 239.249C129.52 236.429 129.856 232.393 132.506 229.987C135.491 227.271 140.157 227.723 142.574 230.957L147.02 236.351Z" fill="#FAC030"/>
<path d="M140.557 242.949L137.107 246.144L131.717 239.236" stroke="#EAAE28" stroke-width="0.75" stroke-miterlimit="10"/>
<path d="M147.02 236.351L141.85 230.143" stroke="#EAAE28" stroke-width="0.75" stroke-miterlimit="10"/>
<path d="M143.002 213.21L148.456 211.826C152.192 213.999 152.76 220.118 152.76 220.118H143.273L143.002 213.21Z" fill="#171E21"/>
<path d="M144.85 217.287L141.903 226.044L133.902 222.784L138.336 209.629L144.85 217.287Z" fill="#FDBC9B"/>
<path d="M143.118 222.422C143.169 222.266 141.605 216.963 141.605 216.963L144.927 218.476L143.118 222.422Z" fill="#EFA987"/>
<path d="M147.229 199.099C147.229 199.099 151.378 199.798 151.61 205.024C151.61 205.024 151.727 208.814 151.869 214.272C151.933 217.157 149.323 219.498 146.505 218.877C144.786 218.502 142.86 217.778 141.154 216.458L138.75 214.208C133.14 207.934 138.285 197.884 146.621 199.009C146.815 199.035 147.022 199.061 147.229 199.099Z" fill="#FDBC9B"/>
<path d="M151.158 210.457L153.045 212.255C153.303 212.501 153.161 212.941 152.799 212.979L150.912 213.173L151.158 210.457Z" fill="#FDBC9B"/>
<path d="M141.695 208.464C141.695 208.464 139.24 195.761 150.187 200.936C150.187 200.936 145.935 193.989 136.293 198.193C134.277 199.073 132.183 201.543 131.808 203.717C131.2 207.235 133.152 210.223 136.267 215.746L139.938 211.478C140.17 210.585 141.695 208.464 141.695 208.464Z" fill="#171E21"/>
<path d="M138.168 204.739L140.365 209.977C154.402 205.592 148.004 199.008 148.004 199.008C148.004 199.008 136.656 195.645 138.168 204.739Z" fill="#171E21"/>
<path d="M145.225 207.249L143.248 210.185L140.779 206.744L145.225 207.249Z" fill="#171E21"/>
<path d="M145.974 199.706C145.974 199.706 150.783 200.508 151.481 203.846C151.481 203.846 155.268 199.939 147.435 198.322C142.782 197.352 145.974 199.706 145.974 199.706Z" fill="#171E21"/>
<path d="M140.856 211.465C140.856 211.465 139.951 217.829 140.546 220.092L128.797 219.459C128.797 219.459 130.968 215.306 131.136 212.124C131.278 209.602 129.999 203.846 133.889 199.939L135.828 207.507L140.856 211.465Z" fill="#171E21"/>
<path d="M137.793 210.198C137.664 211.724 138.801 213.069 140.327 213.186C141.852 213.315 143.196 212.177 143.312 210.65C143.441 209.124 142.304 207.779 140.779 207.662C139.254 207.533 137.91 208.671 137.793 210.198Z" fill="#FDBC9B"/>
<path d="M133.295 223.455C133.295 223.455 137.483 227.452 144.333 227.258L139.525 221.592L134.846 220.609L133.295 223.455Z" fill="#FDBC9B"/>
</g>
<defs>
<clipPath id="clip0_4855_28004">
<rect width="479" height="350" fill="white"/>
</clipPath>
</defs>
</svg>
