<svg width="45" height="45" viewBox="0 0 45 45" fill="none" xmlns="http://www.w3.org/2000/svg">
<path d="M36.3246 8.5C37.342 10.2145 37.8397 12.0964 38.049 14.0579C38.6315 19.4909 36.7061 24.1099 33.4433 28.302C31.6396 30.6205 29.7743 32.8895 28.0691 35.2848C26.4199 37.6004 25.0593 40.052 24.2702 42.8028C24.1266 43.3025 23.9489 43.8076 23.6959 44.2592C23.1448 45.2434 21.8785 45.2434 21.3096 44.2702C21.1168 43.9408 20.9719 43.5702 20.8707 43.2009C19.9216 39.7322 18.1002 36.7316 15.9464 33.9066C15.7973 33.7103 15.677 33.4921 15.543 33.2834C18.4092 29.8696 21.2836 26.4627 24.1348 23.0351C24.7543 22.2911 25.4996 21.6405 25.9249 20.7428C26.6496 20.0825 27.3019 19.3605 27.8339 18.5328C27.92 18.5177 27.9611 18.4655 27.9583 18.3777L27.9528 18.3832C28.0417 18.3187 28.1498 18.2692 28.2181 18.1869C29.5077 16.6248 30.7835 15.0517 32.0826 13.4979C33.4857 11.8246 34.9092 10.1664 36.3246 8.5Z" fill="#35A853"/>
<path d="M25.9249 20.7438C25.4982 21.6415 24.753 22.2922 24.1349 23.0361C21.2837 26.4637 18.4092 29.8706 15.543 33.2844C13.1499 30.3195 10.6146 27.4575 8.84369 24.0382C8.69053 23.7417 8.47447 23.4617 8.47857 23.1007C9.17052 22.2633 9.85836 21.4246 10.553 20.5887C11.8549 19.0238 13.1212 17.4261 14.4763 15.9093C15.331 14.9512 15.997 13.8173 17.0568 13.0459C17.1293 13.2683 16.9816 13.4385 16.9159 13.6252C16.0736 16.0026 16.734 18.6244 18.5801 20.2208C20.496 21.8776 23.1243 22.1576 25.3724 20.9497C25.5447 20.8563 25.6938 20.6848 25.9249 20.7438Z" fill="#FABC06"/>
<path d="M36.3241 8.50056C34.9088 10.167 33.4852 11.8238 32.0822 13.4998C30.7831 15.0537 29.5072 16.6267 28.2177 18.1888C28.1493 18.2712 28.0413 18.3206 27.9524 18.3851C27.8799 18.0914 28.07 17.8608 28.1521 17.6082C29.4676 13.5286 26.455 9.5534 22.1885 9.71125C20.9331 9.75792 19.8747 10.2754 18.8286 10.8766C18.8135 10.4662 19.1786 10.3139 19.3879 10.0627C21.9642 6.95632 24.5474 3.8541 27.1278 0.751883C27.5763 0.727175 27.9551 0.950919 28.3476 1.11152C31.6473 2.45948 34.1785 4.70378 36.0082 7.75795C36.1463 7.98856 36.32 8.21093 36.3241 8.50056Z" fill="#4385F3"/>
<path d="M17.0549 13.0464C15.9965 13.8178 15.3306 14.9516 14.4745 15.9098C13.1193 17.4265 11.8531 19.0243 10.5512 20.5892C9.85653 21.4237 9.16732 22.2638 8.47675 23.1011C7.94069 22.4642 7.78207 21.6626 7.57558 20.8994C6.15066 15.6627 6.74552 10.7513 10.0015 6.29288C10.1738 6.05678 10.3885 5.84951 10.584 5.62988C13.0086 7.69711 15.4345 9.76572 17.859 11.8329C17.7182 12.1363 17.5172 12.3971 17.2847 12.6346C17.2396 12.7142 17.1944 12.7938 17.1493 12.8734L17.1534 12.8899C17.1179 12.9434 17.0823 12.997 17.0454 13.0505L17.0549 13.0464Z" fill="#E94436"/>
<path d="M17.8603 11.8329C15.4358 9.76566 13.0099 7.69706 10.584 5.62983C12.4301 3.3265 14.7958 1.77127 17.5622 0.830997C20.7348 -0.247916 23.932 -0.278114 27.1291 0.751383C24.5487 3.8536 21.9655 6.95582 19.3892 10.0622C19.18 10.3147 18.8148 10.4671 18.8299 10.8761C18.5072 11.196 18.1844 11.5144 17.8603 11.8329Z" fill="#1B73E7"/>
<path d="M27.8335 18.5341C27.8267 18.4435 27.839 18.368 27.958 18.379C27.9593 18.4668 27.9183 18.5176 27.8335 18.5341Z" fill="#4385F3"/>
<path d="M17.2858 12.6348C17.2789 12.7363 17.3227 12.8667 17.1504 12.875C17.1955 12.794 17.2406 12.7144 17.2858 12.6348Z" fill="#FABC06"/>
<path d="M17.153 12.8906C17.1762 12.984 17.1789 13.0636 17.0449 13.0512C17.0818 12.9991 17.1174 12.9455 17.153 12.8906Z" fill="#FABC06"/>
</svg>
