<svg width="45" height="45" viewBox="0 0 45 45" fill="none" xmlns="http://www.w3.org/2000/svg">
<g clip-path="url(#clip0_4849_26459)">
<path d="M45.0005 17.3156C44.6376 17.9181 44.4544 18.5959 44.2043 19.2455C42.2162 24.4091 40.2339 29.5751 38.2669 34.7459C38.1248 35.1194 37.9698 35.1781 37.5999 35.0736C35.5801 34.5015 33.5508 33.9577 31.5263 33.4033C31.3443 33.3527 31.1658 33.2764 30.9697 33.3304C30.4495 33.0133 29.8388 32.9745 29.2751 32.7913C28.4895 32.5376 27.664 32.4107 26.8971 32.0889C27.3352 31.7235 27.7697 31.3547 28.21 30.9929C32.9872 27.0556 37.7643 23.1194 42.5414 19.182C43.1556 18.6758 43.7674 18.1636 44.3793 17.655C43.9565 17.6503 43.6606 17.8806 43.3423 18.0661C36.7485 21.9154 30.1535 25.767 23.5538 29.6069C22.8997 29.9874 22.2809 30.435 21.5622 30.6981C20.1248 30.3304 18.6863 29.9639 17.2489 29.5939C16.4515 29.3896 15.6565 29.1793 14.7734 28.9491C15.6812 28.5908 16.5208 28.2701 17.3522 27.9307C18.2001 27.5853 19.0808 27.3222 19.8935 26.8923C20.0884 26.8312 20.2869 26.7807 20.4771 26.7067C22.9538 25.74 25.4304 24.7733 27.9035 23.7995C29.8599 23.0301 31.8117 22.2502 33.7657 21.4749C35.593 20.7972 37.4097 20.0935 39.2052 19.3371C40.2997 18.9906 41.346 18.5207 42.417 18.1131C43.0546 17.87 43.6864 17.6092 44.3217 17.3602C44.539 17.2744 44.7586 17.1957 44.9981 17.2298C45.0005 17.2568 45.0005 17.2862 45.0005 17.3156Z" fill="#7ECFFB"/>
<path d="M9.9398 45.0003C9.34207 44.4553 9.35381 44.097 9.97385 43.5814C13.0036 41.0641 16.031 38.5446 19.0596 36.0262C19.1946 35.9134 19.3273 35.7971 19.4671 35.6926C19.8311 35.4224 20.228 35.453 20.484 35.7654C20.7424 36.0814 20.7048 36.4784 20.356 36.7768C19.7336 37.31 19.0983 37.828 18.4677 38.3519C15.9335 40.4569 13.4005 42.563 10.8663 44.6679C10.7336 44.7783 10.5998 44.8887 10.4671 44.9992C10.2909 45.0003 10.1159 45.0003 9.9398 45.0003Z" fill="#FE5666"/>
<path d="M0.0247248 3.2502C0.0282477 2.68285 -0.0703953 2.10963 0.103404 1.55168C0.391113 0.628426 1.24367 0.00117463 2.21249 0C13.8077 0 25.403 0 36.9982 0.00117463C38.2172 0.00117463 39.1977 0.980814 39.2001 2.19655C39.2013 2.54777 39.1919 2.89898 39.1872 3.2502C39.1097 3.28778 39.0251 3.3148 38.9558 3.36296C37.8755 4.11002 36.7998 4.86296 35.7182 5.6065C32.7366 7.6574 29.7503 9.70125 26.7734 11.7569C26.4528 11.9777 26.09 12.1515 25.8445 12.4734C25.5967 12.5004 25.4253 12.6742 25.2351 12.8034C24.2815 13.4495 23.3526 14.1343 22.3803 14.751C21.2846 15.4475 20.0821 15.6778 18.781 15.4886C17.4928 15.3019 16.5145 14.5407 15.4835 13.8559C14.7824 13.3896 14.1518 12.814 13.3685 12.4734C13.3051 12.3524 13.1971 12.2807 13.0879 12.2056C10.7216 10.5717 8.35771 8.9354 5.99497 7.30031C4.78308 6.46163 3.58527 5.60298 2.35458 4.79248C1.57718 4.27917 0.857319 3.68011 0.0247248 3.2502Z" fill="#EFC319"/>
<path d="M13.3674 12.4736C14.1507 12.8143 14.7813 13.3898 15.4824 13.8562C16.5134 14.541 17.4916 15.3021 18.7799 15.4889C20.081 15.678 21.2835 15.4478 22.3792 14.7512C23.3503 14.1334 24.2804 13.4497 25.2339 12.8037C25.4242 12.6745 25.5968 12.5018 25.8434 12.4748C26.2298 12.9094 26.6173 13.344 27.0025 13.7798C28.1016 15.0226 29.1949 16.2712 30.3011 17.5069C31.2042 18.5159 32.1448 19.4932 33.022 20.5234C33.2792 20.8252 33.6538 21.0531 33.7666 21.4736C31.8125 22.2489 29.8596 23.0277 27.9043 23.7982C25.43 24.772 22.9546 25.7387 20.4779 26.7054C20.2877 26.7794 20.0892 26.8299 19.8943 26.891C19.7052 26.884 19.515 26.871 19.3248 26.871C13.7209 26.8699 8.11585 26.8699 2.51199 26.8699C1.91779 26.8699 1.34354 26.8041 0.880859 26.3718C1.07345 26.1945 1.28248 26.0324 1.45628 25.8374C2.54957 24.6087 3.6276 23.3671 4.72324 22.142C5.62629 21.1318 6.55048 20.1416 7.45589 19.1349C8.95549 17.4682 10.4492 15.7967 11.9406 14.1228C12.4256 13.5801 12.893 13.0234 13.3674 12.4736Z" fill="#E47E25"/>
<path d="M13.367 12.4732C12.8925 13.0229 12.4251 13.5797 11.9413 14.1224C10.4499 15.7962 8.9562 17.4677 7.45659 19.1345C6.55119 20.1411 5.62582 21.1314 4.72394 22.1415C3.6283 23.3679 2.5491 24.6083 1.45698 25.8369C1.28436 26.0319 1.07415 26.194 0.881565 26.3714C0.315542 25.9732 0.0172645 25.4129 0.0160902 24.7351C0.00669561 17.6321 0.0102186 10.528 0.0113929 3.42502C0.0113929 3.36629 0.0196131 3.30873 0.0243104 3.25C0.856904 3.67991 1.57676 4.28015 2.35416 4.79229C3.58368 5.60278 4.78266 6.46143 5.99456 7.30012C8.3573 8.9352 10.7212 10.5715 13.0863 12.2042C13.1955 12.2805 13.3035 12.351 13.367 12.4732Z" fill="#F19B1F"/>
<path d="M33.7669 21.472C33.6542 21.0515 33.2796 20.8236 33.0224 20.5217C32.144 19.4916 31.2045 18.5143 30.3015 17.5053C29.1953 16.2696 28.102 15.0209 27.0028 13.7782C26.6176 13.3424 26.2301 12.9078 25.8438 12.4732C26.0892 12.1513 26.452 11.9787 26.7726 11.7567C29.7507 9.70106 32.737 7.65603 35.7174 5.6063C36.799 4.86276 37.8747 4.10865 38.955 3.36276C39.0243 3.3146 39.1089 3.28759 39.1864 3.25C39.1911 4.38939 39.1993 5.52878 39.2005 6.66817C39.204 10.891 39.2052 15.1126 39.2075 19.3354C37.4108 20.0906 35.5941 20.7954 33.7669 21.472Z" fill="#F19B1F"/>
<path d="M21.5625 30.6965C22.2812 30.4322 22.9001 29.9858 23.5542 29.6052C30.1538 25.7654 36.7477 21.9149 43.3426 18.0645C43.6609 17.8789 43.958 17.6487 44.3796 17.6534C43.7666 18.162 43.1559 18.6741 42.5418 19.1804C37.7646 23.1178 32.9875 27.0539 28.2103 30.9913C27.77 31.3543 27.3355 31.7219 26.8974 32.0872C26.8693 32.1354 26.8246 32.18 26.8164 32.2305C26.4923 34.1734 26.1576 36.1138 25.857 38.0602C25.7572 38.7062 25.5575 39.3405 25.5975 40.0054L25.601 40.0007C25.5434 40.0019 25.5094 40.0312 25.4977 40.0864C24.8882 38.8437 24.4067 37.5457 23.87 36.2724C23.0891 34.4189 22.3305 32.5559 21.5625 30.6965Z" fill="#295781"/>
<path d="M25.597 40.0051C25.5571 39.3402 25.7567 38.7059 25.8565 38.0599C26.1572 36.1135 26.4918 34.1731 26.816 32.2302C26.8242 32.1797 26.8688 32.1339 26.897 32.0869C27.6638 32.4088 28.4882 32.5356 29.275 32.7893C29.8387 32.9714 30.4493 33.0102 30.9695 33.3285C29.4687 35.2114 27.9727 37.0967 26.4648 38.9738C26.1842 39.3238 25.947 39.7138 25.597 40.0051Z" fill="#36ABEE"/>
<path d="M21.5448 40.6048C21.5554 40.8127 21.4438 40.9948 21.2759 41.1487C20.5208 41.8394 19.7692 42.5359 19.0047 43.2172C18.6102 43.5684 18.2132 43.5555 17.9255 43.2172C17.6554 42.8989 17.6989 42.5183 18.0676 42.1777C18.818 41.4811 19.5778 40.794 20.3305 40.0997C20.5724 39.8766 20.8508 39.8225 21.1408 39.9482C21.3992 40.0598 21.5471 40.2759 21.5448 40.6048Z" fill="#38ADEE"/>
<path d="M25.4961 40.0867C25.5078 40.0303 25.5419 40.0022 25.5995 40.001C25.5866 40.055 25.6253 40.1713 25.4961 40.0867Z" fill="#36ABEE"/>
</g>
<defs>
<clipPath id="clip0_4849_26459">
<rect width="45" height="45" fill="white"/>
</clipPath>
</defs>
</svg>
