<svg width="45" height="45" viewBox="0 0 45 45" fill="none" xmlns="http://www.w3.org/2000/svg">
<g clip-path="url(#clip0_4849_26472)">
<path d="M1.4977 10.526C1.99969 9.66038 2.77375 9.05914 3.55623 8.48687C4.72394 7.6321 5.9723 6.92341 7.42772 6.66867C9.07816 6.38012 10.4096 6.8896 11.3871 8.26594C12.2526 9.48532 12.7125 10.8834 13.111 12.3044C13.4191 13.4054 13.6358 14.5198 13.5829 15.6764C13.519 17.0648 12.9015 18.1152 11.7121 18.8142C10.7936 19.3539 9.85823 19.8658 8.84582 20.2098C8.51718 20.3221 8.6508 20.4549 8.75914 20.6324C10.1399 22.8889 11.8132 24.8954 13.7827 26.6629C15.0154 27.7688 16.3288 28.7552 17.7228 29.6437C17.9924 29.8152 18.0731 29.7826 18.179 29.488C18.5715 28.4111 19.0891 27.3897 19.7091 26.4311C20.5867 25.0717 21.9398 24.6624 23.459 24.7843C25.2166 24.9256 26.8947 25.4339 28.5114 26.1281C29.4805 26.5434 30.3942 27.0601 31.037 27.9439C31.3681 28.4002 31.6125 28.8904 31.669 29.4602C31.2886 29.6365 30.9106 29.8188 30.5266 29.9866C28.1756 31.0189 25.7125 31.5851 23.1532 31.7058C21.7472 31.7722 20.3483 31.6672 18.9543 31.4487C17.2015 31.1746 15.5054 30.7026 13.8946 29.9661C11.1126 28.6936 8.66284 26.9659 6.63681 24.6358C4.88164 22.6172 3.55383 20.3656 2.65578 17.852C1.80949 15.4832 1.41223 13.042 1.4977 10.526Z" fill="#ACB9DE"/>
<path d="M1.4983 10.5264C1.41163 13.0424 1.81009 15.4848 2.65518 17.8511C3.55323 20.3635 4.88104 22.6151 6.63621 24.635C8.66224 26.9663 11.112 28.6939 13.894 29.9652C15.5048 30.7017 17.2009 31.1738 18.9537 31.4478C20.3477 31.6651 21.7478 31.7702 23.1526 31.705C25.7119 31.5854 28.175 31.0192 30.526 29.9858C30.91 29.8167 31.288 29.6344 31.6684 29.4594C31.9477 30.8285 31.4325 32.0297 30.8595 33.2117C30.5573 33.8335 30.189 34.419 29.7652 34.9671C29.6845 35.0709 29.5846 35.1736 29.6015 35.3257C29.256 35.4537 29.1272 35.7977 28.896 36.0404C28.0582 36.8191 27.1926 37.5532 26.1152 37.9914C24.9319 38.4731 23.7329 38.5456 22.5122 38.1737C18.0508 36.8119 14.0397 34.6267 10.4957 31.5794C5.56481 27.3381 2.17244 22.0888 0.249942 15.8747C-0.354375 13.9225 0.184936 12.2094 1.35385 10.6326C1.38755 10.5843 1.45015 10.5602 1.4983 10.5264Z" fill="#98A4C4"/>
<path d="M25.6393 12.2004C26.3423 12.3525 27.0394 12.5227 27.634 12.9622C27.6449 13.025 27.675 13.0708 27.7436 13.0805L27.7641 13.06C27.6978 13.2845 27.8291 13.4644 27.9037 13.654C28.2829 14.6295 28.3864 15.6303 28.0807 16.6372C27.3776 18.948 25.7344 20.1469 23.3208 20.1469C21.4645 20.1469 19.607 20.1481 17.7507 20.1481C17.5436 19.3187 17.2631 18.5074 17.1596 17.6538C16.8562 15.1438 18.5801 12.7702 21.06 12.2825C21.1767 12.2595 21.2923 12.2233 21.4079 12.1943C22.1543 12.6459 22.9524 12.8982 23.8348 12.8233C24.4873 12.7666 25.0603 12.4756 25.6393 12.2004Z" fill="#F04F4A"/>
<path d="M30.5957 7.13606C30.9087 6.60847 31.2084 6.07121 31.5419 5.5569C31.7225 5.27801 31.7911 4.99912 31.7863 4.67074C31.7718 3.64815 31.7718 2.62556 31.7839 1.60297C31.7947 0.716801 32.405 0.00690354 33.2273 0.00448893C36.5847 -0.00879146 39.9434 0.00569624 43.3008 0.0105255C43.3153 0.888239 43.0348 1.71283 42.8422 2.55312C39.9614 2.5507 37.0807 2.54829 34.1999 2.54346C33.8701 2.54346 33.6137 2.66902 33.6053 3.01431C33.5956 3.38857 33.8605 3.52621 34.2084 3.51896C34.3288 3.51655 34.4479 3.51896 34.5683 3.51896C37.1481 3.52379 39.7291 3.52983 42.3089 3.53466C41.7118 4.52586 40.9534 5.3589 39.9566 5.96135C39.9253 5.44703 39.8073 5.3263 39.3077 5.3251C37.6164 5.32268 35.9238 5.32872 34.2324 5.32027C33.8869 5.31906 33.6101 5.41806 33.6041 5.79353C33.598 6.16901 33.8761 6.29215 34.218 6.29094C34.7116 6.28974 35.2063 6.28853 35.6999 6.29094C36.852 6.29819 38.004 6.30664 39.1561 6.31509C39.1464 6.39115 39.1284 6.45755 39.0453 6.49256C38.2051 6.85355 37.3395 7.12519 36.4198 7.13123C34.4792 7.14692 32.5375 7.13727 30.5957 7.13606Z" fill="#0F9C4A"/>
<path d="M39.9589 5.96256C40.9545 5.36011 41.7141 4.52707 42.3112 3.53587C42.3846 3.52983 42.4593 3.51897 42.5327 3.52018C42.8036 3.525 43.0407 3.47309 43.1382 3.1773C43.2369 2.87789 43.0684 2.70162 42.8433 2.55312C43.0359 1.71283 43.3164 0.888243 43.3019 0.0105302C44.259 -0.0281037 44.9692 0.579172 44.9837 1.53657C45.0102 3.44532 45.0077 5.35408 44.9849 7.26283C44.9728 8.24558 44.2842 8.84561 43.2369 8.84561C39.2956 8.84803 35.3531 8.84682 31.4118 8.84682C30.8159 8.84682 30.22 8.84682 29.5098 8.84682C29.9022 8.22868 30.2501 7.68177 30.5968 7.13486C32.5386 7.13486 34.4803 7.14452 36.4221 7.13244C37.343 7.12641 38.2086 6.85476 39.0476 6.49378C39.1295 6.45876 39.1488 6.39236 39.1584 6.3163C39.4654 6.28974 39.7844 6.29095 39.9589 5.96256Z" fill="#0F8E44"/>
<path d="M25.64 12.2005C25.0622 12.4758 24.4892 12.7668 23.8355 12.8223C22.9531 12.8972 22.155 12.6436 21.4086 12.1933C20.4961 11.5003 19.9219 10.6057 19.781 9.45271C19.7798 8.70177 19.769 7.94961 19.781 7.19867C19.7931 6.41512 20.3276 5.87908 21.11 5.84648C21.364 5.83562 21.6193 5.84648 21.8745 5.84286C23.1313 5.82113 24.3892 5.88994 25.646 5.80664C25.7038 5.81751 25.7616 5.83562 25.8206 5.84045C26.821 5.91168 27.2688 6.38615 27.2712 7.3858C27.2724 8.07397 27.2676 8.76092 27.2664 9.44909C27.0774 10.5755 26.449 11.4424 25.64 12.2005Z" fill="#EAD7AD"/>
<path d="M17.752 20.1477C19.6082 20.1477 21.4657 20.1465 23.322 20.1465C25.7357 20.1465 27.3789 18.9464 28.0819 16.6368C28.3877 15.6299 28.2842 14.6303 27.905 13.6536C27.8315 13.4628 27.6991 13.2841 27.7653 13.0596C29.3183 13.9723 30.238 16.1515 29.8347 18.0349C29.6493 18.9005 29.4158 19.7565 29.181 20.6101C28.9667 21.3864 28.4491 21.821 27.6498 21.8258C24.8906 21.8427 22.1302 21.8464 19.3711 21.8222C18.4538 21.8138 17.9963 21.2922 17.752 20.1477Z" fill="#D54844"/>
<path d="M25.6463 5.8056C24.3895 5.88891 23.1315 5.82009 21.8747 5.84182C21.6195 5.84665 21.3655 5.83458 21.1103 5.84544C20.3278 5.87804 19.7933 6.41408 19.7813 7.19763C19.7692 7.94857 19.7801 8.70073 19.7813 9.45167C17.9791 7.43667 18.5389 3.94514 20.9345 2.4517C22.4068 1.53415 23.9621 1.39893 25.5548 2.16436C25.7402 3.01672 26.0255 3.85097 25.8377 4.75404C25.7654 5.10174 25.615 5.43858 25.6463 5.8056Z" fill="#494949"/>
<path d="M28.8965 36.038C29.1276 35.7953 29.2564 35.4524 29.6019 35.3232C30.1521 35.6287 30.7082 35.9245 31.2524 36.2408C32.3057 36.8541 32.6404 37.9745 32.0962 39.0743C31.77 39.7335 31.4185 40.3795 31.0874 41.0362C30.695 41.8137 30.8948 42.3908 31.6893 42.7663C32.5693 43.1828 33.4541 43.5885 34.3378 43.9978C34.6459 44.1402 34.9228 44.3189 34.7483 44.7113C34.5761 45.0988 34.2631 45.0312 33.9489 44.8839C33.0268 44.4517 32.0974 44.034 31.1801 43.5921C30.0184 43.0331 29.6188 41.8367 30.199 40.674C30.5204 40.0293 30.8599 39.3931 31.1862 38.7508C31.581 37.9733 31.4221 37.4409 30.6685 37.0171C30.0786 36.6863 29.4864 36.3639 28.8965 36.038Z" fill="#4B4B4B"/>
<path d="M25.645 5.80605C25.6137 5.43903 25.7654 5.10219 25.8376 4.75569C26.0254 3.85263 25.7413 3.01838 25.5547 2.16602C28.3536 3.38419 29.2071 7.15461 27.2653 9.4485C27.2677 8.76033 27.2713 8.07337 27.2701 7.38521C27.2677 6.38556 26.8199 5.91229 25.8195 5.83985C25.7605 5.83503 25.7028 5.81812 25.645 5.80605Z" fill="#424242"/>
<path d="M27.7443 13.0793C27.6757 13.0696 27.6456 13.0249 27.6348 12.9609C27.6709 13.0008 27.7082 13.0406 27.7443 13.0793Z" fill="#D54844"/>
<path d="M42.8414 2.55338C43.0665 2.70067 43.2363 2.87815 43.1364 3.17756C43.0389 3.47335 42.8005 3.52526 42.5308 3.52044C42.4574 3.51923 42.3828 3.53009 42.3093 3.53613C39.7296 3.5313 37.1486 3.52526 34.5688 3.52044C34.4484 3.52044 34.3292 3.51802 34.2088 3.52044C33.8597 3.52768 33.5961 3.39005 33.6057 3.01578C33.6142 2.66928 33.8706 2.54372 34.2004 2.54493C37.0799 2.54855 39.9607 2.54976 42.8414 2.55338Z" fill="#DFEDF0"/>
<path d="M39.9581 5.96238C39.7836 6.29077 39.4646 6.28835 39.1576 6.31612C38.0055 6.30767 36.8535 6.29922 35.7014 6.29198C35.2078 6.28956 34.7131 6.28956 34.2195 6.29198C33.8776 6.29318 33.5995 6.17004 33.6056 5.79456C33.6116 5.41909 33.8885 5.32009 34.234 5.3213C35.9253 5.32854 37.6179 5.32251 39.3093 5.32613C39.8089 5.32734 39.9256 5.44807 39.9581 5.96238Z" fill="#DEECEF"/>
</g>
<defs>
<clipPath id="clip0_4849_26472">
<rect width="45" height="45" fill="white"/>
</clipPath>
</defs>
</svg>
