<svg width="154" height="34" viewBox="0 0 154 34" fill="none" xmlns="http://www.w3.org/2000/svg">
<path d="M25.6225 2.67132C25.3931 2.46857 25.1249 2.31442 24.8342 2.21822C23.6356 2.0655 22.4278 1.99513 21.2196 2.00761H4.93275C3.98096 2.00761 3.25454 2.22241 2.7535 2.652C2.25246 3.08159 2.00129 3.66737 2 4.40933C2 5.12488 2.24117 5.701 2.72351 6.13768C3.20586 6.57434 3.94227 6.79267 4.93275 6.79267H11.2664V27.5869C11.2664 28.772 11.5372 29.6573 12.0789 30.2428C12.6206 30.8282 13.3212 31.1212 14.1807 31.1219C15.0262 31.1219 15.7187 30.8321 16.2527 30.2524C16.7866 29.6727 17.0536 28.7849 17.0536 27.586V19.4843L17.0787 18.4641V15.7774L17.0496 15.1146V6.79267H23.4394C24.4028 6.78495 25.1273 6.56726 25.6128 6.13961C26.1081 5.70358 26.3557 5.12746 26.3557 4.41126C26.3557 3.69506 26.1113 3.11508 25.6225 2.67132Z" fill="url(#paint0_linear_1103_19901)"/>
<path d="M31.9523 10.6002C31.9523 13.5152 31.0527 15.725 29.2536 17.2296C27.7389 18.4961 25.4455 19.5482 22.6317 19.8457C21.0048 20.0196 19.3856 20.2621 17.7828 20.5887L11.2615 21.919L17.0496 15.1099H19.8112C21.1802 15.1099 22.3241 14.9666 23.243 14.68C24.1619 14.3934 24.8616 13.9252 25.342 13.2753C25.8237 12.6235 26.0649 11.7708 26.0655 10.7171C26.0655 9.45472 25.6938 8.42616 24.9502 7.63136C24.6007 7.27585 24.0965 6.99567 23.4375 6.79086H17.0535L21.8898 2L22.1877 2.00676C23.6019 2.00676 23.8398 2.07729 24.8352 2.21737C25.3305 2.28232 25.8208 2.38142 26.3025 2.51396C27.4271 2.81382 28.4674 3.36854 29.3426 4.13507C30.1996 4.89449 30.8662 5.84418 31.2887 6.90776C31.7298 8.00267 31.951 9.23349 31.9523 10.6002Z" fill="url(#paint1_linear_1103_19901)"/>
<path d="M52.7081 10.3581H48.5916V23.8944C48.5916 24.6756 48.4176 25.2543 48.0696 25.6306C47.8985 25.8157 47.6893 25.9616 47.4565 26.0583C47.2236 26.1551 46.9725 26.2004 46.7205 26.1912C46.4647 26.2 46.2101 26.1534 45.974 26.0547C45.7379 25.956 45.526 25.8075 45.3527 25.6194C45.0009 25.2381 44.825 24.6619 44.825 23.8907V10.3581H40.7085C40.063 10.3581 39.5859 10.2161 39.2696 9.932C39.1192 9.78363 39.0001 9.60657 38.9194 9.41133C38.8387 9.21609 38.798 9.00671 38.7997 8.7955C38.8015 8.58437 38.8456 8.37561 38.9296 8.18177C39.0135 7.98794 39.1355 7.81289 39.2883 7.66699C39.6164 7.38659 40.0898 7.24648 40.7085 7.24648H52.7081C53.3612 7.24648 53.8477 7.39037 54.1639 7.67814C54.321 7.82105 54.445 7.99637 54.5274 8.19187C54.6098 8.38746 54.6486 8.59868 54.641 8.81068C54.6483 9.02155 54.6087 9.23145 54.5252 9.42528C54.4418 9.61921 54.3165 9.79224 54.1583 9.932C53.8364 10.2161 53.3518 10.3581 52.7081 10.3581Z" fill="black"/>
<path d="M64.6969 19.9922H57.9005C57.8927 20.7153 58.0562 21.43 58.3776 22.0779C58.6407 22.6299 59.0572 23.0946 59.5774 23.4167C60.0976 23.7388 60.6996 23.9046 61.3116 23.8944C61.6957 23.8984 62.0786 23.8493 62.4492 23.7486C62.8035 23.6471 63.1403 23.4927 63.4485 23.2907C63.7615 23.0907 64.0592 22.8677 64.3392 22.6235C64.6125 22.3869 64.965 22.0648 65.3966 21.6574C65.6154 21.4924 65.8861 21.4115 66.1595 21.4294C66.475 21.4147 66.7844 21.5187 67.0261 21.7209C67.1377 21.8262 67.2256 21.9547 67.2828 22.0974C67.339 22.2402 67.3645 22.3936 67.3557 22.547C67.3293 22.9403 67.2001 23.3198 66.9813 23.6478C66.6895 24.1165 66.3115 24.5261 65.8677 24.855C65.3025 25.2772 64.6697 25.6013 63.9967 25.8137C63.1598 26.0796 62.2849 26.2058 61.4071 26.1875C59.1741 26.1875 57.439 25.5521 56.2016 24.2812C54.9641 23.0104 54.3447 21.2861 54.3435 19.1083C54.3344 18.1379 54.4894 17.1732 54.8019 16.2545C55.0835 15.4171 55.5387 14.6485 56.1379 13.9988C56.7397 13.3598 57.4795 12.8664 58.301 12.556C59.2133 12.2106 60.1826 12.04 61.1581 12.0532C62.5154 12.0532 63.6798 12.3391 64.6512 12.9111C65.5741 13.4333 66.3309 14.2048 66.8354 15.1368C67.3047 15.9859 67.5544 16.9386 67.5614 17.9084C67.5614 18.7806 67.3118 19.3462 66.8125 19.6053C66.3142 19.8645 65.6084 19.9934 64.6969 19.9922ZM57.9005 18.0224H64.2003C64.1142 16.8351 63.794 15.9473 63.2389 15.3593C62.956 15.0663 62.6141 14.8366 62.2357 14.6855C61.8573 14.5344 61.4512 14.4654 61.0441 14.4827C60.6448 14.4705 60.2477 14.5443 59.8796 14.699C59.5115 14.8539 59.1812 15.086 58.911 15.3798C58.3546 15.9728 58.0178 16.8537 57.9005 18.0224Z" fill="black"/>
<path d="M70.679 12.3915H71.0525V10.3059C71.0525 9.74518 71.0657 9.30783 71.0956 8.99767C71.1158 8.70955 71.2011 8.42969 71.3452 8.17905C71.4849 7.93772 71.6871 7.73774 71.9306 7.59974C72.1899 7.45033 72.4843 7.37351 72.784 7.37729C73.2314 7.38098 73.6603 7.55857 73.9794 7.87259C74.2132 8.08617 74.3705 8.36938 74.4303 8.67997C74.5032 9.12777 74.5349 9.58128 74.5261 10.0349V12.399H75.8172C76.2215 12.3715 76.6223 12.4962 76.9396 12.7485C77.0653 12.8606 77.1655 12.9988 77.2323 13.1534C77.2991 13.308 77.3316 13.4753 77.3272 13.6437C77.3422 13.8443 77.2974 14.0449 77.1972 14.2195C77.097 14.3942 76.9467 14.5347 76.7656 14.6229C76.2646 14.8341 75.7232 14.93 75.1809 14.9033H74.5313V21.2836C74.5252 21.7018 74.5445 22.1199 74.5894 22.5358C74.614 22.7992 74.7203 23.0483 74.8944 23.2478C75.0605 23.4347 75.3303 23.5206 75.703 23.5206C75.9807 23.5114 76.2585 23.4758 76.5301 23.4142C76.7972 23.3519 77.0706 23.3156 77.3457 23.3057C77.4863 23.3085 77.6252 23.3397 77.7544 23.3976C77.8827 23.4554 77.9988 23.5386 78.0937 23.6421C78.2044 23.75 78.2923 23.8795 78.3503 24.0226C78.4083 24.1658 78.4365 24.3193 78.433 24.4738C78.433 25.0345 78.1262 25.4624 77.5162 25.7577C76.9062 26.053 76.0185 26.2025 74.8812 26.2025C73.7939 26.2025 72.973 26.0157 72.4113 25.6568C71.8655 25.3112 71.4718 24.7705 71.3109 24.1449C71.1167 23.2989 71.0288 22.4317 71.0508 21.5639V14.8958H70.5928C70.1824 14.9218 69.7763 14.7946 69.4546 14.5388C69.3272 14.4266 69.2252 14.2875 69.1566 14.1315C69.0881 13.9755 69.0556 13.8064 69.06 13.6362C69.0564 13.4654 69.0916 13.2959 69.1628 13.1407C69.2349 12.9856 69.3412 12.8489 69.4739 12.741C69.7508 12.508 70.1525 12.3915 70.679 12.3915Z" fill="black"/>
<path d="M83.1625 21.1883V24.085C83.1625 24.789 82.9972 25.3166 82.6668 25.668C82.5059 25.8403 82.3108 25.9765 82.0937 26.0674C81.8757 26.1582 81.641 26.2018 81.4055 26.195C81.1735 26.2016 80.9432 26.1573 80.7305 26.0653C80.5169 25.9733 80.327 25.8357 80.1723 25.6624C79.8489 25.3055 79.6863 24.7802 79.688 24.085V14.4248C79.688 12.8662 80.2497 12.0868 81.3721 12.0868C81.9487 12.0868 82.3635 12.2687 82.6184 12.6326C82.8724 12.9964 83.0131 13.5346 83.0394 14.2473C83.3699 13.6404 83.8024 13.0943 84.3174 12.6326C84.7551 12.2687 85.3387 12.0868 86.0683 12.0868C86.8118 12.0903 87.5422 12.2779 88.1944 12.6326C88.8817 12.9976 89.2245 13.4811 89.2236 14.0828C89.2254 14.4581 89.083 14.8197 88.8246 15.092C88.5662 15.3644 88.212 15.5264 87.8367 15.5443C87.522 15.4996 87.2126 15.4207 86.9147 15.3088C86.4989 15.1644 86.063 15.085 85.6235 15.0733C85.1726 15.0528 84.7296 15.1948 84.3754 15.4732C84.0203 15.7925 83.761 16.204 83.6266 16.6619C83.4306 17.2684 83.3049 17.8955 83.253 18.5307C83.1924 19.2596 83.1625 20.1455 83.1625 21.1883Z" fill="black"/>
<path d="M103.145 19.1419C103.154 20.1162 102.99 21.0843 102.66 22.0012C102.357 22.8388 101.88 23.603 101.261 24.244C100.643 24.8759 99.8959 25.3679 99.0715 25.6868C98.1574 26.0325 97.1861 26.2025 96.2088 26.1876C95.2393 26.2085 94.276 26.0415 93.3698 25.6961C92.5454 25.3692 91.7991 24.8711 91.1821 24.2348C90.5642 23.5985 90.0887 22.8385 89.7873 22.005C89.1447 20.1456 89.1447 18.1251 89.7873 16.2657C90.0852 15.4289 90.5581 14.6646 91.1733 14.023C91.7921 13.3953 92.5392 12.9078 93.3628 12.5934C95.2033 11.9205 97.2231 11.9205 99.0636 12.5934C99.8942 12.9119 100.646 13.4062 101.266 14.0424C101.888 14.6786 102.363 15.4416 102.66 16.2788C102.99 17.1971 103.154 18.1664 103.145 19.1419ZM99.6568 19.1419C99.6568 17.7253 99.3457 16.6233 98.7216 15.8358C98.4272 15.4538 98.0466 15.1472 97.6098 14.9418C97.1738 14.7364 96.6948 14.638 96.2123 14.6547C95.5742 14.6421 94.9475 14.8261 94.4184 15.1817C93.8717 15.5692 93.4542 16.1116 93.2204 16.7386C92.9268 17.5051 92.7844 18.3213 92.8011 19.1419C92.7853 19.9532 92.9277 20.7598 93.2186 21.5173C93.4524 22.1413 93.8638 22.6832 94.4034 23.0759C94.9352 23.4418 95.5698 23.6308 96.2158 23.616C96.6992 23.6325 97.18 23.5332 97.6168 23.3264C98.0545 23.1197 98.4351 22.8114 98.7287 22.4274C99.3492 21.635 99.6586 20.5398 99.6568 19.1419Z" fill="black"/>
<path d="M113.363 18.6205H109.902V23.8944C109.902 24.6494 109.724 25.222 109.368 25.6119C109.197 25.7907 108.991 25.9338 108.764 26.0333C108.537 26.1328 108.292 26.1865 108.044 26.1916C107.797 26.1966 107.55 26.1528 107.319 26.0626C107.088 25.9725 106.877 25.8377 106.698 25.6661L106.643 25.6119C106.301 25.2307 106.129 24.6669 106.129 23.9206V9.55644C106.129 8.72667 106.32 8.13358 106.701 7.77725C107.084 7.42092 107.69 7.24271 108.523 7.24271H113.371C114.805 7.24271 115.908 7.35306 116.681 7.57358C117.415 7.76768 118.094 8.1291 118.665 8.62949C119.222 9.12426 119.655 9.74176 119.931 10.4329C120.225 11.1995 120.367 12.0156 120.349 12.8363C120.349 14.735 119.764 16.1735 118.592 17.1516C117.422 18.1296 115.678 18.6192 113.363 18.6205ZM112.448 10.0778H109.902V15.7723H112.448C113.202 15.7894 113.953 15.6955 114.68 15.4939C115.224 15.3437 115.704 15.0226 116.05 14.5781C116.383 14.0885 116.547 13.5042 116.52 12.9129C116.549 12.1746 116.29 11.4538 115.796 10.9039C115.252 10.3532 114.135 10.0778 112.448 10.0778Z" fill="black"/>
<path d="M133.154 23.7673L132.263 21.4294H124.677L123.787 23.8272C123.439 24.7578 123.142 25.3871 122.897 25.7147C122.651 26.0418 122.247 26.2044 121.688 26.2025C121.453 26.2034 121.221 26.158 121.005 26.0689C120.789 25.9797 120.592 25.8485 120.427 25.6829C120.257 25.5353 120.121 25.3536 120.027 25.1497C119.933 24.9459 119.883 24.7245 119.88 24.5C119.882 24.2322 119.925 23.9662 120.008 23.7113C120.092 23.4409 120.232 23.0671 120.427 22.59L125.199 10.489C125.335 10.1414 125.499 9.72464 125.69 9.23689C125.85 8.81156 126.055 8.40432 126.3 8.02209C126.52 7.6985 126.811 7.43093 127.153 7.24087C127.556 7.02807 128.008 6.92492 128.463 6.94186C128.918 6.92694 129.369 7.03 129.773 7.24087C130.112 7.42996 130.404 7.69324 130.626 8.01085C130.844 8.32662 131.028 8.66496 131.173 9.02006C131.322 9.38078 131.509 9.8629 131.733 10.4628L136.598 22.489C136.981 23.4035 137.171 24.0683 137.171 24.4831C137.167 24.7077 137.118 24.929 137.025 25.1335C136.932 25.3379 136.797 25.5211 136.631 25.6718C136.461 25.8467 136.257 25.9848 136.031 26.0778C135.806 26.1707 135.565 26.2163 135.32 26.2119C135.058 26.2191 134.797 26.1654 134.558 26.0549C134.348 25.9524 134.166 25.8042 134.022 25.6213C133.833 25.3616 133.678 25.0798 133.558 24.7822C133.409 24.3947 133.273 24.0564 133.154 23.7673ZM125.67 18.5944H131.244L128.437 10.9039L125.67 18.5944Z" fill="black"/>
<path d="M142.484 23.8944V17.985L137.927 10.9319C137.616 10.4502 137.333 9.95104 137.079 9.43678C136.931 9.14638 136.847 8.8278 136.832 8.50237C136.831 8.29045 136.875 8.08072 136.961 7.88724C137.048 7.69384 137.175 7.52116 137.334 7.38097C137.67 7.06642 138.116 6.89708 138.577 6.91007C139.093 6.91007 139.485 7.05642 139.754 7.34928C140.201 7.89804 140.603 8.48244 140.954 9.0966L144.443 14.7537L147.967 9.0966L148.503 8.22013C148.645 7.99127 148.803 7.7732 148.978 7.56787C149.137 7.37219 149.334 7.21022 149.557 7.09135C149.798 6.97416 150.065 6.9171 150.333 6.925C150.552 6.91877 150.77 6.9566 150.975 7.03622C151.179 7.11585 151.365 7.23559 151.523 7.38852C151.672 7.52494 151.792 7.69086 151.874 7.87583C151.956 8.06079 151.999 8.26077 152 8.46313C151.996 8.80796 151.914 9.14743 151.758 9.45548C151.511 9.92935 151.235 10.3875 150.931 10.8272L146.254 17.985V23.8944C146.254 24.6657 146.075 25.2419 145.718 25.6231C145.362 25.9836 144.878 26.1881 144.371 26.1916C143.864 26.1951 143.376 25.9973 143.015 25.6418L142.996 25.6231C142.655 25.253 142.484 24.6756 142.484 23.8944Z" fill="black"/>
<defs>
<linearGradient id="paint0_linear_1103_19901" x1="2" y1="16.5648" x2="26.3557" y2="16.5648" gradientUnits="userSpaceOnUse">
<stop stop-color="#FA01E4"/>
<stop offset="1" stop-color="#3E1CEB"/>
</linearGradient>
<linearGradient id="paint1_linear_1103_19901" x1="11.2615" y1="11.9595" x2="31.9523" y2="11.9595" gradientUnits="userSpaceOnUse">
<stop stop-color="#03EBFC"/>
<stop offset="1" stop-color="#213AEE"/>
</linearGradient>
</defs>
</svg>
